<svg id="Group_1422" data-name="Group 1422" xmlns="http://www.w3.org/2000/svg" xmlns:xlink="http://www.w3.org/1999/xlink" width="113.677" height="120.347" viewBox="0 0 113.677 120.347">
  <defs>
    <linearGradient id="linear-gradient" x1="2.595" y1="2.152" x2="0.038" y2="0.229" gradientUnits="objectBoundingBox">
      <stop offset="0" stop-color="#d12af0"/>
      <stop offset="1" stop-color="#5663ff"/>
    </linearGradient>
    <linearGradient id="linear-gradient-2" x1="2.595" y1="2.152" x2="0.038" y2="0.229" gradientUnits="objectBoundingBox">
      <stop offset="0" stop-color="#d1d9f0"/>
      <stop offset="1" stop-color="#f7faff"/>
    </linearGradient>
    <linearGradient id="linear-gradient-3" x1="1.586" y1="3.757" x2="0.292" y2="-0.124" xlink:href="#linear-gradient"/>
    <linearGradient id="linear-gradient-4" x1="1.17" y1="0.5" x2="-0.144" y2="0.5" xlink:href="#linear-gradient-2"/>
    <linearGradient id="linear-gradient-7" x1="0.674" y1="0.666" x2="0.072" y2="0.092" xlink:href="#linear-gradient-2"/>
    <linearGradient id="linear-gradient-8" x1="0.598" y1="0.222" x2="0.098" y2="1.644" xlink:href="#linear-gradient-2"/>
  </defs>
  <g id="Group_409" data-name="Group 409" transform="translate(0 0)">
    <path id="Path_558" data-name="Path 558" d="M271.947,756.193V814.46a4.02,4.02,0,0,1-4.021,4.022h-49.4a4.02,4.02,0,0,1-4.016-4.022V746.092a4.019,4.019,0,0,1,4.016-4.021h37.716Z" transform="translate(-158.27 -698.135)" fill="url(#linear-gradient)"/>
    <path id="Path_559" data-name="Path 559" d="M254.417,717.32V799.8a5.691,5.691,0,0,1-5.693,5.693H178.793a5.689,5.689,0,0,1-5.686-5.693V703.023a5.69,5.69,0,0,1,5.686-5.693h53.386Z" transform="translate(-157.525 -697.33)" fill="url(#linear-gradient-2)"/>
    <rect id="Rectangle_257" data-name="Rectangle 257" width="26.274" height="8.758" rx="4.379" transform="translate(58.941 31.529)" fill="url(#linear-gradient-3)"/>
    <g id="Group_408" data-name="Group 408" transform="translate(28.288 52.694)">
      <rect id="Rectangle_258" data-name="Rectangle 258" width="56.926" height="8.758" rx="4.379" transform="translate(0 29.193)" fill="url(#linear-gradient-4)"/>
      <rect id="Rectangle_259" data-name="Rectangle 259" width="56.926" height="8.758" rx="4.379" transform="translate(0 14.596)" fill="url(#linear-gradient-4)"/>
      <rect id="Rectangle_260" data-name="Rectangle 260" width="56.926" height="8.758" rx="4.379" fill="url(#linear-gradient-4)"/>
    </g>
    <rect id="Rectangle_261" data-name="Rectangle 261" width="39.832" height="52.982" rx="2.839" transform="translate(0 26.369)" fill="url(#linear-gradient-7)"/>
  </g>
  <path id="Path_560" data-name="Path 560" d="M255.457,717.32v2.627H230.95V697.33h2.27Z" transform="translate(-158.566 -697.33)" fill="url(#linear-gradient-8)"/>
</svg>
