<svg xmlns="http://www.w3.org/2000/svg" xmlns:xlink="http://www.w3.org/1999/xlink" width="353" height="346" viewBox="0 0 353 346">
  <defs>
    <clipPath id="clip-path">
      <rect id="SVGID" width="353" height="346" transform="translate(-0.253)" fill="none"/>
    </clipPath>
    <linearGradient id="linear-gradient" x1="0.19" y1="0.799" x2="1.163" y2="0.193" gradientUnits="objectBoundingBox">
      <stop offset="0" stop-color="#525252"/>
      <stop offset="1" stop-color="#2b3451"/>
    </linearGradient>
    <linearGradient id="linear-gradient-2" x1="0.673" y1="0.262" x2="-1.371" y2="1.689" gradientUnits="objectBoundingBox">
      <stop offset="0" stop-color="#357eeb" stop-opacity="0"/>
      <stop offset="0.08" stop-color="#357eeb" stop-opacity="0.122"/>
      <stop offset="0.269" stop-color="#357eeb" stop-opacity="0.384"/>
      <stop offset="0.45" stop-color="#357eeb" stop-opacity="0.604"/>
      <stop offset="0.618" stop-color="#357eeb" stop-opacity="0.776"/>
      <stop offset="0.771" stop-color="#357eeb" stop-opacity="0.898"/>
      <stop offset="0.903" stop-color="#357eeb" stop-opacity="0.973"/>
      <stop offset="1" stop-color="#357eeb"/>
    </linearGradient>
    <linearGradient id="linear-gradient-3" x1="-3.722" y1="0.027" x2="1.115" y2="0.586" gradientUnits="objectBoundingBox">
      <stop offset="0.447" stop-color="#3febd4"/>
      <stop offset="0.601" stop-color="#3febd4" stop-opacity="0.659"/>
      <stop offset="0.742" stop-color="#3febd4" stop-opacity="0.376"/>
      <stop offset="0.86" stop-color="#3febd4" stop-opacity="0.173"/>
      <stop offset="0.949" stop-color="#3febd4" stop-opacity="0.047"/>
      <stop offset="1" stop-color="#3febd4" stop-opacity="0"/>
    </linearGradient>
  </defs>
  <g id="Group_1419" data-name="Group 1419" transform="translate(-1386.747 -18)">
    <g id="Group_430" data-name="Group 430" transform="translate(1387 18)" clip-path="url(#clip-path)">
      <g id="Group_429" data-name="Group 429" transform="translate(16.374 -7.773)">
        <g id="Group_426" data-name="Group 426" transform="translate(89.44)">
          <path id="Path_570" data-name="Path 570" d="M1771.447,17.452c-32.29-14.909-69.644-8.782-102.085,2.373a247.659,247.659,0,0,0-86.782,51.094,221.38,221.38,0,0,0-56.234,81.391,202.335,202.335,0,0,0-7.7,23.594c-2.208,8.511-3.939,17.3-3.851,26.127.086,8.6,2.061,17.205,6.695,24.53a51.371,51.371,0,0,0,16.934,16.2c15.672,9.492,34.69,11.156,52.6,11.685,19.836.585,39.658-.751,59.493-.739,17.511.011,35.116,1.142,52.127,5.543a115.589,115.589,0,0,1,23.494,8.707c7.165,3.643,14.67,8.062,19.909,14.279,5.191,6.161,5.993,14.228,3.555,21.732-2.487,7.654-8.168,13.768-14.619,18.364a97.874,97.874,0,0,1-22.329,11.612,72.95,72.95,0,0,1-25.184,5.118A44.328,44.328,0,0,1,1664,332.776a51.022,51.022,0,0,1-16.03-16.041c-9.6-14.934-11.853-33.137-11.651-50.538a182.483,182.483,0,0,1,100.9-161.144,179.22,179.22,0,0,1,21.534-9.129c3-1.048,1.709-5.849-1.321-4.791A187.485,187.485,0,0,0,1633.841,238.1c-2.88,17.6-3.765,36.056-.544,53.673,2.988,16.346,10.584,32.146,24.005,42.4,13.91,10.63,31.7,11.708,48.169,7.292a108.621,108.621,0,0,0,23.984-9.865c7.382-4.054,14.357-9.075,19.472-15.847,4.774-6.322,7.688-14.561,6.888-22.54-.865-8.639-5.974-15.282-12.666-20.464-13.472-10.433-30-16.6-46.565-20-37.763-7.743-76.294-1.307-114.416-3.677-17.14-1.066-35.44-4.251-48.687-16.07a39.625,39.625,0,0,1-12.293-19.548c-2.251-8.64-1.6-17.8.031-26.492a189.168,189.168,0,0,1,16.281-47.722,215.374,215.374,0,0,1,27.056-42.092c21.59-26.265,49.17-47.147,79.8-61.78A243.652,243.652,0,0,1,1692.7,18.165c16.962-4.046,34.845-6.075,52.194-3.461a88.909,88.909,0,0,1,24.045,7.038,2.561,2.561,0,0,0,3.4-.891,2.5,2.5,0,0,0-.892-3.4Z" transform="translate(-1514.788 -8.613)" fill="url(#linear-gradient)"/>
        </g>
        <g id="Group_427" data-name="Group 427" transform="translate(0 31.157)">
          <path id="Path_571" data-name="Path 571" d="M1730.036,148.258a197.651,197.651,0,0,0-202.008-99.947c-27.764,3.961-55.263,13.709-78.695,29.247-10.923,7.243-20.941,15.918-28.8,26.457-8,10.724-14.292,24.2-13.722,37.853,1.284,30.765,38.71,38.463,63.258,39.7,31.561,1.586,63.225-6.036,93.782-13,31.678-7.225,62.974-15.852,94.07-25.25,30.1-9.1,60.1-18.615,90.535-26.556,30.5-7.955,61.511-14.345,92.974-16.816q11.361-.893,22.762-1.086c3.193-.055,3.2-5.023,0-4.968-30.439.519-60.666,5-90.346,11.6-29.966,6.663-59.412,15.422-88.763,24.36-29.67,9.035-59.308,18.151-89.354,25.875q-23.2,5.963-46.625,11.035c-15.228,3.3-30.53,6.518-46.009,8.4-14.945,1.818-30.216,2.458-45.162.3-12.813-1.854-27.393-5.3-37.21-14.321-10.582-9.723-10.541-24.266-5.789-36.942,4.5-12.011,12.713-22.4,22.141-30.947,19.919-18.055,46.037-29.665,71.9-36.144a196.436,196.436,0,0,1,82.965-2.775,191.9,191.9,0,0,1,70.612,28.566,195.99,195.99,0,0,1,53.524,52.281q5.206,7.563,9.665,15.6c1.555,2.795,5.848.291,4.29-2.507Z" transform="translate(-1406.775 -46.24)" fill="url(#linear-gradient-2)"/>
        </g>
        <g id="Group_428" data-name="Group 428" transform="translate(104.96 7.687)">
          <path id="Path_572" data-name="Path 572" d="M1540.582,19.151c-10.806,21.215-7.736,46.3-.511,68.137,7.157,21.629,18.482,42.032,34.112,58.7,15.371,16.387,34.707,28.453,55.451,36.835,21.8,8.809,45.045,13.379,68.411,15.383,26.541,2.277,53.221,1.275,79.781-.1q4.8-.248,9.609-.509c3.181-.171,3.2-5.14,0-4.968-26.012,1.4-52.1,2.764-78.14,1.385-23.5-1.244-46.928-4.847-69.222-12.567-20.4-7.064-39.809-17.628-55.71-32.348-16.214-15.007-28.423-34.062-36.429-54.593-7.951-20.391-13.323-44.024-6.175-65.434a53.9,53.9,0,0,1,3.113-7.409c1.448-2.844-2.837-5.361-4.29-2.508Z" transform="translate(-1533.531 -17.896)" fill="url(#linear-gradient-3)"/>
        </g>
      </g>
    </g>
  </g>
</svg>
