<svg id="Group_456" data-name="Group 456" xmlns="http://www.w3.org/2000/svg" width="217.889" height="54.274" viewBox="0 0 217.889 54.274">
  <path id="Path_592" data-name="Path 592" d="M54.774,41.073a13.582,13.582,0,0,1-13.6,13.6H14.1A13.582,13.582,0,0,1,.5,41.073V14A13.582,13.582,0,0,1,14.1.4H41.173A13.582,13.582,0,0,1,54.774,14Z" transform="translate(-0.5 -0.4)" fill="#0087cd"/>
  <g id="Group_456-2" data-name="Group 456" transform="translate(6.735 10.96)">
    <path id="Path_593" data-name="Path 593" d="M35.5,20.9c1.321-4.094,3.7-13.073,4.49-16.375.66-2.773.924-3.83-.4-3.83-1.056,0-3.962,1.188-4.622,3.433-.924,3.7-2.905,11.489-3.7,14.262-.924,3.037-2.773,3.7-5.282,3.7-1.849,0-2.905-.132-3.169-1.188a.674.674,0,0,0-.66-.528H19.126a.6.6,0,0,0-.66.528c-.264,1.188-1.321,1.188-3.169,1.188-1.585,0-3.962-.264-4.754-3.169-.66-1.981-2.113-7.131-2.905-9.9S4.468,6.114,3.279,6.114c-1.321,0-1.453.264-.66,2.905S5.26,17.735,6.449,21.7s5.018,5.282,7.527,5.282H18.2a3.918,3.918,0,0,0,2.245-.528.638.638,0,0,1,.924,0,4.251,4.251,0,0,0,2.377.66h4.094A8.567,8.567,0,0,0,35.5,20.9Z" transform="translate(-0.11 -0.7)" fill="#fff"/>
    <circle id="Ellipse_98" data-name="Ellipse 98" cx="1.981" cy="1.981" r="1.981" transform="translate(12.149 6.339)" fill="#fff"/>
    <circle id="Ellipse_99" data-name="Ellipse 99" cx="1.981" cy="1.981" r="1.981" transform="translate(18.62 6.339)" fill="#fff"/>
    <circle id="Ellipse_100" data-name="Ellipse 100" cx="1.981" cy="1.981" r="1.981" transform="translate(25.222 6.339)" fill="#fff"/>
    <circle id="Ellipse_101" data-name="Ellipse 101" cx="1.981" cy="1.981" r="1.981" transform="translate(12.149 13.47)" fill="#fff"/>
    <circle id="Ellipse_102" data-name="Ellipse 102" cx="1.981" cy="1.981" r="1.981" transform="translate(18.62 13.47)" fill="#fff"/>
    <circle id="Ellipse_103" data-name="Ellipse 103" cx="1.981" cy="1.981" r="1.981" transform="translate(25.222 13.47)" fill="#fff"/>
    <path id="Path_594" data-name="Path 594" d="M4.562,21.5A3.973,3.973,0,0,0,.6,25.462a4.062,4.062,0,0,0,3.962,3.962,3.962,3.962,0,0,0,0-7.923Zm0,5.546a1.453,1.453,0,1,1,1.453-1.453A1.561,1.561,0,0,1,4.562,27.046ZM37.575,21.5a3.973,3.973,0,0,0-3.962,3.962,3.962,3.962,0,1,0,7.923,0A3.973,3.973,0,0,0,37.575,21.5Zm0,5.546a1.453,1.453,0,1,1,1.453-1.453A1.465,1.465,0,0,1,37.575,27.046Z" transform="translate(-0.6 5.967)" fill="#fff"/>
  </g>
  <g id="Group_457" data-name="Group 457" transform="translate(69.857 4.226)">
    <path id="Path_595" data-name="Path 595" d="M50.07,29.744c-.924,0-2.113,0-2.509.792C46.108,33.177,42.675,34.1,39.9,34.1A9.843,9.843,0,0,1,30.13,23.934,9.924,9.924,0,0,1,39.9,13.765c2.509,0,5.678.528,7.659,3.433.528.792,1.585.66,2.641.66,1.321,0,1.056-1.585.528-2.509-2.773-4.226-7.4-5.15-10.7-5.15a13.734,13.734,0,1,0,0,27.467c4.886,0,9.112-2.113,10.96-5.546C51.126,31.2,51.522,29.744,50.07,29.744Zm52.954-18.752c-.924,0-1.849.4-1.849,1.453V35.422c0,.924.792,1.321,1.849,1.321.924,0,1.849-.264,1.849-1.321V12.445a1.643,1.643,0,0,0-1.849-1.453Z" transform="translate(7.902 2.477)" fill="#0087cd"/>
    <circle id="Ellipse_104" data-name="Ellipse 104" cx="2.641" cy="2.641" r="2.641" transform="translate(108.284 3.037)" fill="#0087cd"/>
    <path id="Path_596" data-name="Path 596" d="M145.791.6c-.924,0-.924.4-.924,1.321V17.767c-1.981-3.3-5.942-4.49-9.376-4.49a13.734,13.734,0,1,0,0,27.467c2.905,0,7.527-1.453,9.376-4.754v2.245c0,.924-.132,1.321.924,1.321s2.641-1.321,2.641-4.358V4.3c0-2.773-1.585-3.7-2.641-3.7Zm-.924,27.071c0,7.131-6.471,9.508-9.376,9.508a9.843,9.843,0,0,1-9.772-10.168,9.843,9.843,0,0,1,9.772-10.168c3.3,0,9.376,1.981,9.376,9.244v1.585ZM99.837,14.2c-.132,0-1.849,0-2.245,1.321-.528,1.188-3.037,9.112-5.942,17.431a1.877,1.877,0,0,0-.264.792L85.311,18.823a2.657,2.657,0,0,0-1.188-1.453,2.245,2.245,0,0,0-2.113,0,2.657,2.657,0,0,0-1.188,1.453L74.746,33.746a1.877,1.877,0,0,1-.264-.792c-3.037-8.319-5.546-16.243-5.942-17.431A2.524,2.524,0,0,0,66.295,14.2q-1.387,0-1.188.792v.4c.132.528,3.83,13.073,7.923,22.977.264.66.66,1.585,1.849,1.585A1.783,1.783,0,0,0,76.463,38.9l6.471-16.111c.132-.132.264-.264.4-.264s.264.132.4.264L90.2,38.9a1.783,1.783,0,0,0,1.585,1.056c1.188,0,1.585-.924,1.849-1.585,3.962-9.772,7.791-22.449,7.923-22.977v-.4a2.129,2.129,0,0,0-1.717-.792ZM14.4,13.277A14.038,14.038,0,0,0,.4,27.011a13.951,13.951,0,0,0,14,13.734c4.886,0,9.376-2.113,11.225-5.546.528-.924.792-2.377-.66-2.377-.924,0-2.113,0-2.509.792C21,36.255,17.171,37.179,14.4,37.179a10.078,10.078,0,0,1-9.9-8.451H26.679A1.779,1.779,0,0,0,28.4,26.879c0-7.659-6.6-13.6-14-13.6Zm-9.9,11.885a10.134,10.134,0,0,1,19.94,0Z" transform="translate(-0.4 -0.6)" fill="#0087cd"/>
  </g>
</svg>
