<svg xmlns="http://www.w3.org/2000/svg" xmlns:xlink="http://www.w3.org/1999/xlink" width="522.888" height="487.247" viewBox="0 0 522.888 487.247">
  <defs>
    <linearGradient id="linear-gradient" y1="0.5" x2="1" y2="0.5" gradientUnits="objectBoundingBox">
      <stop offset="0" stop-color="#94beff"/>
      <stop offset="0.061" stop-color="#8cb9fd"/>
      <stop offset="0.487" stop-color="#5d99f3"/>
      <stop offset="0.814" stop-color="#3f85ed"/>
      <stop offset="1" stop-color="#357eeb"/>
    </linearGradient>
    <linearGradient id="linear-gradient-2" y1="0.5" x2="1" y2="0.5" gradientUnits="objectBoundingBox">
      <stop offset="0" stop-color="#3febd4"/>
      <stop offset="0.237" stop-color="#63f0dd"/>
      <stop offset="0.583" stop-color="#92f8ea"/>
      <stop offset="0.849" stop-color="#b0fdf2"/>
      <stop offset="1" stop-color="#bbfff5"/>
    </linearGradient>
    <linearGradient id="linear-gradient-4" x1="3.037" y1="1.791" x2="0.418" y2="0.417" xlink:href="#linear-gradient-2"/>
  </defs>
  <g id="Group_494" data-name="Group 494" transform="translate(-927.269 -323)">
    <g id="Group_493" data-name="Group 493" transform="translate(927.269 323)">
      <circle id="Ellipse_107" data-name="Ellipse 107" cx="243.624" cy="243.624" r="243.624" transform="translate(17.647)" fill="#f3f8ff"/>
      <circle id="Ellipse_108" data-name="Ellipse 108" cx="121" cy="121" r="121" transform="translate(140.271 116.939)" fill="#deecff"/>
      <g id="Group_488" data-name="Group 488" transform="translate(0 96.934)">
        <g id="Group_484" data-name="Group 484" transform="translate(0 76.34)">
          <g id="Group_482" data-name="Group 482" transform="translate(93.485 0)">
            <g id="Group_481" data-name="Group 481" transform="translate(0 5.442)">
              <path id="Path_607" data-name="Path 607" d="M1193.627,700.052l-40.291,14.157c-36.751,12.915-76.988-1.2-97.487-32.413a80.825,80.825,0,0,1-8.476-16.905,82.574,82.574,0,0,1,50.238-106.136l41.284-14.506a20.687,20.687,0,0,1,26.373,12.658l41.017,116.782A20.669,20.669,0,0,1,1193.627,700.052Z" transform="translate(-1042.387 -543.073)" fill="url(#linear-gradient)"/>
            </g>
            <path id="Path_608" data-name="Path 608" d="M1075.908,679.9a23.456,23.456,0,0,1-20.058,23.2,80.822,80.822,0,0,1-8.476-16.905,82.424,82.424,0,0,1-4.982-27.458,23.434,23.434,0,0,1,33.516,21.161Z" transform="translate(-1042.388 -558.939)" fill="#003a8f" opacity="0.2"/>
            <rect id="Rectangle_291" data-name="Rectangle 291" width="40.279" height="165.143" rx="20.139" transform="translate(78.104 13.349) rotate(-19.355)" fill="#003a8f" opacity="0.2"/>
            <ellipse id="Ellipse_109" data-name="Ellipse 109" cx="10.098" cy="14.098" rx="10.098" ry="14.098" transform="translate(99.654 42.285) rotate(-19)" fill="#144a9d"/>
            <ellipse id="Ellipse_195" data-name="Ellipse 195" cx="10.098" cy="14.098" rx="10.098" ry="14.098" transform="translate(120.654 101.285) rotate(-19)" fill="#144a9d"/>
          </g>
          <g id="Group_483" data-name="Group 483" transform="translate(0 110.669)">
            <path id="Path_609" data-name="Path 609" d="M938.769,785q-.289,0-.579-.015a11.49,11.49,0,0,1-10.906-12.046,99.761,99.761,0,0,1,20.11-55.313,101.417,101.417,0,0,1,47.518-34.713l27.364-9.612a11.491,11.491,0,1,1,7.616,21.683l-27.364,9.612a77.667,77.667,0,0,0-52.292,69.483A11.492,11.492,0,0,1,938.769,785Z" transform="translate(-927.269 -672.65)" fill="#9abef5"/>
          </g>
        </g>
        <g id="Group_487" data-name="Group 487" transform="translate(248.53)">
          <g id="Group_485" data-name="Group 485" transform="translate(0 38.192)">
            <path id="Path_610" data-name="Path 610" d="M1413.384,600.421a75.1,75.1,0,0,1-44.767,36.384l-56.379,16.813-9.587-32.155-39.206,11.683a8.728,8.728,0,1,1-4.982-16.73l39.2-11.693-13.917-46.689-39.206,11.693a8.733,8.733,0,1,1-4.982-16.739l39.2-11.693-9.587-32.146,55.458-16.537a76.567,76.567,0,0,1,81.731,25.481,73.994,73.994,0,0,1,12.723,24.14,75.25,75.25,0,0,1-5.69,58.189Z" transform="translate(-1233.311 -489.396)" fill="url(#linear-gradient-2)"/>
          </g>
          <path id="Path_611" data-name="Path 611" d="M1457.519,567.1a23.437,23.437,0,1,1-16-42.369,74,74,0,0,1,12.723,24.14A75.53,75.53,0,0,1,1457.519,567.1Z" transform="translate(-1268.474 -457.844)" fill="#57e0ce"/>
          <g id="Group_486" data-name="Group 486" transform="translate(167.826)">
            <path id="Path_612" data-name="Path 612" d="M1451.461,543.009a11.493,11.493,0,0,1-3.278-22.506l25.373-7.564a69.907,69.907,0,0,0,50.021-60.2,11.491,11.491,0,0,1,22.872,2.243,92.8,92.8,0,0,1-66.327,79.984l-25.373,7.564A11.5,11.5,0,0,1,1451.461,543.009Z" transform="translate(-1439.973 -442.366)" fill="#94f2e5"/>
          </g>
        </g>
      </g>
      <g id="Group_489" data-name="Group 489" transform="translate(50.13 86.892)">
        <circle id="Ellipse_111" data-name="Ellipse 111" cx="21.52" cy="21.52" r="21.52" fill="url(#linear-gradient-2)"/>
        <path id="Path_613" data-name="Path 613" d="M1029.135,455.22c-.4,7.719-7.293,14.8-15,15.389a16.277,16.277,0,0,1-9.277-2.042c-4.817-2.715-4.2-9.989,1.133-11.468a5.883,5.883,0,0,1,1.579-.22c8.268,0,16.536-2.756,16.536-9.646,0-1.085.377-1.652,1.012-1.837a1.676,1.676,0,0,1,1.876.833A16.267,16.267,0,0,1,1029.135,455.22Z" transform="translate(-991.366 -432.882)" fill="url(#linear-gradient-4)"/>
      </g>
      <g id="Group_490" data-name="Group 490" transform="translate(493.525 328.892)">
        <circle id="Ellipse_112" data-name="Ellipse 112" cx="8.527" cy="8.527" r="8.527" fill="url(#linear-gradient)"/>
        <path id="Path_614" data-name="Path 614" d="M1550.9,737.993a6.734,6.734,0,0,1-5.944,6.1,6.453,6.453,0,0,1-3.676-.809,2.476,2.476,0,0,1,.449-4.544,2.332,2.332,0,0,1,.625-.088c3.276,0,6.552-1.092,6.552-3.822,0-.43.149-.655.4-.728a.664.664,0,0,1,.744.33A6.446,6.446,0,0,1,1550.9,737.993Z" transform="translate(-1535.938 -729.142)" fill="#003a8f" opacity="0.2"/>
      </g>
      <g id="Group_491" data-name="Group 491" transform="translate(374.962 83.644)">
        <circle id="Ellipse_113" data-name="Ellipse 113" cx="12.587" cy="12.587" r="12.587" fill="#deecff"/>
        <path id="Path_615" data-name="Path 615" d="M1394.161,435.654a8.062,8.062,0,0,1,7.117-7.3,7.722,7.722,0,0,1,4.4.968,2.965,2.965,0,0,1-.537,5.442,2.8,2.8,0,0,1-.75.1c-3.923,0-7.845,1.307-7.845,4.577,0,.515-.18.784-.48.871a.8.8,0,0,1-.891-.4A7.717,7.717,0,0,1,1394.161,435.654Z" transform="translate(-1389.968 -426.438)" fill="#fff"/>
      </g>
      <g id="Group_492" data-name="Group 492" transform="translate(210.922 376.805)">
        <circle id="Ellipse_114" data-name="Ellipse 114" cx="12.587" cy="12.587" r="12.587" fill="#deecff"/>
        <path id="Path_616" data-name="Path 616" d="M1192.161,796.654a8.063,8.063,0,0,1,7.117-7.3,7.721,7.721,0,0,1,4.4.968,2.965,2.965,0,0,1-.537,5.442,2.8,2.8,0,0,1-.75.1c-3.923,0-7.845,1.307-7.845,4.577,0,.515-.18.784-.48.871a.8.8,0,0,1-.891-.4A7.716,7.716,0,0,1,1192.161,796.654Z" transform="translate(-1187.968 -787.438)" fill="#fff"/>
      </g>
    </g>
    <path id="Path_617" data-name="Path 617" d="M1034.043,606.228s7.274-30.859,32.448-42.228" transform="translate(-20.065 -45.289)" fill="none" stroke="#deecff" stroke-linecap="round" stroke-width="7"/>
    <path id="Path_618" data-name="Path 618" d="M1423.5,666.8s22.531-14.05,31.671-33.3" transform="translate(-91.252 -55.35)" fill="none" stroke="#deecff" stroke-linecap="round" stroke-width="7"/>
    <path id="Path_619" data-name="Path 619" d="M1461.126,527.214s13.805-1.624,22.23-8.714" transform="translate(-92.323 -39.739)" fill="none" stroke="#deecff" stroke-linecap="round" stroke-width="3"/>
    <path id="Path_620" data-name="Path 620" d="M1501.5,555.742s21.114-6.5,24.363-16.242" transform="translate(-146.365 135.171) rotate(-7)" fill="none" stroke="#deecff" stroke-linecap="round" stroke-width="3"/>
  </g>
</svg>
