<svg xmlns="http://www.w3.org/2000/svg" width="80" height="80" viewBox="0 0 80 80">
  <g id="Group_1443" data-name="Group 1443" transform="translate(-580 -956)">
    <rect id="Rectangle_309" data-name="Rectangle 309" width="80" height="80" transform="translate(580 956)" fill="#fffaee"/>
    <g id="Group_850" data-name="Group 850" transform="translate(597 971)">
      <g id="Group_837" data-name="Group 837" transform="translate(4.509 0)">
        <path id="Path_930" data-name="Path 930" d="M257.984,301.465A22.479,22.479,0,0,1,269.1,293.6a23.438,23.438,0,0,1,3.429-.811,33.79,33.79,0,0,1,3.534-.3,25.875,25.875,0,0,1,7.069,1.029,25.426,25.426,0,0,1,6.505,3.129,25.724,25.724,0,0,1,5.337,4.956,24.85,24.85,0,0,1,5.277,13.584,25.846,25.846,0,0,1-.595,7.413,25.5,25.5,0,0,1-2.776,6.938,25.088,25.088,0,0,1-10.975,9.979,24.045,24.045,0,0,1-7.211,2.122c-.625.069-1.248.152-1.873.2-.628.022-1.254.06-1.883.038a24,24,0,0,1-3.751-.333,24.509,24.509,0,0,1-13.165-6.718l3.15-3.368A21.171,21.171,0,0,0,272,336.49a19.736,19.736,0,0,0,2.994.229c.5.016,1-.025,1.5-.045.5-.048,1-.125,1.493-.183a19.691,19.691,0,0,0,5.737-1.677,20.681,20.681,0,0,0,8.9-7.849,20.338,20.338,0,0,0,3.12-11.547,13.072,13.072,0,0,0-.1-1.525,10.067,10.067,0,0,0-.2-1.519l-.3-1.506L294.7,309.4a21.306,21.306,0,0,0-2.774-5.5,22.12,22.12,0,0,0-4.275-4.526,21.558,21.558,0,0,0-11.667-4.579c-1.069-.023-2.152-.119-3.232-.035a22.921,22.921,0,0,0-14.77,6.7Z" transform="translate(-257.984 -292.489)" fill="#f35520"/>
      </g>
      <g id="Group_838" data-name="Group 838" transform="translate(0 0.589)" opacity="0.2">
        <circle id="Ellipse_182" data-name="Ellipse 182" cx="22.073" cy="22.073" r="22.073" fill="#f35520"/>
      </g>
      <g id="Group_839" data-name="Group 839" transform="translate(9.365 15.095)">
        <path id="Path_931" data-name="Path 931" d="M275.905,346.426l-6.257-8.768a2.267,2.267,0,1,1,3.69-2.633l3.4,4.762,13.977-11.812a2.266,2.266,0,1,1,2.925,3.462Z" transform="translate(-269.227 -327.44)" fill="#f35520"/>
      </g>
    </g>
  </g>
</svg>
