<svg xmlns="http://www.w3.org/2000/svg" xmlns:xlink="http://www.w3.org/1999/xlink" width="350.369" height="265.201" viewBox="0 0 350.369 265.201">
  <defs>
    <linearGradient id="linear-gradient" y1="0.5" x2="1" y2="0.5" gradientUnits="objectBoundingBox">
      <stop offset="0" stop-color="#94beff"/>
      <stop offset="0.061" stop-color="#8cb9fd"/>
      <stop offset="0.487" stop-color="#5d99f3"/>
      <stop offset="0.814" stop-color="#3f85ed"/>
      <stop offset="1" stop-color="#357eeb"/>
    </linearGradient>
    <linearGradient id="linear-gradient-2" y1="0.5" x2="1" y2="0.5" gradientUnits="objectBoundingBox">
      <stop offset="0" stop-color="#3febd4"/>
      <stop offset="0.052" stop-color="#3febd4" stop-opacity="0.953"/>
      <stop offset="0.385" stop-color="#3febd4" stop-opacity="0.675"/>
      <stop offset="0.666" stop-color="#3febd4" stop-opacity="0.471"/>
      <stop offset="0.879" stop-color="#3febd4" stop-opacity="0.345"/>
      <stop offset="1" stop-color="#3febd4" stop-opacity="0.302"/>
    </linearGradient>
    <linearGradient id="linear-gradient-3" x1="1.338" y1="1.53" x2="-0.136" y2="-0.199" gradientUnits="objectBoundingBox">
      <stop offset="0" stop-color="#fff"/>
      <stop offset="0.052" stop-color="#fefefe" stop-opacity="0.933"/>
      <stop offset="0.323" stop-color="#fcfdfd" stop-opacity="0.608"/>
      <stop offset="0.562" stop-color="#fbfbfc" stop-opacity="0.345"/>
      <stop offset="0.762" stop-color="#f9fafb" stop-opacity="0.157"/>
      <stop offset="0.914" stop-color="#f9fafb" stop-opacity="0.043"/>
      <stop offset="1" stop-color="#f9fafb" stop-opacity="0"/>
    </linearGradient>
    <clipPath id="clip-path">
      <path id="SVGID" d="M858.485,865.379V989.17a36.818,36.818,0,0,1-36.711,36.711l-211.051,22.668A36.828,36.828,0,0,1,574,1011.838V842.711A36.728,36.728,0,0,1,610.722,806l211.051,22.668a36.854,36.854,0,0,1,35.215,26.352A36.394,36.394,0,0,1,858.485,865.379Z" transform="translate(-574 -806)" fill="none"/>
    </clipPath>
    <linearGradient id="linear-gradient-6" x1="0.5" y1="0.141" x2="0.5" y2="1.731" xlink:href="#linear-gradient-3"/>
    <linearGradient id="linear-gradient-7" y1="0.5" x2="1" y2="0.5" gradientUnits="objectBoundingBox">
      <stop offset="0" stop-color="#ff5c5c"/>
      <stop offset="0.321" stop-color="#ff7575"/>
      <stop offset="0.753" stop-color="#ff9393"/>
      <stop offset="1" stop-color="#ff9e9e"/>
    </linearGradient>
  </defs>
  <g id="Group_1439" data-name="Group 1439" transform="translate(-555.547 -806.066)">
    <g id="Group_1437" data-name="Group 1437" transform="translate(555.547 806.566)">
      <path id="Path_994" data-name="Path 994" d="M854.2,828.463v51a15.169,15.169,0,0,1-15.124,15.124l-86.949,9.338A15.172,15.172,0,0,1,737,888.8V819.124A15.131,15.131,0,0,1,752.129,804l86.949,9.339A15.184,15.184,0,0,1,853.585,824.2,15.013,15.013,0,0,1,854.2,828.463Z" transform="translate(-536.655 -799.201)" fill="url(#linear-gradient)"/>
      <path id="Path_995" data-name="Path 995" d="M723.6,949.854v76.175a22.656,22.656,0,0,1-22.59,22.59l-129.871,13.949a22.662,22.662,0,0,1-22.6-22.59V935.9a22.6,22.6,0,0,1,22.6-22.59l129.871,13.949a22.678,22.678,0,0,1,21.67,16.216A22.4,22.4,0,0,1,723.6,949.854Z" transform="translate(-548.547 -797.866)" fill="url(#linear-gradient-2)"/>
      <path id="Path_996" data-name="Path 996" d="M858.485,865.379V989.17a36.818,36.818,0,0,1-36.711,36.711l-211.051,22.668A36.828,36.828,0,0,1,574,1011.838V842.711A36.728,36.728,0,0,1,610.722,806l211.051,22.668a36.854,36.854,0,0,1,35.215,26.352A36.394,36.394,0,0,1,858.485,865.379Z" transform="translate(-551.334 -806)" stroke="#fff" stroke-width="1" fill="url(#linear-gradient-3)"/>
      <g id="Group_1434" data-name="Group 1434" transform="translate(22.666 0)">
        <g id="Group_1431" data-name="Group 1431">
          <g id="Group_1430" data-name="Group 1430" clip-path="url(#clip-path)">
            <path id="Path_997" data-name="Path 997" d="M863.2,851.055V957.491a31.657,31.657,0,0,1-31.565,31.565l-181.465,19.49a31.666,31.666,0,0,1-31.574-31.564V831.564A31.581,31.581,0,0,1,650.167,800l181.465,19.49a31.688,31.688,0,0,1,30.278,22.658A31.268,31.268,0,0,1,863.2,851.055Z" transform="translate(-568.051 -806.8)" fill="url(#linear-gradient)"/>
          </g>
        </g>
        <g id="Group_1433" data-name="Group 1433">
          <g id="Group_1432" data-name="Group 1432" clip-path="url(#clip-path)">
            <path id="Path_998" data-name="Path 998" d="M786.845,905.113V1007.5a30.453,30.453,0,0,1-30.364,30.364L581.92,1056.613a30.46,30.46,0,0,1-30.373-30.364V886.364A30.378,30.378,0,0,1,581.92,856l174.561,18.749a30.481,30.481,0,0,1,29.125,21.8A30.083,30.083,0,0,1,786.845,905.113Z" transform="translate(-576.995 -799.33)" fill="url(#linear-gradient-2)"/>
          </g>
        </g>
      </g>
      <g id="Group_1435" data-name="Group 1435" transform="translate(43.896 41.798)" opacity="0.5">
        <path id="Path_999" data-name="Path 999" d="M749.244,943.255,597.108,858.813a8.5,8.5,0,0,1,8.25-14.866L749.1,923.728l70.658-57.05a8.5,8.5,0,0,1,8.475,14.739Z" transform="translate(-592.731 -842.878)" fill="#fff"/>
      </g>
      <path id="Path_1000" data-name="Path 1000" d="M856.778,855.02,754.091,930.482,575.58,831.4A36.879,36.879,0,0,1,610.512,806l211.051,22.668A36.855,36.855,0,0,1,856.778,855.02Z" transform="translate(-551.123 -806)" stroke="#fff" stroke-width="1" fill="url(#linear-gradient-6)"/>
      <g id="Group_1436" data-name="Group 1436" transform="translate(45.029 33.864)">
        <path id="Path_1001" data-name="Path 1001" d="M750.244,936.255,598.108,851.813a8.5,8.5,0,0,1,8.25-14.866L750.1,916.728l70.658-57.05a8.5,8.5,0,0,1,8.474,14.739Z" transform="translate(-593.731 -835.878)" stroke="#fff" stroke-width="1" fill="url(#linear-gradient-7)"/>
      </g>
    </g>
    <g id="Group_1438" data-name="Group 1438" transform="translate(779.942 940.875)">
      <path id="Path_1002" data-name="Path 1002" d="M793.719,955.259l-111.081,7.332a7.7,7.7,0,0,1-6.982-8.294l.418-7.9a7.7,7.7,0,0,1,7.819-7.511l110.732-.746a7.7,7.7,0,0,1,6.982,8.294l-.069,1.317A7.7,7.7,0,0,1,793.719,955.259Z" transform="translate(-675.644 -938.137)" fill="#fff" opacity="0.6"/>
      <path id="Path_1003" data-name="Path 1003" d="M752.929,990.2l-68.61,7.666a4.613,4.613,0,0,1-4.6-4.6v-4.6a4.613,4.613,0,0,1,4.6-4.6l68.61-3.833a4.613,4.613,0,0,1,4.6,4.6v.767A4.613,4.613,0,0,1,752.929,990.2Z" transform="translate(-676.818 -950.264)" fill="#fff" opacity="0.3"/>
    </g>
  </g>
</svg>
