<svg xmlns="http://www.w3.org/2000/svg" xmlns:xlink="http://www.w3.org/1999/xlink" width="80" height="80" viewBox="0 0 80 80">
  <defs>
    <clipPath id="clip-path">
      <path id="SVGID" d="M108,77.693l22.866,8.821s-1.74,34.425-22.866,34.425Z" transform="translate(-108 -77.693)" fill="#5d77fd"/>
    </clipPath>
  </defs>
  <g id="Group_873" data-name="Group 873" transform="translate(-160 -1580)">
    <rect id="Rectangle_309" data-name="Rectangle 309" width="80" height="80" transform="translate(160 1580)" fill="#f0f3ff"/>
    <g id="Group_818" data-name="Group 818" transform="translate(177 1598)">
      <path id="Path_916" data-name="Path 916" d="M108,78l22.866,8.821s-1.74,34.425-22.866,34.425Z" transform="translate(-85.134 -77.879)" fill="#5d77fd" opacity="0.2"/>
      <path id="Path_917" data-name="Path 917" d="M73.866,77.693,51,86.514s1.74,34.425,22.866,34.425Z" transform="translate(-51 -77.693)" fill="#5d77fd"/>
      <g id="Group_817" data-name="Group 817" transform="translate(22.866 0)">
        <g id="Group_816" data-name="Group 816" clip-path="url(#clip-path)">
          <g id="Group_815" data-name="Group 815" transform="translate(-3.619 -1.481)">
            <g id="Group_806" data-name="Group 806">
              <path id="Path_918" data-name="Path 918" d="M126.6,86.316,98.978,75.354V74L126.6,84.962Z" transform="translate(-98.978 -74)" fill="#5d77fd"/>
            </g>
            <g id="Group_807" data-name="Group 807" transform="translate(0 5.28)">
              <path id="Path_919" data-name="Path 919" d="M126.6,99.478,98.978,88.516V87.162L126.6,98.124Z" transform="translate(-98.978 -87.162)" fill="#5d77fd"/>
            </g>
            <g id="Group_808" data-name="Group 808" transform="translate(0 10.56)">
              <path id="Path_920" data-name="Path 920" d="M126.6,112.641,98.978,101.679v-1.354L126.6,111.287Z" transform="translate(-98.978 -100.325)" fill="#5d77fd"/>
            </g>
            <g id="Group_809" data-name="Group 809" transform="translate(0 15.841)">
              <path id="Path_921" data-name="Path 921" d="M126.6,125.8,98.978,114.841v-1.354L126.6,124.449Z" transform="translate(-98.978 -113.487)" fill="#5d77fd"/>
            </g>
            <g id="Group_810" data-name="Group 810" transform="translate(0 21.121)">
              <path id="Path_922" data-name="Path 922" d="M126.6,138.965,98.978,128v-1.354L126.6,137.612Z" transform="translate(-98.978 -126.649)" fill="#5d77fd"/>
            </g>
            <g id="Group_811" data-name="Group 811" transform="translate(0 26.401)">
              <path id="Path_923" data-name="Path 923" d="M126.6,152.128,98.978,141.166v-1.354L126.6,150.774Z" transform="translate(-98.978 -139.812)" fill="#5d77fd"/>
            </g>
            <g id="Group_812" data-name="Group 812" transform="translate(0 31.681)">
              <path id="Path_924" data-name="Path 924" d="M126.6,165.29,98.978,154.328v-1.354L126.6,163.936Z" transform="translate(-98.978 -152.974)" fill="#5d77fd"/>
            </g>
            <g id="Group_813" data-name="Group 813" transform="translate(0 36.961)">
              <path id="Path_925" data-name="Path 925" d="M126.6,178.453,98.978,167.491v-1.354L126.6,177.1Z" transform="translate(-98.978 -166.137)" fill="#5d77fd"/>
            </g>
            <g id="Group_814" data-name="Group 814" transform="translate(0 42.241)">
              <path id="Path_926" data-name="Path 926" d="M126.6,192.016,98.978,180.653V179.3L126.6,190.261Z" transform="translate(-98.978 -179.299)" fill="#5d77fd"/>
            </g>
          </g>
        </g>
      </g>
    </g>
  </g>
</svg>
