<svg xmlns="http://www.w3.org/2000/svg" width="80" height="80" viewBox="0 0 80 80">
  <g id="Group_872" data-name="Group 872" transform="translate(-580 -1580)">
    <rect id="Rectangle_309" data-name="Rectangle 309" width="80" height="80" transform="translate(580 1580)" fill="#fffaee"/>
    <g id="Group_865" data-name="Group 865" transform="translate(-936.709 1431.5)">
      <g id="Group_863" data-name="Group 863" transform="translate(1536.164 171.5)">
        <path id="Path_951" data-name="Path 951" d="M1539.806,203.97a3.656,3.656,0,0,1-3.642-3.648V171.5h36.109v3.48a.823.823,0,1,1-1.645,0v-1.835h-32.819v27.178a2,2,0,0,0,3,1.728l38.87-22.469a.823.823,0,1,1,.824,1.425l-38.87,22.469A3.639,3.639,0,0,1,1539.806,203.97Z" transform="translate(-1536.164 -171.5)" fill="#facb4e"/>
      </g>
      <path id="Path_952" data-name="Path 952" d="M1576.671,206v17.251H1545" transform="translate(-3.991 -15.581)" fill="#facb4e"/>
      <path id="Path_953" data-name="Path 953" d="M1572.613,180.4v9.707l-27.83,16.132V180.4Z" transform="translate(-3.892 -4.02)" fill="#facb4e" opacity="0.2"/>
      <g id="Group_864" data-name="Group 864" transform="translate(1575.129 178.183)">
        <path id="Path_954" data-name="Path 954" d="M1607.22,183.687l8.72.346-4.767,7.309" transform="translate(-1607.22 -183.687)" fill="#facb4e"/>
      </g>
    </g>
  </g>
</svg>
