<svg xmlns="http://www.w3.org/2000/svg" xmlns:xlink="http://www.w3.org/1999/xlink" width="420.367" height="307.7" viewBox="0 0 420.367 307.7">
  <defs>
    <linearGradient id="linear-gradient" x1="0.5" y1="0.926" x2="0.5" y2="-0.431" gradientUnits="objectBoundingBox">
      <stop offset="0.051" stop-color="#2b3451"/>
      <stop offset="0.205" stop-color="#364267"/>
      <stop offset="0.566" stop-color="#4f6096"/>
      <stop offset="0.843" stop-color="#5f73b4"/>
      <stop offset="1" stop-color="#657abf"/>
    </linearGradient>
    <linearGradient id="linear-gradient-3" x1="-0.464" y1="1.142" x2="1.114" y2="0.097" xlink:href="#linear-gradient"/>
    <linearGradient id="linear-gradient-4" y1="2.997" y2="-1.401" xlink:href="#linear-gradient"/>
    <linearGradient id="linear-gradient-5" y1="2.922" y2="-1.343" xlink:href="#linear-gradient"/>
  </defs>
  <g id="Group_497" data-name="Group 497" transform="translate(-383 -204.89)">
    <rect id="Rectangle_292" data-name="Rectangle 292" width="420.367" height="197.425" rx="7.099" transform="translate(383 315.166)" fill="url(#linear-gradient)"/>
    <rect id="Rectangle_293" data-name="Rectangle 293" width="366.646" height="150.419" transform="translate(436.721 362.172)" fill="url(#linear-gradient)"/>
    <path id="Path_621" data-name="Path 621" d="M436.721,332.889l-47.688-41.728A3.638,3.638,0,0,0,383,293.9V483.308h53.049Z" transform="translate(0 29.282)" fill="url(#linear-gradient-3)"/>
    <g id="Group_495" data-name="Group 495" transform="translate(533.937 414.492)" opacity="0.38" style="mix-blend-mode: multiply;isolation: isolate">
      <path id="Path_622" data-name="Path 622" d="M513.272,420.089H495.386V361.637h18.8c10.732,0,15.908,12.71,15.908,31.965C530.094,408.977,526.211,420.089,513.272,420.089Zm-5.251-10.579h2.968c4.186,0,6.164-2.435,6.164-17.277,0-15.68-.837-20.7-6.316-20.7h-2.816Z" transform="translate(-495.386 -360.724)" fill="url(#linear-gradient-4)"/>
      <path id="Path_623" data-name="Path 623" d="M540.675,421.236c-12.559,0-17.125-5.556-17.125-30.215,0-20.321,3.653-30.064,17.125-30.064,13.09,0,17.125,8.144,17.125,30.064C557.8,413.473,554.907,421.236,540.675,421.236Zm-3.883-30.064c0,17.048.3,19.408,3.883,19.408,3.653,0,3.88-2.435,3.88-19.408,0-16.136.153-20.245-3.88-20.245C536.792,370.928,536.792,375.112,536.792,391.172Z" transform="translate(-485.725 -360.957)" fill="url(#linear-gradient-5)"/>
      <path id="Path_624" data-name="Path 624" d="M563.427,420.089h-10.58V361.637h11.264l11.265,27.779V361.637H585.5v58.452h-9.589l-12.482-30.9Z" transform="translate(-475.675 -360.724)" fill="url(#linear-gradient-4)"/>
      <path id="Path_625" data-name="Path 625" d="M591.293,361.637H604.23l12.407,58.452H602.862l-1.675-10.122h-8.6l-1.52,10.122H580.1Zm8.523,40.186-3.5-18.418-2.588,18.418Z" transform="translate(-466.326 -360.724)" fill="url(#linear-gradient-4)"/>
      <path id="Path_626" data-name="Path 626" d="M626.8,420.089h-12.94V372.368H603.508V361.637h33.641v10.731H626.8Z" transform="translate(-458.297 -360.724)" fill="url(#linear-gradient-4)"/>
      <path id="Path_627" data-name="Path 627" d="M662.175,408.9v11.189H631.5V361.637h29.15v11.036h-16.21v12.179H658.9v10.731h-14.46V408.9Z" transform="translate(-448.695 -360.724)" fill="url(#linear-gradient-4)"/>
    </g>
    <path id="Path_628" data-name="Path 628" d="M509.421,307.875l8.534,6.8a3.844,3.844,0,0,0,2.378.784H669.276c3,0,5.181-6.37,3.062-8.058l-10.846-4.612a3.844,3.844,0,0,0-2.415-.786l-148.565-4C507.533,298.027,507.315,306.2,509.421,307.875Z" transform="translate(42.888 31.939)" fill="#3f4f85"/>
    <path id="Path_629" data-name="Path 629" d="M509.318,302.853l8.534,6.8a3.844,3.844,0,0,0,2.378.784H669.173c3,0,4.5-2.886,2.378-4.574l-10.163-8.1a3.845,3.845,0,0,0-2.415-.786l-147.315,1.3C508.682,298.305,507.212,301.175,509.318,302.853Z" transform="translate(42.99 31.589)" fill="#2b3451"/>
    <g id="Group_496" data-name="Group 496" transform="translate(548.192 204.89)">
      <path id="Path_630" data-name="Path 630" d="M684.622,294.2a88.887,88.887,0,0,1-13.875,47.825H519.875A89.314,89.314,0,1,1,684.622,294.2Z" transform="translate(-506 -204.89)" fill="#fda60d" opacity="0.25"/>
      <path id="Path_631" data-name="Path 631" d="M664.383,290.083a72.871,72.871,0,0,1-17.794,47.825H535.8a73.187,73.187,0,1,1,128.585-47.825Z" transform="translate(-501.882 -200.772)" fill="#fda60d"/>
      <circle id="Ellipse_116" data-name="Ellipse 116" cx="40.934" cy="40.934" r="40.934" transform="translate(48.377 48.377)" fill="#d98e0c"/>
      <path id="Path_632" data-name="Path 632" d="M627.076,297.907a17.227,17.227,0,0,0-2.639-7.213,16.326,16.326,0,0,0-5.567-5.1,66.389,66.389,0,0,0-7.029-3.112c.277-.2.473-.38.657-.485a16.237,16.237,0,0,0,8.435-12.066c1.233-7.087-1.244-14.934-6.338-18.6a31.163,31.163,0,0,0-11.5-5.093c-2.949-.658-5.9-1.119-8.931-1.59-.023-5.313.058-12.631.035-18.508l-11.109.035c-.081,5.784-.058,12.906-.137,18.127l-8.92.035c-.011-5.232.058-12.342.035-18.139l-11.006.035c-.081,5.888-.058,13.2-.138,18.416-7.593-.07-14.9-.047-22.494-.116.011,4.079-.081,7.882-.07,11.87,1.625-.012,3.043-.012,4.368.081,1.429-.012,2.858-.012,4.183.081,2.294.161,3.93.979,4.863,2.4a6.679,6.679,0,0,1,1.037,3.849c-.137,15.856-.275,31.806-.322,47.663.012,1.809-.391,3.043-1.256,3.8a5.281,5.281,0,0,1-3.665,1.049c-2.466.011-4.944.023-7.409.023-.749,4.471-1.487,8.746-2.236,13.206,7.5.07,14.9.15,22.5.219.011,1.856,0,3.884-.012,5.97H573.57c.011-1.993.023-3.93.058-5.716,3.135.081,5.981.173,8.919.254.012,1.728,0,3.572-.011,5.462H593.7c.012-1.96.023-3.849.046-5.59.381-.1.669-.1.958-.2,5.312-.876,10.717-1.359,15.845-2.615,6.73-1.728,12.043-5.635,14.866-12.285A32.026,32.026,0,0,0,627.076,297.907Zm-53.207,17.724c.068-8.262.138-16.329.207-24.592,8.448-.023,16.8-.715,24.7,2.777,4.091,1.786,6.464,4.909,6.488,9.565-.082,4.656-2.548,7.606-6.627,9.415-6.154,2.777-12.619,2.8-19.165,2.916C577.661,315.712,575.862,315.62,573.869,315.631Zm26.343-46.7c-.265,4.369-2.73,7.5-7.191,8.943-6.061,2.017-12.423,1.937-18.98,1.671.069-7.213.149-14.428.219-22.126,6.926-.011,13.667-.61,19.948,2.224C598.393,261.435,600.489,264.845,600.213,268.935Z" transform="translate(-494.365 -197.602)" fill="#fff"/>
    </g>
  </g>
</svg>
