<svg xmlns="http://www.w3.org/2000/svg" xmlns:xlink="http://www.w3.org/1999/xlink" width="320" height="209" viewBox="0 0 320 209">
  <defs>
    <linearGradient id="linear-gradient" y1="0.5" x2="1" y2="0.5" gradientUnits="objectBoundingBox">
      <stop offset="0" stop-color="#3febd4"/>
      <stop offset="0.279" stop-color="#3febd4" stop-opacity="0.659"/>
      <stop offset="0.534" stop-color="#3febd4" stop-opacity="0.376"/>
      <stop offset="0.746" stop-color="#3febd4" stop-opacity="0.173"/>
      <stop offset="0.908" stop-color="#3febd4" stop-opacity="0.047"/>
      <stop offset="1" stop-color="#3febd4" stop-opacity="0"/>
    </linearGradient>
    <linearGradient id="linear-gradient-2" x1="0.881" y1="0.5" x2="0.205" y2="0.5" gradientUnits="objectBoundingBox">
      <stop offset="0" stop-color="#fda60d"/>
      <stop offset="0.046" stop-color="#fda60d" stop-opacity="0.941"/>
      <stop offset="0.319" stop-color="#fda60d" stop-opacity="0.612"/>
      <stop offset="0.56" stop-color="#fda60d" stop-opacity="0.349"/>
      <stop offset="0.76" stop-color="#fda60d" stop-opacity="0.161"/>
      <stop offset="0.913" stop-color="#fda60d" stop-opacity="0.043"/>
      <stop offset="1" stop-color="#fda60d" stop-opacity="0"/>
    </linearGradient>
    <clipPath id="clip-path">
      <rect id="SVGID" width="320" height="209" fill="none"/>
    </clipPath>
    <linearGradient id="linear-gradient-5" x1="1.922" y1="0.5" x2="0.19" y2="0.5" gradientUnits="objectBoundingBox">
      <stop offset="0" stop-color="#b1b8b8"/>
      <stop offset="0.132" stop-color="#bcc2c3" stop-opacity="0.835"/>
      <stop offset="0.437" stop-color="#d6dada" stop-opacity="0.478"/>
      <stop offset="0.693" stop-color="#e9ebec" stop-opacity="0.22"/>
      <stop offset="0.889" stop-color="#f4f6f6" stop-opacity="0.059"/>
      <stop offset="1" stop-color="#f9fafb" stop-opacity="0"/>
    </linearGradient>
    <linearGradient id="linear-gradient-6" x1="1.142" y1="-0.079" x2="0.137" y2="0.482" xlink:href="#linear-gradient-5"/>
  </defs>
  <g id="Group_878" data-name="Group 878" transform="translate(-138 -3242)">
    <g id="Group_532" data-name="Group 532" transform="translate(176.306 3260.588)">
      <g id="Group_531" data-name="Group 531" transform="translate(164.554 0)">
        <ellipse id="Ellipse_119" data-name="Ellipse 119" cx="35.327" cy="12.127" rx="35.327" ry="12.127" transform="translate(17.339 86.942)" fill="#3e9ac1"/>
        <ellipse id="Ellipse_120" data-name="Ellipse 120" cx="35.327" cy="12.127" rx="35.327" ry="12.127" transform="translate(17.339 84.898)" fill="#4bbbeb"/>
        <circle id="Ellipse_121" data-name="Ellipse 121" cx="52.666" cy="52.666" r="52.666" transform="translate(0 2.697)" fill="url(#linear-gradient)"/>
        <circle id="Ellipse_122" data-name="Ellipse 122" cx="39.662" cy="39.662" r="39.662" transform="translate(13.004 15.701)" fill="#82fae9"/>
        <circle id="Ellipse_123" data-name="Ellipse 123" cx="36.993" cy="36.993" r="36.993" transform="translate(15.673 18.37)" fill="#3ed6c1"/>
        <circle id="Ellipse_124" data-name="Ellipse 124" cx="11.92" cy="11.92" r="11.92" transform="translate(40.746 43.443)" fill="#3ff2da"/>
        <g id="Group_528" data-name="Group 528" transform="translate(39.746 35.88)" opacity="0.2">
          <path id="Path_671" data-name="Path 671" d="M575.423,745.885l-11.968-16.044a2.3,2.3,0,0,1,3.687-2.75l9.072,12.161,20.344-16.876a2.3,2.3,0,0,1,2.936,3.54Z" transform="translate(-562.999 -721.846)" fill="#1d635a"/>
        </g>
        <g id="Group_529" data-name="Group 529" transform="translate(40.257 33.836)">
          <path id="Path_672" data-name="Path 672" d="M576.3,742.363l-11.968-16.044a2.3,2.3,0,0,1,3.687-2.75l9.072,12.161,20.343-16.876a2.3,2.3,0,1,1,2.937,3.54Z" transform="translate(-563.879 -718.324)" fill="#ffffc4"/>
        </g>
        <g id="Group_530" data-name="Group 530" transform="translate(43.842)">
          <rect id="Rectangle_318" data-name="Rectangle 318" width="15.605" height="6.502" rx="3.251" fill="#3e9ac1"/>
          <rect id="Rectangle_319" data-name="Rectangle 319" width="15.605" height="6.502" rx="3.251" transform="translate(2.044)" fill="#4bbbeb"/>
        </g>
        <rect id="Rectangle_320" data-name="Rectangle 320" width="3.577" height="9.71" transform="translate(50.877 6.104)" fill="#4bbbeb"/>
      </g>
      <path id="Rectangle_321" data-name="Rectangle 321" d="M0,0H65.917a5.864,5.864,0,0,1,5.864,5.864v0a5.864,5.864,0,0,1-5.864,5.864H0a0,0,0,0,1,0,0V0A0,0,0,0,1,0,0Z" transform="translate(86.384 23.627)" opacity="0.25" fill="url(#linear-gradient-2)"/>
      <path id="Rectangle_322" data-name="Rectangle 322" d="M0,0H143.856a5.864,5.864,0,0,1,5.864,5.864v0a5.864,5.864,0,0,1-5.864,5.864H0a0,0,0,0,1,0,0V0A0,0,0,0,1,0,0Z" transform="translate(0 49.43)" opacity="0.25" fill="url(#linear-gradient-2)"/>
      <path id="Rectangle_323" data-name="Rectangle 323" d="M0,0H108.61a5.864,5.864,0,0,1,5.864,5.864v0a5.864,5.864,0,0,1-5.864,5.864H0a0,0,0,0,1,0,0V0A0,0,0,0,1,0,0Z" transform="translate(46.505 72.419)" opacity="0.25" fill="url(#linear-gradient-2)"/>
    </g>
    <g id="Group_534" data-name="Group 534" transform="translate(138 3242)">
      <g id="Group_533" data-name="Group 533" clip-path="url(#clip-path)">
        <path id="Path_673" data-name="Path 673" d="M99.229,397l146.53,165.539C245.422,562.158,60.349,772,60.349,772" transform="translate(-109.48 -548.465)" fill="url(#linear-gradient-5)"/>
        <path id="Path_674" data-name="Path 674" d="M117.15,527.406l79.707,90.048C196.675,617.247,96,731.394,96,731.394" transform="translate(-124.44 -593.365)" fill="url(#linear-gradient-6)"/>
      </g>
    </g>
  </g>
</svg>
