<svg xmlns="http://www.w3.org/2000/svg" width="121.525" height="115.25" viewBox="0 0 121.525 115.25">
  <g id="Group_789" data-name="Group 789" transform="translate(12.268 10.428)">
    <rect id="Rectangle_416" data-name="Rectangle 416" width="91.525" height="85.25" rx="11.085" transform="translate(2.732 4.572)" fill="#dadff2" opacity="0.4"/>
    <rect id="Rectangle_417" data-name="Rectangle 417" width="91.525" height="85.25" rx="11.085" fill="#fff" stroke="#dadff2" stroke-width="1"/>
    <g id="Group_788" data-name="Group 788" transform="translate(14.355 13.912)">
      <g id="Group_787" data-name="Group 787" transform="translate(0 12.99)">
        <g id="Group_777" data-name="Group 777">
          <path id="Path_899" data-name="Path 899" d="M725.077,944.26a6.189,6.189,0,0,1-2.373-.479,6,6,0,0,1-3.759-5.63l.009-.192,2.4-27.711a6.1,6.1,0,0,1,6.093-5.988h45.807a6.1,6.1,0,0,1,6.094,5.988l2.411,27.9a6.094,6.094,0,0,1-10.306,4.4L759.292,932.8a1.673,1.673,0,0,0-1.173-.485H742.595a1.662,1.662,0,0,0-1.175.486l-.181.162-11.987,9.592A6,6,0,0,1,725.077,944.26Zm-1.7-6.029a1.659,1.659,0,0,0,2.83,1.092l.183-.163,11.989-9.593a6.057,6.057,0,0,1,4.211-1.687h15.524a6.139,6.139,0,0,1,4.212,1.689l12.165,9.752a1.658,1.658,0,0,0,2.829-1.093l-2.409-27.872a1.661,1.661,0,0,0-1.659-1.659H727.449a1.661,1.661,0,0,0-1.659,1.659l-.009.192Z" transform="translate(-718.945 -904.26)" fill="#4f90f1"/>
        </g>
        <g id="Group_786" data-name="Group 786" transform="translate(9.727 6.952)">
          <g id="Group_780" data-name="Group 780" transform="translate(31.028 1.237)">
            <g id="Group_778" data-name="Group 778" transform="translate(3.95)">
              <path id="Path_900" data-name="Path 900" d="M761.477,923.981a2.219,2.219,0,0,1-2.218-2.218v-7.9a2.218,2.218,0,0,1,4.436,0v7.9A2.218,2.218,0,0,1,761.477,923.981Z" transform="translate(-759.259 -911.645)" fill="#64f1de"/>
            </g>
            <g id="Group_779" data-name="Group 779" transform="translate(0 3.949)">
              <path id="Path_901" data-name="Path 901" d="M765.815,919.642h-7.9a2.218,2.218,0,0,1,0-4.436h7.9a2.218,2.218,0,0,1,0,4.436Z" transform="translate(-755.697 -915.206)" fill="#64f1de"/>
            </g>
          </g>
          <g id="Group_785" data-name="Group 785">
            <g id="Group_781" data-name="Group 781" transform="translate(4.419)">
              <path id="Path_902" data-name="Path 902" d="M734.485,916.1a2.783,2.783,0,1,1,1.975-.817l0,0A2.771,2.771,0,0,1,734.485,916.1Zm-1.17-3.948a1.654,1.654,0,0,0,0,2.327,1.7,1.7,0,0,0,2.336,0,1.649,1.649,0,0,0,0-2.333,1.706,1.706,0,0,0-2.332,0l1.568,1.568Z" transform="translate(-731.702 -910.529)" fill="#64f1de"/>
            </g>
            <g id="Group_782" data-name="Group 782" transform="translate(9.239 4.82)">
              <path id="Path_903" data-name="Path 903" d="M738.833,920.446a2.785,2.785,0,1,1,1.969-.815A2.775,2.775,0,0,1,738.833,920.446Zm0-4.435a1.651,1.651,0,0,0-1.167,2.817,1.707,1.707,0,0,0,2.333,0,1.65,1.65,0,0,0-1.167-2.817Z" transform="translate(-736.048 -914.876)" fill="#64f1de"/>
            </g>
            <g id="Group_783" data-name="Group 783" transform="translate(0 4.445)">
              <path id="Path_904" data-name="Path 904" d="M730.5,920.083a2.786,2.786,0,0,1-1.968-4.756,2.854,2.854,0,0,1,3.942,0,2.789,2.789,0,0,1,0,3.933h0A2.767,2.767,0,0,1,730.5,920.083Zm-1.17-3.949a1.651,1.651,0,0,0,0,2.329,1.712,1.712,0,0,0,2.334,0l-.766-.765.767.763,0,0a1.652,1.652,0,0,0,0-2.329,1.712,1.712,0,0,0-2.335,0h0l0,0Z" transform="translate(-727.716 -914.538)" fill="#64f1de"/>
            </g>
            <g id="Group_784" data-name="Group 784" transform="translate(4.82 9.237)">
              <path id="Path_905" data-name="Path 905" d="M734.849,924.432h0a2.787,2.787,0,0,1,0-5.573h0a2.764,2.764,0,0,1,1.969.817,2.794,2.794,0,0,1,0,3.937l0,0A2.769,2.769,0,0,1,734.849,924.432Zm-1.171-3.95a1.649,1.649,0,0,0,1.171,2.812h0a1.649,1.649,0,1,0,0-3.3h0a1.658,1.658,0,0,0-1.167.482l1.568,1.568Z" transform="translate(-732.063 -918.859)" fill="#64f1de"/>
            </g>
          </g>
        </g>
      </g>
      <path id="Path_906" data-name="Path 906" d="M746.652,907.754v-4.676a4.484,4.484,0,0,1,4.483-4.483h0a4.484,4.484,0,0,0,4.484-4.483v-1.565" transform="translate(-715.927 -892.546)" fill="none" stroke="#4f90f1" stroke-linecap="round" stroke-width="4"/>
    </g>
  </g>
</svg>
