<svg xmlns="http://www.w3.org/2000/svg" width="80" height="80" viewBox="0 0 80 80">
  <g id="Group_870" data-name="Group 870" transform="translate(-1000 -1383)">
    <rect id="Rectangle_309" data-name="Rectangle 309" width="80" height="80" transform="translate(1000 1383)" fill="#effbf9"/>
    <g id="Group_861" data-name="Group 861" transform="translate(631.075 -297.325)">
      <g id="Group_860" data-name="Group 860" transform="translate(388.925 1700.325)">
        <path id="Union_1" data-name="Union 1" d="M-4141.953-1363.282v-38.091H-4142l3.455-2.628,3.245,2.515,3.3-2.515,3.175,2.459,3.233-2.459,3.246,2.515,3.3-2.515,3.246,2.515,3.305-2.515,3.245,2.515,3.306-2.515,3.389,2.626h0v21.522l-16.576,16.571Z" transform="translate(4142 1404)" fill="#4abfaa" stroke="rgba(0,0,0,0)" stroke-width="1"/>
        <path id="Path_950" data-name="Path 950" d="M1377.574,162,1361,178.574V162Z" transform="translate(-1338.199 -138.13)" fill="#cdeee8"/>
      </g>
      <rect id="Rectangle_434" data-name="Rectangle 434" width="11" height="5" transform="translate(394.19 1708.684)" fill="#cdeee8"/>
      <rect id="Rectangle_435" data-name="Rectangle 435" width="29" height="2" transform="translate(394.19 1716.684)" fill="#cdeee8"/>
    </g>
  </g>
</svg>
