<svg xmlns="http://www.w3.org/2000/svg" xmlns:xlink="http://www.w3.org/1999/xlink" width="336.001" height="369.5" viewBox="0 0 336.001 369.5">
  <defs>
    <linearGradient id="linear-gradient" x1="0.5" y1="-0.419" x2="0.5" y2="0.699" gradientUnits="objectBoundingBox">
      <stop offset="0" stop-color="#fda60d"/>
      <stop offset="0.046" stop-color="#fda60d" stop-opacity="0.941"/>
      <stop offset="0.319" stop-color="#fda60d" stop-opacity="0.612"/>
      <stop offset="0.56" stop-color="#fda60d" stop-opacity="0.349"/>
      <stop offset="0.76" stop-color="#fda60d" stop-opacity="0.161"/>
      <stop offset="0.913" stop-color="#fda60d" stop-opacity="0.043"/>
      <stop offset="1" stop-color="#fda60d" stop-opacity="0"/>
    </linearGradient>
    <linearGradient id="linear-gradient-7" x1="0.5" y1="5.044" x2="0.5" y2="-0.443" gradientUnits="objectBoundingBox">
      <stop offset="0" stop-color="#3febd4"/>
      <stop offset="0.279" stop-color="#3febd4" stop-opacity="0.659"/>
      <stop offset="0.534" stop-color="#3febd4" stop-opacity="0.376"/>
      <stop offset="0.746" stop-color="#3febd4" stop-opacity="0.173"/>
      <stop offset="0.908" stop-color="#3febd4" stop-opacity="0.047"/>
      <stop offset="1" stop-color="#3febd4" stop-opacity="0"/>
    </linearGradient>
    <linearGradient id="linear-gradient-13" x1="0.688" y1="4.668" x2="0.688" y2="-0.819" xlink:href="#linear-gradient-7"/>
    <clipPath id="clip-path">
      <path id="Intersection_1" data-name="Intersection 1" d="M1158.5,902.5v-369h336v369Z" fill="none"/>
    </clipPath>
    <linearGradient id="linear-gradient-15" x1="-0.604" y1="1.718" x2="0.963" y2="-0.077" gradientUnits="objectBoundingBox">
      <stop offset="0" stop-color="#b1b8b8"/>
      <stop offset="0.169" stop-color="#bfc5c5" stop-opacity="0.8"/>
      <stop offset="0.552" stop-color="#dee1e2" stop-opacity="0.373"/>
      <stop offset="0.824" stop-color="#f1f3f4" stop-opacity="0.102"/>
      <stop offset="0.958" stop-color="#f9fafb" stop-opacity="0"/>
    </linearGradient>
  </defs>
  <g id="Group_879" data-name="Group 879" transform="translate(-479 -3243)">
    <g id="Group_542" data-name="Group 542" transform="translate(-679.5 2709.5)">
      <rect id="Rectangle_324" data-name="Rectangle 324" width="51" height="67.087" transform="translate(1188 835.913)" opacity="0.25" fill="url(#linear-gradient)"/>
      <rect id="Rectangle_325" data-name="Rectangle 325" width="57.564" height="84.188" transform="translate(1253 818.812)" opacity="0.25" fill="url(#linear-gradient)"/>
      <rect id="Rectangle_326" data-name="Rectangle 326" width="60.465" height="46.698" transform="translate(1266.171 856.302)" opacity="0.25" fill="url(#linear-gradient)"/>
      <rect id="Rectangle_327" data-name="Rectangle 327" width="53.427" height="98" transform="translate(1415.573 805)" opacity="0.25" fill="url(#linear-gradient)"/>
      <rect id="Rectangle_328" data-name="Rectangle 328" width="29.556" height="63.141" transform="translate(1335.778 839.859)" opacity="0.25" fill="url(#linear-gradient)"/>
      <rect id="Rectangle_329" data-name="Rectangle 329" width="37.252" height="79.584" transform="translate(1389.4 823.416)" opacity="0.25" fill="url(#linear-gradient)"/>
    </g>
    <g id="Group_553" data-name="Group 553" transform="translate(-688.805 2703.546)">
      <g id="Group_543" data-name="Group 543" transform="translate(1215.388 702.871)">
        <circle id="Ellipse_127" data-name="Ellipse 127" cx="32.151" cy="32.151" r="32.151" fill="url(#linear-gradient-7)"/>
        <path id="Path_682" data-name="Path 682" d="M1258.312,757.044a4.45,4.45,0,0,0-2.263-3.4,18.728,18.728,0,0,0-1.939-.859c.077-.053.13-.1.183-.132,3.268-1.685,2.964-6.737.576-8.459a8.608,8.608,0,0,0-3.172-1.4c-.813-.181-1.625-.31-2.464-.439,0-1.466.016-3.482.012-5.105l-3.064.01c-.021,1.6-.016,3.561-.037,5-.865,0-1.65,0-2.462.007,0-1.44.016-3.4.011-5l-3.038.009c-.02,1.623-.014,3.64-.036,5.08-2.095-.02-4.111-.013-6.206-.033,0,1.126-.02,2.174-.017,3.272.446,0,.839,0,1.2.023.393,0,.786,0,1.153.023a1.567,1.567,0,0,1,1.627,1.723c-.038,4.373-.077,8.772-.09,13.145,0,.969-.416,1.336-1.357,1.339l-2.043.007c-.206,1.232-.411,2.411-.617,3.641l6.206.06c.006,1.57-.014,3.561-.01,5.211l3.064-.01c.021-1.649.016-3.587.037-5.133l2.462.071c0,1.572-.016,3.482-.011,5.08l3.063-.009c.022-1.65.016-3.588.037-5.107.1-.026.183-.026.262-.053,1.466-.24,2.958-.376,4.371-.72a5.766,5.766,0,0,0,4.1-3.391A8.835,8.835,0,0,0,1258.312,757.044Zm-14.566-11.163c1.911-.006,3.769-.169,5.5.613a2.51,2.51,0,0,1,1.657,2.561,2.635,2.635,0,0,1-1.982,2.466,14.557,14.557,0,0,1-5.236.462C1243.705,749.992,1243.725,748,1243.745,745.881Zm6.723,15.273a13.028,13.028,0,0,1-5.287.8c-.5,0-.995-.024-1.545-.021.018-2.279.039-4.5.058-6.783,2.329-.007,4.634-.2,6.81.766a2.8,2.8,0,0,1-.037,5.237Z" transform="translate(-1213.878 -721.174)" fill="#5aeeda"/>
      </g>
      <g id="Group_546" data-name="Group 546" transform="translate(1215.388 796.071)">
        <circle id="Ellipse_128" data-name="Ellipse 128" cx="16.931" cy="16.931" r="16.931" fill="url(#linear-gradient-7)"/>
        <g id="Group_545" data-name="Group 545" transform="translate(9.189 8.355)">
          <path id="Path_683" data-name="Path 683" d="M1224.19,809.011l-7.145-3.125v9.978l7.161,3.132Z" transform="translate(-1217.046 -801.844)" fill="#5aeeda"/>
          <g id="Group_544" data-name="Group 544" transform="translate(8.323 3.475)">
            <path id="Path_684" data-name="Path 684" d="M1225.8,805.566h0Z" transform="translate(-1218.642 -805.565)" fill="#5aeeda"/>
            <path id="Path_685" data-name="Path 685" d="M1221.753,808.492v4.4l7.161,3.132v-9.991Z" transform="translate(-1221.753 -805.205)" fill="#5aeeda"/>
          </g>
          <path id="Path_686" data-name="Path 686" d="M1232.53,806.732l-8.323,2.856-7.162-3.132,8.323-2.856Z" transform="translate(-1217.046 -803.6)" fill="#5aeeda"/>
        </g>
      </g>
      <g id="Group_548" data-name="Group 548" transform="translate(1399.682 747.017)">
        <circle id="Ellipse_129" data-name="Ellipse 129" cx="20.156" cy="20.156" r="20.156" fill="url(#linear-gradient-7)"/>
        <g id="Group_547" data-name="Group 547" transform="translate(13.539 8.9)">
          <path id="Path_687" data-name="Path 687" d="M1400.283,763.842v-3h3.761v2.969h4.57c-.158,1.442.352,2.83-.738,4.166-2.145,2.635-4.13,5.412-6.186,8.136a1.07,1.07,0,0,0-.036.228h7.189v4.095h-4.763v2.917h-3.743v-2.863h-4.728c.089-1.477-.282-2.83.826-4.149,2.2-2.635,4.2-5.429,6.275-8.153a1.647,1.647,0,0,0,.1-.264h-6.606v-4.041C1397.542,763.842,1398.86,763.842,1400.283,763.842Z" transform="translate(-1395.609 -760.838)" fill="#5aeeda"/>
        </g>
      </g>
      <g id="Group_550" data-name="Group 550" transform="translate(1348.789 793.576)">
        <circle id="Ellipse_130" data-name="Ellipse 130" cx="17.273" cy="17.273" r="17.273" fill="url(#linear-gradient-7)"/>
        <g id="Group_549" data-name="Group 549" transform="translate(8.678 8.163)">
          <path id="Path_688" data-name="Path 688" d="M1348.684,792.415c-.057.469-.086.868-.143,1.252a6.417,6.417,0,0,0,.541,3.811c.811,1.636,1.579,3.286,2.347,4.935a14.582,14.582,0,0,1,1.124,3.144,2.133,2.133,0,0,1-.2,1.478,12.2,12.2,0,0,1-2.958,3.428,2,2,0,0,1-.4.171,2.082,2.082,0,0,1,.014-.426c.156-.626.356-1.252.5-1.892a3.738,3.738,0,0,0-.242-2.389c-.625-1.381-1.279-2.76-1.92-4.139a25.626,25.626,0,0,1-1.621-4,3.018,3.018,0,0,1,0-2.175,8.078,8.078,0,0,1,2.688-3.058C1348.456,792.5,1348.527,792.485,1348.684,792.415Z" transform="translate(-1340.442 -792.415)" fill="#5aeeda"/>
          <path id="Path_689" data-name="Path 689" d="M1343.388,794.2a2.456,2.456,0,0,1,0,.327,7.367,7.367,0,0,0-.057,2.432,5.261,5.261,0,0,0,.327,1.009c.641,1.381,1.309,2.731,1.921,4.111.341.783.6,1.607.867,2.433a1.441,1.441,0,0,1-.142,1.152,9.676,9.676,0,0,1-2.333,2.7,2.122,2.122,0,0,1-.3.171c-.027-.014-.042-.029-.07-.043a3.108,3.108,0,0,1,.056-.37c.129-.5.271-1,.384-1.493a2.953,2.953,0,0,0-.185-1.821c-.582-1.266-1.166-2.518-1.749-3.769a15.515,15.515,0,0,1-1.137-2.987,2.2,2.2,0,0,1,.27-1.693,7.112,7.112,0,0,1,1.849-2C1343.161,794.311,1343.261,794.268,1343.388,794.2Z" transform="translate(-1340.907 -792.235)" fill="#5aeeda"/>
          <path id="Path_690" data-name="Path 690" d="M1353.972,794.253c-.027.242-.056.5-.085.74a5.186,5.186,0,0,0,.043,2.148,12.474,12.474,0,0,0,.625,1.579c.668,1.48,1.38,2.945,2.02,4.423a7.373,7.373,0,0,1,.44,1.579,1.348,1.348,0,0,1-.128.811,8.627,8.627,0,0,1-2.418,2.845,3.281,3.281,0,0,1-.328.171c.029-.185.029-.3.057-.413.142-.6.3-1.18.427-1.778a2.527,2.527,0,0,0-.242-1.607c-.583-1.266-1.18-2.532-1.764-3.8a14.605,14.605,0,0,1-1.11-2.959,2.175,2.175,0,0,1,.3-1.678,6.833,6.833,0,0,1,1.82-1.963,2.123,2.123,0,0,1,.257-.142C1353.931,794.239,1353.945,794.253,1353.972,794.253Z" transform="translate(-1339.843 -792.234)" fill="#5aeeda"/>
        </g>
      </g>
      <g id="Group_551" data-name="Group 551" transform="translate(1302.727 668.546)">
        <circle id="Ellipse_131" data-name="Ellipse 131" cx="40.304" cy="40.304" r="40.304" fill="url(#linear-gradient-7)"/>
        <path id="Path_691" data-name="Path 691" d="M1353.809,737.815l-13.786,19.377V746.079Zm-29.482,0,13.786,19.377V746.079Zm27.637-3.7-11.941-19.859V728.7Zm-11.941,9.118,11.963-7.006-11.963-5.438Zm-13.853-9.118,11.942-5.415V714.253Zm11.942,9.119V730.786l-12,5.438Z" transform="translate(-1298.764 -695.418)" fill="#5aeeda"/>
      </g>
      <g id="Group_552" data-name="Group 552" transform="translate(1460.416 771.515)">
        <circle id="Ellipse_132" data-name="Ellipse 132" cx="12.85" cy="12.85" r="12.85" fill="url(#linear-gradient-7)"/>
        <path id="Path_692" data-name="Path 692" d="M1454.178,761.842h-5.588v-1.837c0-.065,0-.128-.008-.191.634-1.025,2.558-1.32,3.28-1.346l-.023-.7-.023-.7a6.967,6.967,0,0,0-3.826,1.307,2.542,2.542,0,0,0-4.486,1.64v3.425h9.265v1.836c0,.064,0,.127.008.19-.635,1.026-2.559,1.32-3.28,1.346l.024.7.022.7a6.96,6.96,0,0,0,3.827-1.307,2.542,2.542,0,0,0,4.486-1.639v-3.425Zm-9.265,0v-1.837a1.133,1.133,0,1,1,2.266,0v1.837Zm11.531,3.425a1.133,1.133,0,1,1-2.266,0V763.43h2.266Z" transform="translate(-1437.829 -749.786)" fill="#5aeeda"/>
      </g>
      <circle id="Ellipse_133" data-name="Ellipse 133" cx="11.706" cy="11.706" r="11.706" transform="translate(1302.25 772.659)" fill="url(#linear-gradient-13)"/>
      <circle id="Ellipse_134" data-name="Ellipse 134" cx="11.137" cy="11.137" r="11.137" transform="translate(1176.767 767.173)" fill="url(#linear-gradient-7)"/>
    </g>
    <g id="Group_555" data-name="Group 555" transform="translate(-679.5 2709.5)">
      <g id="Group_554" data-name="Group 554" clip-path="url(#clip-path)">
        <path id="Path_693" data-name="Path 693" d="M1456.8,519.544,1535.824,478l-15.092,87.992,63.93,62.316-88.349,12.838L1456.8,721.2l-39.511-80.057-88.349-12.838,63.93-62.316L1377.781,478Z" fill="url(#linear-gradient-15)"/>
      </g>
    </g>
  </g>
</svg>
