<svg xmlns="http://www.w3.org/2000/svg" width="80.533" height="70.495" viewBox="0 0 80.533 70.495">
  <g id="android-logomark" transform="translate(-32.9 -58.714)">
    <path id="Path_694" data-name="Path 694" d="M38.986,337.534a3.742,3.742,0,1,0,3.48,3.733,3.493,3.493,0,0,0-3.48-3.733m-.467-2.314a4.673,4.673,0,0,1,3.733,1.789v-1.555h2.566V347.1H42.835a.585.585,0,0,1-.583-.583v-.972a4.644,4.644,0,0,1-3.733,1.789,6.074,6.074,0,0,1,0-12.113m9.216.233H50.3v1.575a3.992,3.992,0,0,1,3.539-1.808c2.7,0,4.452,1.905,4.452,4.861V347.1H56.329a.585.585,0,0,1-.583-.583v-6.008c0-1.847-.933-2.955-2.43-2.955-1.692,0-3.014,1.322-3.014,3.811V347.1H48.338a.585.585,0,0,1-.583-.583Zm18.646,2.08a3.742,3.742,0,1,0,3.48,3.733,3.493,3.493,0,0,0-3.48-3.733m-.467-2.314a4.673,4.673,0,0,1,3.733,1.789v-7.388h2.566V347.1H70.25a.585.585,0,0,1-.583-.583v-.972a4.644,4.644,0,0,1-3.733,1.789,6.074,6.074,0,0,1-.019-12.113m9.216.233H77.7v2.08a3.3,3.3,0,0,1,3.072-2.2,4.29,4.29,0,0,1,.992.1v2.625a4.131,4.131,0,0,0-1.283-.214c-1.458,0-2.8,1.244-2.8,3.558v5.677H75.714a.585.585,0,0,1-.583-.583Zm13.532,9.488a3.678,3.678,0,1,0-3.519-3.675,3.5,3.5,0,0,0,3.519,3.675m0,2.392a6.017,6.017,0,1,1,4.322-1.741,6.057,6.057,0,0,1-4.322,1.741m8.186-11.88h2.566V347.1H97.451a.585.585,0,0,1-.583-.583Zm1.283-2.547a1.747,1.747,0,0,1-1.73-1.73,1.721,1.721,0,1,1,1.73,1.73m9.469,4.627a3.742,3.742,0,1,0,3.48,3.733,3.493,3.493,0,0,0-3.48-3.733m-.467-2.314a4.673,4.673,0,0,1,3.733,1.789v-7.388h2.566V347.1h-1.964a.585.585,0,0,1-.583-.583v-.972a4.644,4.644,0,0,1-3.733,1.789,6.074,6.074,0,0,1-.019-12.113" transform="translate(0 -218.125)"/>
    <path id="Path_695" data-name="Path 695" d="M92.9,72.416l6.708-11.608a1.394,1.394,0,1,0-2.411-1.4L90.413,71.152a42.012,42.012,0,0,0-34.453,0L49.174,59.408a1.394,1.394,0,1,0-2.411,1.4l6.708,11.607A39.46,39.46,0,0,0,32.9,104.069h80.494A39.6,39.6,0,0,0,92.9,72.416ZM54.637,92.6a3.344,3.344,0,1,1,3.344-3.344A3.344,3.344,0,0,1,54.637,92.6Zm37.058,0a3.344,3.344,0,1,1,3.344-3.344A3.344,3.344,0,0,1,91.7,92.6Z" transform="translate(0)" fill="#3ddc84"/>
  </g>
</svg>
