<svg xmlns="http://www.w3.org/2000/svg" width="554" height="340.469" viewBox="0 0 554 340.469">
  <g id="Group_707" data-name="Group 707" transform="translate(-536 -32.096)">
    <circle id="Ellipse_172" data-name="Ellipse 172" cx="97" cy="97" r="97" transform="translate(586 122)" fill="#fee8e5" opacity="0.3"/>
    <circle id="Ellipse_173" data-name="Ellipse 173" cx="126.5" cy="126.5" r="126.5" transform="translate(683 33)" fill="#eceffe" opacity="0.3"/>
    <path id="Path_774" data-name="Path 774" d="M683.413,316.15a66.327,66.327,0,0,0,99.96-22.348c2.75-5.431,3.981-13.5-1.394-16.358-4.1-2.18-9.622,1.089-10.68,5.611s1.518,9.313,5.287,12.025,8.5,3.7,13.124,4.158a70.775,70.775,0,0,0,42.746-9.47" fill="none" stroke="#6f7387" stroke-width="1"/>
    <g id="Group_654" data-name="Group 654">
      <rect id="Rectangle_375" data-name="Rectangle 375" width="185.581" height="84" rx="10.624" transform="translate(551 213)" fill="#fee8e5"/>
      <g id="Group_652" data-name="Group 652">
        <g id="Group_649" data-name="Group 649">
          <rect id="Rectangle_376" data-name="Rectangle 376" width="190" height="86" rx="10.877" transform="translate(542 204.994)" fill="#fe826c"/>
        </g>
      </g>
      <rect id="Rectangle_378" data-name="Rectangle 378" width="72.034" height="72.034" rx="7.081" transform="translate(551 212.977)" fill="#e0735f"/>
      <rect id="Rectangle_379" data-name="Rectangle 379" width="72.034" height="72.034" rx="7.081" transform="translate(654.966 212.977)" fill="#e0735f"/>
      <rect id="Rectangle_380" data-name="Rectangle 380" width="72.034" height="72.034" rx="7.081" transform="translate(549 210.977)" fill="#fff"/>
      <rect id="Rectangle_381" data-name="Rectangle 381" width="72.034" height="72.034" rx="7.081" transform="translate(652.966 210.977)" fill="#fff"/>
      <g id="Group_653" data-name="Group 653">
        <path id="Path_775" data-name="Path 775" d="M629.822,244.649H646l-4.8-4.8" fill="none" stroke="#fff" stroke-linecap="round" stroke-width="2"/>
        <path id="Path_776" data-name="Path 776" d="M645.721,249.877H629.543l4.8,4.8" fill="none" stroke="#fff" stroke-linecap="round" stroke-width="2"/>
      </g>
    </g>
    <g id="Group_660" data-name="Group 660">
      <rect id="Rectangle_382" data-name="Rectangle 382" width="270.794" height="122.57" rx="15.503" transform="translate(804.206 147.775)" fill="#eceffe"/>
      <g id="Group_658" data-name="Group 658">
        <g id="Group_655" data-name="Group 655">
          <rect id="Rectangle_383" data-name="Rectangle 383" width="278.794" height="126.191" rx="15.961" transform="translate(791 136.028)" fill="#6c7dfe"/>
        </g>
      </g>
      <rect id="Rectangle_385" data-name="Rectangle 385" width="105.698" height="105.698" rx="10.39" transform="translate(804.206 147.741)" fill="#5968d4"/>
      <rect id="Rectangle_386" data-name="Rectangle 386" width="105.698" height="105.698" rx="10.39" transform="translate(956.759 147.741)" fill="#5968d4"/>
      <rect id="Rectangle_387" data-name="Rectangle 387" width="105.698" height="105.698" rx="10.39" transform="translate(801.271 144.807)" fill="#fff"/>
      <rect id="Rectangle_388" data-name="Rectangle 388" width="105.698" height="105.698" rx="10.39" transform="translate(953.824 144.807)" fill="#fff"/>
      <g id="Group_659" data-name="Group 659">
        <path id="Path_777" data-name="Path 777" d="M919.864,194.215H943.6l-7.041-7.041" fill="none" stroke="#fff" stroke-linecap="round" stroke-width="2"/>
        <path id="Path_778" data-name="Path 778" d="M943.194,201.886H919.456l7.041,7.041" fill="none" stroke="#fff" stroke-linecap="round" stroke-width="2"/>
      </g>
    </g>
    <rect id="Rectangle_389" data-name="Rectangle 389" width="43.966" height="43.966" rx="4.322" transform="translate(608.861 328.098)" fill="#fff" stroke="#d3d8e8" stroke-width="1"/>
    <rect id="Rectangle_390" data-name="Rectangle 390" width="37.221" height="37.221" rx="2.687" transform="translate(891.556 297)" fill="#fff" stroke="#d3d8e8" stroke-width="1"/>
    <rect id="Rectangle_391" data-name="Rectangle 391" width="54.534" height="54.534" rx="5.361" transform="translate(843.966 32.596)" fill="#fff" stroke="#d3d8e8" stroke-width="1"/>
    <rect id="Rectangle_392" data-name="Rectangle 392" width="36.726" height="36.725" rx="2.707" transform="translate(602.5 122.33)" fill="#fff" stroke="#d3d8e8" stroke-width="1"/>
    <path id="Path_779" data-name="Path 779" d="M871.43,196.927l-20.436,28.725V209.178Zm-43.7,0,20.436,28.725V209.178Zm40.969-5.488L850.994,162v21.411Zm-17.7,13.516,17.735-10.386-17.735-8.061ZM830.46,191.439l17.7-8.028V162Zm17.7,13.518V186.508l-17.785,8.061Z" fill="#4d5ba9"/>
    <path id="Path_780" data-name="Path 780" d="M1025.82,204.173a7.622,7.622,0,0,0-2.959-6.336,32.25,32.25,0,0,0-3.066-1.952c.146-.069.248-.145.344-.176,5.968-2.016,6.753-10.652,3.15-14.181a14.76,14.76,0,0,0-5.013-3.194c-1.33-.515-2.672-.941-4.059-1.374.369-2.485.921-5.9,1.33-8.646l-5.192-.772c-.446,2.7-.941,6.028-1.348,8.463l-4.171-.62c.363-2.441.9-5.762,1.3-8.469l-5.148-.765c-.453,2.745-.961,6.161-1.368,8.6-3.543-.571-6.96-1.079-10.5-1.651-.283,1.908-.592,3.676-.869,5.54.755.112,1.42.211,2.035.348.666.1,1.331.2,1.946.334a2.686,2.686,0,0,1,2.316,3.338c-1.19,7.4-2.386,14.839-3.532,22.242-.244,1.642-1.046,2.158-2.644,1.92l-3.461-.514c-.665,2.033-1.316,3.977-1.981,6.01l10.5,1.7c-.4,2.662-.941,6.028-1.357,8.823l5.192.772c.46-2.789.947-6.073,1.381-8.684,1.458.262,2.782.5,4.151.753-.395,2.662-.921,5.895-1.323,8.6l5.191.771c.46-2.789.948-6.073,1.375-8.64.184-.018.317,0,.457-.023,2.544-.03,5.106.124,7.588-.1a9.887,9.887,0,0,0,7.818-4.689A15.137,15.137,0,0,0,1025.82,204.173Zm-21.8-22.652c3.239.482,6.429.684,9.16,2.45a4.3,4.3,0,0,1,2.149,4.764,4.518,4.518,0,0,1-3.992,3.67,24.957,24.957,0,0,1-8.987-.564C1002.891,188.475,1003.436,185.109,1004.015,181.521Zm7.464,27.6c-3.075.858-6.093.41-9.161,0-.843-.125-1.679-.294-2.611-.433.618-3.854,1.223-7.619,1.841-11.473,3.949.587,7.9.856,11.339,3.046a4.8,4.8,0,0,1-1.408,8.861Z" fill="#f99f3a"/>
    <g id="Group_701" data-name="Group 701">
      <g id="Group_671" data-name="Group 671">
        <g id="Group_661" data-name="Group 661">
          <path id="Path_781" data-name="Path 781" d="M690.111,258.754a1.29,1.29,0,1,1-1.29-1.29A1.29,1.29,0,0,1,690.111,258.754Z" fill="#00abe2"/>
        </g>
        <g id="Group_662" data-name="Group 662">
          <path id="Path_782" data-name="Path 782" d="M674.482,260.043a1.289,1.289,0,1,1-1.29-1.289A1.289,1.289,0,0,1,674.482,260.043Z" fill="#00abe2"/>
        </g>
        <g id="Group_663" data-name="Group 663">
          <path id="Path_783" data-name="Path 783" d="M679.918,257.464a1.29,1.29,0,1,1-1.29-1.29A1.291,1.291,0,0,1,679.918,257.464Z" fill="#00abe2"/>
        </g>
        <g id="Group_664" data-name="Group 664">
          <path id="Path_784" data-name="Path 784" d="M675.219,248.205a1.29,1.29,0,1,1-1.29-1.29A1.29,1.29,0,0,1,675.219,248.205Z" fill="#00abe2"/>
        </g>
        <g id="Group_665" data-name="Group 665">
          <path id="Path_785" data-name="Path 785" d="M684.155,248.205a1.29,1.29,0,1,1-1.289-1.29A1.29,1.29,0,0,1,684.155,248.205Z" fill="#00abe2"/>
        </g>
        <g id="Group_666" data-name="Group 666">
          <path id="Path_786" data-name="Path 786" d="M670.8,248.205a1.29,1.29,0,1,1-1.29-1.29A1.291,1.291,0,0,1,670.8,248.205Z" fill="#00abe2"/>
        </g>
        <g id="Group_667" data-name="Group 667">
          <path id="Path_787" data-name="Path 787" d="M684.155,267a1.29,1.29,0,1,1-1.289-1.29A1.29,1.29,0,0,1,684.155,267Z" fill="#00abe2"/>
        </g>
        <g id="Group_668" data-name="Group 668">
          <path id="Path_788" data-name="Path 788" d="M673.193,260.457a.416.416,0,0,1-.4-.291l-3.685-11.838a.415.415,0,0,1,.4-.538h25.269a.415.415,0,0,1,0,.83h-11.2l5.606,9.93a.415.415,0,0,1-.413.615l-10.191-1.29-.028,0a.42.42,0,0,1-.221-.119h0a.491.491,0,0,1-.049-.062.38.38,0,0,1-.025-.044l-4.006-7.9-.643,10.319a.413.413,0,0,1-.364.385Zm6.047-3.333,8.814,1.115-5.149-9.123Zm-9.17-8.5,2.848,9.148.569-9.148Zm4.534,0,4,7.889,3.612-7.889Z" fill="#00abe2"/>
        </g>
        <g id="Group_669" data-name="Group 669">
          <path id="Path_789" data-name="Path 789" d="M682.866,267.413a.421.421,0,0,1-.242-.077l-9.673-6.956a.416.416,0,0,1,.063-.712l5.435-2.579a.416.416,0,0,1,.557.206l4.239,9.535a.414.414,0,0,1-.379.583Zm-8.862-7.3,7.861,5.653-3.444-7.748Z" fill="#00abe2"/>
        </g>
        <g id="Group_670" data-name="Group 670">
          <path id="Path_790" data-name="Path 790" d="M682.866,267.413a.42.42,0,0,1-.243-.078.414.414,0,0,1-.093-.579l5.955-8.245a.415.415,0,1,1,.672.486l-5.955,8.245A.414.414,0,0,1,682.866,267.413Z" fill="#00abe2"/>
        </g>
      </g>
      <g id="Group_683" data-name="Group 683">
        <g id="Group_672" data-name="Group 672">
          <path id="Path_791" data-name="Path 791" d="M687.531,258.754a1.29,1.29,0,1,0,1.29-1.29A1.29,1.29,0,0,0,687.531,258.754Z" fill="#00abe2"/>
        </g>
        <g id="Group_673" data-name="Group 673">
          <path id="Path_792" data-name="Path 792" d="M703.16,260.043a1.29,1.29,0,1,0,1.289-1.289A1.289,1.289,0,0,0,703.16,260.043Z" fill="#00abe2"/>
        </g>
        <g id="Group_674" data-name="Group 674">
          <path id="Path_793" data-name="Path 793" d="M708.488,265a2.256,2.256,0,1,0,2.256-2.256A2.256,2.256,0,0,0,708.488,265Z" fill="#00abe2"/>
        </g>
        <g id="Group_675" data-name="Group 675">
          <path id="Path_794" data-name="Path 794" d="M697.724,257.464a1.29,1.29,0,1,0,1.29-1.29A1.291,1.291,0,0,0,697.724,257.464Z" fill="#00abe2"/>
        </g>
        <g id="Group_676" data-name="Group 676">
          <path id="Path_795" data-name="Path 795" d="M702.423,248.205a1.29,1.29,0,1,0,1.29-1.29A1.29,1.29,0,0,0,702.423,248.205Z" fill="#00abe2"/>
        </g>
        <g id="Group_677" data-name="Group 677">
          <path id="Path_796" data-name="Path 796" d="M693.486,248.205a1.29,1.29,0,1,0,1.29-1.29A1.291,1.291,0,0,0,693.486,248.205Z" fill="#00abe2"/>
        </g>
        <g id="Group_678" data-name="Group 678">
          <path id="Path_797" data-name="Path 797" d="M706.845,248.205a1.29,1.29,0,1,0,1.29-1.29A1.29,1.29,0,0,0,706.845,248.205Z" fill="#00abe2"/>
        </g>
        <g id="Group_679" data-name="Group 679">
          <path id="Path_798" data-name="Path 798" d="M693.486,267a1.29,1.29,0,1,0,1.29-1.29A1.291,1.291,0,0,0,693.486,267Z" fill="#00abe2"/>
        </g>
        <g id="Group_680" data-name="Group 680">
          <path id="Path_799" data-name="Path 799" d="M704.449,260.457l-.049,0a.412.412,0,0,1-.364-.385l-.643-10.319-4.007,7.9a.323.323,0,0,1-.027.048.5.5,0,0,1-.041.051h0a.4.4,0,0,1-.233.127h0l-.019,0-10.191,1.29a.415.415,0,0,1-.413-.615l5.951-10.542a.445.445,0,0,1,.043-.064.421.421,0,0,1,.055-.056.415.415,0,0,1,.267-.1h13.358a.415.415,0,0,1,.4.538l-3.684,11.838A.416.416,0,0,1,704.449,260.457Zm-9.712-11.34-5.149,9.122,8.813-1.115Zm9.417-.5.57,9.148,2.847-9.148Zm-8.732,0,3.611,7.889,4-7.889Z" fill="#00abe2"/>
        </g>
        <g id="Group_681" data-name="Group 681">
          <path id="Path_800" data-name="Path 800" d="M694.776,267.413a.414.414,0,0,1-.379-.583l4.238-9.535a.416.416,0,0,1,.557-.206l5.436,2.579a.416.416,0,0,1,.063.712l-9.673,6.956A.421.421,0,0,1,694.776,267.413Zm4.444-9.392-3.444,7.748,7.862-5.653Z" fill="#00abe2"/>
        </g>
        <g id="Group_682" data-name="Group 682">
          <path id="Path_801" data-name="Path 801" d="M694.776,267.413h-11.91a.414.414,0,1,1,0-.829h11.1L688.485,259a.415.415,0,0,1,.672-.486l5.955,8.245a.414.414,0,0,1-.336.657Z" fill="#00abe2"/>
        </g>
      </g>
      <g id="Group_691" data-name="Group 691">
        <g id="Group_684" data-name="Group 684">
          <path id="Path_802" data-name="Path 802" d="M690.111,237.657a1.29,1.29,0,1,0-1.29,1.289A1.29,1.29,0,0,0,690.111,237.657Z" fill="#00abe2"/>
        </g>
        <g id="Group_685" data-name="Group 685">
          <circle id="Ellipse_174" data-name="Ellipse 174" cx="1.29" cy="1.29" r="1.29" transform="translate(671.902 235.077)" fill="#00abe2"/>
        </g>
        <g id="Group_686" data-name="Group 686">
          <path id="Path_803" data-name="Path 803" d="M679.918,238.946a1.29,1.29,0,1,0-1.29,1.29A1.29,1.29,0,0,0,679.918,238.946Z" fill="#00abe2"/>
        </g>
        <g id="Group_687" data-name="Group 687">
          <path id="Path_804" data-name="Path 804" d="M684.155,229.411a1.29,1.29,0,1,0-1.289,1.29A1.29,1.29,0,0,0,684.155,229.411Z" fill="#00abe2"/>
        </g>
        <g id="Group_688" data-name="Group 688">
          <path id="Path_805" data-name="Path 805" d="M673.929,248.62h-4.422a.415.415,0,0,1-.4-.538l3.685-11.838a.408.408,0,0,1,.446-.288.413.413,0,0,1,.364.385l.643,10.319,4.006-7.9a.282.282,0,0,1,.026-.044v0h0a.5.5,0,0,1,.046-.058.422.422,0,0,1,.225-.122l.026,0,10.191-1.29a.415.415,0,0,1,.413.615l-5.606,9.93h11.2a.415.415,0,0,1,0,.83H673.929Zm.675-.83h7.616l-3.612-7.889Zm-4.534,0h3.417l-.569-9.148Zm9.17-8.5,3.665,8.008,5.149-9.123Z" fill="#00abe2"/>
        </g>
        <g id="Group_689" data-name="Group 689">
          <path id="Path_806" data-name="Path 806" d="M678.627,239.361a.413.413,0,0,1-.178-.04l-5.435-2.579a.416.416,0,0,1-.063-.712l9.673-6.956a.415.415,0,0,1,.621.506l-4.239,9.535a.416.416,0,0,1-.379.246ZM674,236.294l4.417,2.1,3.444-7.748Z" fill="#00abe2"/>
        </g>
        <g id="Group_690" data-name="Group 690">
          <path id="Path_807" data-name="Path 807" d="M688.821,238.071a.413.413,0,0,1-.336-.172l-5.955-8.245a.415.415,0,1,1,.672-.486l5.955,8.245a.415.415,0,0,1-.336.658Z" fill="#00abe2"/>
        </g>
      </g>
      <g id="Group_699" data-name="Group 699">
        <g id="Group_692" data-name="Group 692">
          <path id="Path_808" data-name="Path 808" d="M687.531,237.657a1.29,1.29,0,1,1,1.29,1.289A1.29,1.29,0,0,1,687.531,237.657Z" fill="#00abe2"/>
        </g>
        <g id="Group_693" data-name="Group 693">
          <path id="Path_809" data-name="Path 809" d="M703.16,236.367a1.29,1.29,0,1,1,1.289,1.29A1.289,1.289,0,0,1,703.16,236.367Z" fill="#00abe2"/>
        </g>
        <g id="Group_694" data-name="Group 694">
          <path id="Path_810" data-name="Path 810" d="M697.724,238.946a1.29,1.29,0,1,1,1.29,1.29A1.29,1.29,0,0,1,697.724,238.946Z" fill="#00abe2"/>
        </g>
        <g id="Group_695" data-name="Group 695">
          <path id="Path_811" data-name="Path 811" d="M693.486,229.411a1.29,1.29,0,1,1,1.29,1.29A1.291,1.291,0,0,1,693.486,229.411Z" fill="#00abe2"/>
        </g>
        <g id="Group_696" data-name="Group 696">
          <path id="Path_812" data-name="Path 812" d="M703.712,248.62h-8.936a.415.415,0,0,1-.262-.094.4.4,0,0,1-.061-.062.344.344,0,0,1-.042-.063L688.46,237.86a.415.415,0,0,1,.413-.615l10.19,1.29.021,0a.414.414,0,0,1,.231.123h0a.461.461,0,0,1,.043.054h0a.28.28,0,0,1,.027.047l4.007,7.9.643-10.319a.415.415,0,0,1,.81-.1l3.684,11.838a.415.415,0,0,1-.4.538h-4.422Zm.442-.83h3.417l-2.847-9.148Zm-8.732,0h7.615l-4-7.889Zm-5.834-9.619,5.149,9.122,3.664-8.007Z" fill="#00abe2"/>
        </g>
        <g id="Group_697" data-name="Group 697">
          <path id="Path_813" data-name="Path 813" d="M699.014,239.361a.421.421,0,0,1-.144-.026.413.413,0,0,1-.235-.22L694.4,229.58a.415.415,0,0,1,.621-.506l9.673,6.956a.416.416,0,0,1-.063.712l-5.436,2.579A.413.413,0,0,1,699.014,239.361Zm-3.238-8.72,3.444,7.748,4.418-2.1Z" fill="#00abe2"/>
        </g>
        <g id="Group_698" data-name="Group 698">
          <path id="Path_814" data-name="Path 814" d="M688.821,238.071a.415.415,0,0,1-.336-.658l5.48-7.587h-11.1a.415.415,0,1,1,0-.829h11.91a.414.414,0,0,1,.336.657l-5.955,8.245A.415.415,0,0,1,688.821,238.071Z" fill="#00abe2"/>
        </g>
      </g>
      <g id="Group_700" data-name="Group 700">
        <path id="Path_815" data-name="Path 815" d="M710.744,265.417a.419.419,0,0,1-.257-.088l-6.295-4.96a.415.415,0,1,1,.514-.652l6.294,4.96a.414.414,0,0,1-.256.74Z" fill="#00abe2"/>
      </g>
    </g>
    <g id="Group_702" data-name="Group 702">
      <path id="Path_816" data-name="Path 816" d="M578.921,233.787V229h5.992v4.731h7.279c-.252,2.3.56,4.508-1.176,6.636-3.416,4.2-6.579,8.622-9.855,12.962a1.573,1.573,0,0,0-.056.364h11.451v6.523h-7.587v4.647h-5.964V260.3h-7.531c.14-2.352-.448-4.507,1.316-6.607,3.5-4.2,6.691-8.651,9.995-12.99a2.482,2.482,0,0,0,.168-.42H572.426v-6.44C574.554,233.787,576.654,233.787,578.921,233.787Z" fill="#fbae35"/>
    </g>
    <g id="Group_703" data-name="Group 703" transform="translate(611 128.83)">
      <path id="Path_817" data-name="Path 817" d="M623.866,138.036l-1.959-3.436L615,146.569l5.539,6.1h1.825l2.932-3.388h-3.453l-2.672-3.388Z" transform="translate(-615 -130.004)" fill="#d1d9f0"/>
      <path id="Path_818" data-name="Path 818" d="M619.743,135.185l1.951-3.445,9.712,16.565-5.538,6.1h-4.561l5.8-6.776Z" transform="translate(-612.12 -131.74)" fill="#d1d9f0"/>
    </g>
    <g id="Group_704" data-name="Group 704" transform="translate(-1.239 -1.313)">
      <path id="Path_819" data-name="Path 819" d="M630.749,339.326c-.07.577-.105,1.066-.175,1.537a7.883,7.883,0,0,0,.664,4.685c1,2.01,1.941,4.037,2.884,6.065a17.867,17.867,0,0,1,1.381,3.863,2.62,2.62,0,0,1-.245,1.817,15.013,15.013,0,0,1-3.636,4.213,2.472,2.472,0,0,1-.489.21,2.58,2.58,0,0,1,.018-.525c.192-.769.436-1.538.612-2.325a4.6,4.6,0,0,0-.3-2.936c-.768-1.7-1.572-3.392-2.36-5.086a31.538,31.538,0,0,1-1.993-4.912,3.717,3.717,0,0,1,0-2.675,9.918,9.918,0,0,1,3.3-3.758C630.469,339.43,630.556,339.413,630.749,339.326Z" transform="translate(0.732)" fill="#d1d9f0"/>
      <path id="Path_820" data-name="Path 820" d="M624.4,341.455a3.128,3.128,0,0,1,0,.4,9.006,9.006,0,0,0-.07,2.988,6.423,6.423,0,0,0,.4,1.242c.786,1.695,1.609,3.355,2.36,5.051.419.962.734,1.976,1.066,2.988a1.765,1.765,0,0,1-.174,1.416,11.851,11.851,0,0,1-2.866,3.322,2.58,2.58,0,0,1-.368.21c-.034-.017-.052-.035-.087-.052a3.6,3.6,0,0,1,.07-.454c.157-.612.332-1.225.472-1.836a3.633,3.633,0,0,0-.228-2.236c-.717-1.557-1.433-3.095-2.15-4.632a19.059,19.059,0,0,1-1.4-3.672,2.71,2.71,0,0,1,.332-2.08,8.721,8.721,0,0,1,2.272-2.464C624.122,341.594,624.244,341.542,624.4,341.455Z" transform="translate(0 0.283)" fill="#d1d9f0"/>
      <path id="Path_821" data-name="Path 821" d="M637.043,341.523c-.035.3-.07.612-.105.909a6.394,6.394,0,0,0,.052,2.64,15.538,15.538,0,0,0,.769,1.941c.822,1.817,1.7,3.618,2.482,5.435a9.094,9.094,0,0,1,.543,1.941,1.654,1.654,0,0,1-.157,1,10.57,10.57,0,0,1-2.971,3.5,3.59,3.59,0,0,1-.4.21c.035-.227.035-.367.07-.506.174-.734.367-1.451.523-2.185a3.1,3.1,0,0,0-.3-1.975c-.716-1.556-1.451-3.112-2.167-4.667a17.9,17.9,0,0,1-1.364-3.635,2.686,2.686,0,0,1,.367-2.063,8.434,8.434,0,0,1,2.237-2.412,3.03,3.03,0,0,1,.315-.176C636.99,341.505,637.008,341.523,637.043,341.523Z" transform="translate(1.674 0.285)" fill="#d1d9f0"/>
    </g>
    <g id="Group_706" data-name="Group 706" transform="translate(898.5 308.823)">
      <g id="Group_705" data-name="Group 705" transform="translate(0 0)">
        <path id="Path_822" data-name="Path 822" d="M903.352,335.11c.378-1.1.719-2.122,1.1-3.163a.447.447,0,0,1,.341-.191c.625-.018,1.251,0,1.876,0H918.9a.493.493,0,0,0,.569-.417c.682-2.007,1.384-4.014,2.083-6.023.039-.113.058-.208.115-.378H906.836c.38-1.118.739-2.159,1.118-3.2a.384.384,0,0,1,.284-.152c.378-.019.739,0,1.117,0,5.02,0,10.039.039,15.078-.019a2.437,2.437,0,0,1,2.444,3.334c-.474,1.648-1.1,3.24-1.649,4.85-.189.549-.378,1.117-.567,1.648a5.683,5.683,0,0,1-4.073,3.636,1.762,1.762,0,0,1-.55.057H903.769A2.622,2.622,0,0,1,903.352,335.11Z" transform="translate(-902.783 -321.565)" fill="#d1d9f0"/>
        <path id="Path_823" data-name="Path 823" d="M912.963,324.765c-.378,1.062-.738,2.065-1.117,3.032-.019.074-.171.133-.265.133h-8.43a.371.371,0,0,1-.152-.058c.36-.984.7-1.951,1.08-2.917a.375.375,0,0,1,.284-.189Z" transform="translate(-903 -319.593)" fill="#d1d9f0"/>
      </g>
    </g>
    <path id="Path_824" data-name="Path 824" d="M882.127,49.316l-7.8,16.519a2.046,2.046,0,0,1-1.849,1.172h0a2.046,2.046,0,0,1-1.842-1.157l-7.97-16.538a.551.551,0,0,0-.5-.312h-4.01a.55.55,0,0,0-.5.789l10.371,21.566a3.256,3.256,0,0,0,2.934,1.844h0a3.255,3.255,0,0,0,2.956-1.892l9.921-21.526a.55.55,0,0,0-.5-.781h-.718A.55.55,0,0,0,882.127,49.316Z" fill="#d1d9f0"/>
  </g>
</svg>
