<svg id="ios-2" xmlns="http://www.w3.org/2000/svg" width="95.756" height="95.756" viewBox="0 0 95.756 95.756">
  <path id="Path_696" data-name="Path 696" d="M0,0H95.756V95.756H0Z" fill="#282828"/>
  <path id="Path_697" data-name="Path 697" d="M223.71,515.475a17.964,17.964,0,0,0-8.061,1.878c-6.433,3.2-10.148,9.953-10.148,18.456,0,8.522,3.654,15.071,10.11,18.134a18.553,18.553,0,0,0,6.146,1.593,25.061,25.061,0,0,0,3.907,0,18.553,18.553,0,0,0,6.146-1.593c6.456-3.063,10.11-9.611,10.11-18.134,0-8.5-3.715-15.251-10.148-18.456A17.966,17.966,0,0,0,223.71,515.475Zm2.561,5.994c3.863,1.029,6.665,4.514,7.739,9.6a21.994,21.994,0,0,1-.531,10.945c-1.682,5.06-5.332,7.918-9.769,7.872-4.436.046-8.087-2.812-9.768-7.872a22.019,22.019,0,0,1-.531-10.945c1.074-5.084,3.877-8.569,7.739-9.6A13.068,13.068,0,0,1,226.271,521.47Zm-28.21-5.994a3.861,3.861,0,1,0,3.861,3.861A3.861,3.861,0,0,0,198.061,515.475Zm-3.608,11.782v28.359h7.216V527.257Zm57.959,28.3c-3.092-.53-6.065-.94-8.59-2.373-.033-.03,1.49-5.723,1.559-5.825,4.057,1.378,9.768,3.31,13.619,1.539a4.817,4.817,0,0,0,2.786-5.232c-.391-2.518-2.135-3.97-6.922-5.76-5.34-2-8.468-4.449-9.749-7.639a10.44,10.44,0,0,1-.555-5.31c.788-4.852,4.567-8.227,10.368-9.259a27.916,27.916,0,0,1,7.042-.006c2.548.426,5.471,1.39,5.471,1.8,0,.153-1.493,5.417-1.57,5.534a22.642,22.642,0,0,0-7.736-1.726c-3.383-.043-7.051,1.965-6.4,5.513.458,2.223,1.877,3.308,7.1,5.429,3.846,1.564,5.691,2.643,7.273,4.248a9.968,9.968,0,0,1,2.909,7.322,9.433,9.433,0,0,1-.951,4.759q-2.764,5.98-11.242,6.933a30.309,30.309,0,0,1-4.4.048Z" transform="translate(-183.725 -487.668)" fill="#fff"/>
</svg>
