<svg xmlns="http://www.w3.org/2000/svg" width="80" height="80" viewBox="0 0 80 80">
  <g id="Group_853" data-name="Group 853" transform="translate(-580 -1458)">
    <rect id="Rectangle_309" data-name="Rectangle 309" width="80" height="80" transform="translate(580 1458)" fill="#fffaee"/>
    <g id="Group_848" data-name="Group 848" transform="translate(593.306 1475)">
      <path id="Path_937" data-name="Path 937" d="M1459.745,852.311l9.943-4.095a2.573,2.573,0,0,0,0-4.758l-9.973-4.106-1.478-1.479-4.107-9.973a2.573,2.573,0,0,0-4.758,0l-4.122,10.01-1.478,1.479-9.927,4.087a2.573,2.573,0,0,0,0,4.759l9.968,4.1,1.486,1.486,4.1,9.967a2.573,2.573,0,0,0,4.758,0l4.128-10.025Z" transform="translate(-1429.558 -818.387)" fill="#facb4e"/>
      <path id="Path_938" data-name="Path 938" d="M1471.977,834.228l4.535-1.868a1.174,1.174,0,0,0,0-2.17l-4.549-1.873-.675-.675-1.873-4.549a1.174,1.174,0,0,0-2.17,0l-1.88,4.566-.675.674-4.528,1.865a1.173,1.173,0,0,0,0,2.17l4.546,1.871.677.678,1.873,4.546a1.173,1.173,0,0,0,2.17,0l1.882-4.573Z" transform="translate(-1426.614 -822.368)" fill="#facb4e" opacity="0.4"/>
    </g>
  </g>
</svg>
