<svg id="Group_503" data-name="Group 503" xmlns="http://www.w3.org/2000/svg" xmlns:xlink="http://www.w3.org/1999/xlink" width="75.578" height="59.501" viewBox="0 0 75.578 59.501">
  <defs>
    <linearGradient id="linear-gradient" y1="0.5" x2="1" y2="0.5" gradientUnits="objectBoundingBox">
      <stop offset="0" stop-color="#ebebeb"/>
      <stop offset="0.279" stop-color="#f1f1f1" stop-opacity="0.659"/>
      <stop offset="0.534" stop-color="#f7f7f7" stop-opacity="0.376"/>
      <stop offset="0.746" stop-color="#fbfbfb" stop-opacity="0.173"/>
      <stop offset="0.908" stop-color="#fefefe" stop-opacity="0.047"/>
      <stop offset="1" stop-color="#fff" stop-opacity="0"/>
    </linearGradient>
    <linearGradient id="linear-gradient-2" x1="0.18" y1="0.81" x2="1.075" y2="-0.058" xlink:href="#linear-gradient"/>
  </defs>
  <rect id="Rectangle_296" data-name="Rectangle 296" width="75.578" height="59.501" fill="none"/>
  <g id="Group_502" data-name="Group 502" transform="translate(11.603 7.225)">
    <g id="Group_500" data-name="Group 500">
      <path id="Path_633" data-name="Path 633" d="M462.542,667.731h-8.727a2.208,2.208,0,0,1-1.62-1.8c-.305-1.623-.665-3.236-.946-4.863-.119-.691-.32-1.241-1.052-1.467-.171-.053-.308-.22-.479-.275a1.122,1.122,0,0,0-.623-.068c-1.759.574-3.509,1.175-5.262,1.766a2.043,2.043,0,0,1-2.771-1.042q-1.862-3.218-3.717-6.438a2.036,2.036,0,0,1,.483-2.886c1.089-.962,2.138-1.98,3.294-2.858a2.473,2.473,0,0,0,1.157-2.547.9.9,0,0,0-.291-.615q-2.083-1.809-4.149-3.638a2.043,2.043,0,0,1-.48-2.919q1.855-3.22,3.716-6.44a2.04,2.04,0,0,1,2.744-1.024c1.51.509,3.036.978,4.522,1.549a1.747,1.747,0,0,0,1.993-.2c.114-.1.3-.129.4-.234a1.067,1.067,0,0,0,.343-.474c.386-1.84.749-3.683,1.117-5.526a2.031,2.031,0,0,1,2.174-1.811q3.808,0,7.614,0a2.023,2.023,0,0,1,2.167,1.769c.323,1.59.668,3.176.939,4.776.126.746.315,1.364,1.121,1.607a1.273,1.273,0,0,1,.4.243.636.636,0,0,0,.673.083c1.762-.608,3.529-1.2,5.3-1.8a2.024,2.024,0,0,1,2.682,1q1.883,3.253,3.759,6.512a2.03,2.03,0,0,1-.473,2.855c-1.238,1.1-2.462,2.209-3.736,3.262a1.537,1.537,0,0,0-.716,1.578c.036.191-.035.4.006.594a1.125,1.125,0,0,0,.259.573c1.38,1.237,2.78,2.452,4.169,3.678a2.039,2.039,0,0,1,.483,2.887q-1.846,3.2-3.7,6.4a2.053,2.053,0,0,1-2.832,1.062q-2.63-.887-5.259-1.772a3.359,3.359,0,0,0-1.934,1c-.016.055-.016.113-.028.169-.354,1.757-.741,3.511-1.05,5.277A2.334,2.334,0,0,1,462.542,667.731Zm3.6-21.9a7.96,7.96,0,1,0-7.969,7.96A7.972,7.972,0,0,0,466.138,645.829Z" transform="translate(-436.951 -623.928)" fill="url(#linear-gradient)"/>
    </g>
    <g id="Group_501" data-name="Group 501" transform="translate(27.35 19.235)">
      <path id="Path_634" data-name="Path 634" d="M465.8,637.226h5.144a1.3,1.3,0,0,1,.955,1.057c.179.956.392,1.908.557,2.867.069.406.19.73.619.865.1.03.182.129.283.161a.655.655,0,0,0,.367.041c1.036-.339,2.067-.691,3.1-1.042a1.2,1.2,0,0,1,1.633.615q1.1,1.9,2.191,3.794a1.2,1.2,0,0,1-.285,1.7c-.642.567-1.26,1.167-1.941,1.684a1.459,1.459,0,0,0-.681,1.5.526.526,0,0,0,.171.363q1.228,1.065,2.445,2.144a1.2,1.2,0,0,1,.284,1.72q-1.094,1.9-2.19,3.8a1.2,1.2,0,0,1-1.617.6c-.891-.3-1.789-.577-2.666-.914a1.031,1.031,0,0,0-1.175.117c-.068.059-.174.075-.237.137a.639.639,0,0,0-.2.281c-.227,1.083-.441,2.17-.658,3.256a1.2,1.2,0,0,1-1.282,1.067q-2.243,0-4.488,0A1.192,1.192,0,0,1,464.85,662c-.19-.937-.393-1.873-.554-2.815-.074-.44-.185-.8-.66-.947a.738.738,0,0,1-.236-.143.377.377,0,0,0-.4-.049c-1.039.359-2.08.709-3.122,1.059a1.193,1.193,0,0,1-1.581-.589q-1.111-1.916-2.216-3.837a1.2,1.2,0,0,1,.278-1.682c.73-.647,1.452-1.3,2.2-1.924a.905.905,0,0,0,.422-.93c-.022-.113.02-.239,0-.35a.652.652,0,0,0-.152-.337c-.813-.729-1.639-1.446-2.458-2.168a1.2,1.2,0,0,1-.284-1.7q1.087-1.888,2.178-3.772a1.21,1.21,0,0,1,1.669-.626l3.1,1.044a1.978,1.978,0,0,0,1.14-.587.75.75,0,0,0,.016-.1c.208-1.037.437-2.07.619-3.11A1.374,1.374,0,0,1,465.8,637.226Zm-2.12,12.908a4.692,4.692,0,1,0,4.7-4.691A4.7,4.7,0,0,0,463.679,650.134Z" transform="translate(-455.859 -637.226)" fill="url(#linear-gradient-2)"/>
    </g>
  </g>
</svg>
