<svg xmlns="http://www.w3.org/2000/svg" width="80" height="80" viewBox="0 0 80 80">
  <g id="Group_1442" data-name="Group 1442" transform="translate(-1000 -1458)">
    <rect id="Rectangle_309" data-name="Rectangle 309" width="80" height="80" transform="translate(1000 1458)" fill="#f4f6ff"/>
    <g id="Group_847" data-name="Group 847" transform="translate(1018.946 1472.872)">
      <g id="Group_843" data-name="Group 843" transform="translate(0 5.363)">
        <ellipse id="Ellipse_184" data-name="Ellipse 184" cx="10.726" cy="10.726" rx="10.726" ry="10.726" transform="translate(10.327)" fill="#7481c1" opacity="0.3"/>
        <path id="Path_933" data-name="Path 933" d="M1519.479,574.06c0,11.627-9.426,5.749-21.054,5.749s-21.054,5.878-21.054-5.749S1486.8,560,1498.426,560,1519.479,562.432,1519.479,574.06Z" transform="translate(-1477.372 -536.402)" fill="#7481c1"/>
      </g>
      <g id="Group_846" data-name="Group 846" transform="translate(4.964 0)">
        <g id="Group_844" data-name="Group 844" transform="translate(0 7.508)">
          <path id="Path_934" data-name="Path 934" d="M1485.218,548.581a12.839,12.839,0,0,0,1.6,6.221,2.464,2.464,0,0,1-1.008.215h-1.18a2.632,2.632,0,0,1-2.628-2.628v-9.761a2.632,2.632,0,0,1,2.628-2.628h1.18a2.609,2.609,0,0,1,1.952.88A12.855,12.855,0,0,0,1485.218,548.581Z" transform="translate(-1482 -540)" fill="#7481c1"/>
          <path id="Path_935" data-name="Path 935" d="M1512.39,542.628v9.761a2.632,2.632,0,0,1-2.628,2.628h-1.18a2.464,2.464,0,0,1-1.008-.215,12.924,12.924,0,0,0-.944-13.923,2.61,2.61,0,0,1,1.952-.88h1.18A2.632,2.632,0,0,1,1512.39,542.628Z" transform="translate(-1480.211 -540)" fill="#7481c1"/>
        </g>
        <g id="Group_845" data-name="Group 845" transform="translate(2.145)">
          <path id="Path_936" data-name="Path 936" d="M1511.888,544.252h-2.145v-2.685a6.43,6.43,0,0,0-6.422-6.422h-10.754a6.429,6.429,0,0,0-6.422,6.422v1.007H1484v-1.007a8.577,8.577,0,0,1,8.567-8.567h10.754a8.577,8.577,0,0,1,8.567,8.567Z" transform="translate(-1484 -533)" fill="#7481c1"/>
        </g>
      </g>
    </g>
  </g>
</svg>
