<svg xmlns="http://www.w3.org/2000/svg" xmlns:xlink="http://www.w3.org/1999/xlink" width="460" height="434" viewBox="0 0 460 434">
  <defs>
    <clipPath id="clip-path">
      <rect id="Rectangle_370" data-name="Rectangle 370" width="460" height="434" transform="translate(0.001 0.309)" fill="none"/>
    </clipPath>
    <linearGradient id="linear-gradient" x1="0.5" y1="0.006" x2="0.5" y2="0.739" gradientUnits="objectBoundingBox">
      <stop offset="0" stop-color="#0055bd"/>
      <stop offset="0.172" stop-color="#1e38d8" stop-opacity="0.769"/>
      <stop offset="0.425" stop-color="#4912fd" stop-opacity="0.459"/>
      <stop offset="0.501" stop-color="#4527f9" stop-opacity="0.369"/>
      <stop offset="0.653" stop-color="#3e4cf2" stop-opacity="0.208"/>
      <stop offset="0.792" stop-color="#3967ed" stop-opacity="0.094"/>
      <stop offset="0.912" stop-color="#3678ea" stop-opacity="0.024"/>
      <stop offset="1" stop-color="#357ee9" stop-opacity="0"/>
    </linearGradient>
    <linearGradient id="linear-gradient-3" x1="0.5" y1="0.006" x2="0.5" y2="0.739" gradientUnits="objectBoundingBox">
      <stop offset="0" stop-color="aqua"/>
      <stop offset="0.032" stop-color="#01f9fe" stop-opacity="0.957"/>
      <stop offset="0.304" stop-color="#0dccfd" stop-opacity="0.6"/>
      <stop offset="0.425" stop-color="#12bafd" stop-opacity="0.459"/>
      <stop offset="0.501" stop-color="#18aef9" stop-opacity="0.369"/>
      <stop offset="0.653" stop-color="#2599f2" stop-opacity="0.208"/>
      <stop offset="0.792" stop-color="#2d8aed" stop-opacity="0.094"/>
      <stop offset="0.912" stop-color="#3381ea" stop-opacity="0.024"/>
      <stop offset="1" stop-color="#357ee9" stop-opacity="0"/>
    </linearGradient>
  </defs>
  <g id="Group_648" data-name="Group 648" transform="translate(-2603.044 -899.918)">
    <g id="Group_647" data-name="Group 647" transform="translate(2603.043 899.609)" clip-path="url(#clip-path)">
      <rect id="Rectangle_361" data-name="Rectangle 361" width="297" height="458" transform="translate(119 -23.691)" fill="#004ce3"/>
      <path id="Path_763" data-name="Path 763" d="M3167.887,1389.33h-5.628l-1.737-184.913h9.1Z" transform="translate(-2783.906 -998.752)" fill="url(#linear-gradient)"/>
      <path id="Path_764" data-name="Path 764" d="M3032.98,1527.476h-6.464L3024.522,1412h10.453Z" transform="translate(-2739.746 -1066.155)" fill="url(#linear-gradient)"/>
      <path id="Path_765" data-name="Path 765" d="M3057.315,1274.42h-3.835L3051.522,1067h7.751Z" transform="translate(-2748.513 -954.132)" fill="url(#linear-gradient-3)"/>
      <g id="Group_643" data-name="Group 643" transform="translate(19.032 10.223)">
        <rect id="Rectangle_362" data-name="Rectangle 362" width="270.794" height="327.41" rx="7.799" fill="none" stroke="#d1d9f0" stroke-width="1"/>
        <rect id="Rectangle_363" data-name="Rectangle 363" width="227.575" height="240.743" rx="6.13" transform="translate(21.609 65.166)" fill="#fbfbfb"/>
        <g id="Group_642" data-name="Group 642" transform="translate(23.786 16.692)">
          <ellipse id="Ellipse_166" data-name="Ellipse 166" cx="3.5" cy="4" rx="3.5" ry="4" transform="translate(0.182 0.394)" fill="#d1d9f0"/>
          <circle id="Ellipse_167" data-name="Ellipse 167" cx="4" cy="4" r="4" transform="translate(21.182 0.394)" fill="#d1d9f0"/>
          <ellipse id="Ellipse_168" data-name="Ellipse 168" cx="3.5" cy="4" rx="3.5" ry="4" transform="translate(44.182 0.394)" fill="#d1d9f0"/>
          <circle id="Ellipse_169" data-name="Ellipse 169" cx="4" cy="4" r="4" transform="translate(65.182 0.394)" fill="#d1d9f0"/>
        </g>
        <path id="Path_766" data-name="Path 766" d="M2663,1206.955V972.389s92.654-33.526,75.364,78.573c-13.771,89.293,28.416,110.887,52.709,128.621a33.879,33.879,0,0,1,13.881,27.373H2663Z" transform="translate(-2641.391 -932.109)" fill="#357ee9" opacity="0.6"/>
        <path id="Path_767" data-name="Path 767" d="M2951.325,1015.64v197.072s-40.518,12.52-49.688-13.371,7.145-35.561-33.069-89.3c-25.614-34.231-19.51-74.107-11.7-98.539h90.321A4.153,4.153,0,0,1,2951.325,1015.64Z" transform="translate(-2702.14 -946.334)" fill="#ffb32b" opacity="0.6"/>
        <circle id="Ellipse_170" data-name="Ellipse 170" cx="65" cy="65" r="65" transform="translate(69.968 102.086)" fill="#ff7f6b" opacity="0.6"/>
      </g>
      <g id="Group_644" data-name="Group 644" transform="translate(412.063 333.826)">
        <rect id="Rectangle_364" data-name="Rectangle 364" width="8.095" height="7.164" fill="#fff"/>
        <path id="Path_768" data-name="Path 768" d="M3219.563,1479.9h-5.007l-1.544-75.086h8.1Z" transform="translate(-3213.012 -1397.647)" fill="url(#linear-gradient-3)"/>
      </g>
      <g id="Group_645" data-name="Group 645" transform="translate(113.806 355.975)">
        <rect id="Rectangle_365" data-name="Rectangle 365" width="8.546" height="13.676" fill="#fff"/>
        <path id="Path_769" data-name="Path 769" d="M2778.26,1515.287h-5.285l-1.631-68.035h8.546Z" transform="translate(-2771.344 -1433.576)" fill="url(#linear-gradient-3)"/>
      </g>
      <g id="Group_646" data-name="Group 646" transform="translate(334.208 268.861)">
        <rect id="Rectangle_366" data-name="Rectangle 366" width="8.966" height="11.323" fill="#fff"/>
        <path id="Path_770" data-name="Path 770" d="M3104.979,1514.813h-5.545l-1.71-200.044h8.965Z" transform="translate(-3097.724 -1303.445)" fill="url(#linear-gradient-3)"/>
      </g>
      <rect id="Rectangle_367" data-name="Rectangle 367" width="108.308" height="130.952" rx="3.119" transform="translate(341.225 51.656)" fill="none" stroke="#d1d9f0" stroke-width="1"/>
      <rect id="Rectangle_368" data-name="Rectangle 368" width="89.156" height="82.135" rx="2.241" transform="translate(350.801 88.895)" fill="#d1d9f0" opacity="0.2"/>
      <path id="Path_771" data-name="Path 771" d="M2850,815.77v.432l-.2-.216Z" transform="translate(-2683.013 -872.557)" fill="none" stroke="#d1d9f0" stroke-width="1"/>
      <path id="Path_772" data-name="Path 772" d="M3245.237,997.274a6.2,6.2,0,0,1-1.816,4.385l-4.348,4.346-1.886,2.057-.023.026-.024-.026-1.886-2.057-4.348-4.346a6.207,6.207,0,0,1-1.815-4.385,3.562,3.562,0,0,1,3.561-3.562,4.906,4.906,0,0,1,4.02,2.1l.493.706.492-.706a4.9,4.9,0,0,1,4.02-2.1,3.562,3.562,0,0,1,3.561,3.562Z" transform="translate(-2806.171 -930.335)" fill="#e76e5e"/>
      <path id="Path_773" data-name="Path 773" d="M2849.7,815.986l-.2.216v-.432Z" transform="translate(-2682.916 -872.557)" fill="none" stroke="#d1d9f0" stroke-width="1"/>
      <circle id="Ellipse_171" data-name="Ellipse 171" cx="34.778" cy="34.778" r="34.778" transform="translate(360.602 81.129)" fill="#fff"/>
      <rect id="Rectangle_369" data-name="Rectangle 369" width="64" height="2" transform="translate(363 160.309)" fill="#d1d9f0"/>
      <text id="NFT" transform="translate(373.382 122.134)" fill="#7e8fbf" font-size="18" font-family="Century"><tspan x="0" y="0">NFT</tspan></text>
    </g>
  </g>
</svg>
