<svg xmlns="http://www.w3.org/2000/svg" xmlns:xlink="http://www.w3.org/1999/xlink" width="314.5" height="95.614" viewBox="0 0 314.5 95.614">
  <defs>
    <linearGradient id="linear-gradient" x1="0.936" y1="0.204" x2="-1.371" y2="1.689" gradientUnits="objectBoundingBox">
      <stop offset="0" stop-color="#357eeb" stop-opacity="0"/>
      <stop offset="0.08" stop-color="#357eeb" stop-opacity="0.122"/>
      <stop offset="0.269" stop-color="#357eeb" stop-opacity="0.384"/>
      <stop offset="0.45" stop-color="#357eeb" stop-opacity="0.604"/>
      <stop offset="0.618" stop-color="#357eeb" stop-opacity="0.776"/>
      <stop offset="0.771" stop-color="#357eeb" stop-opacity="0.898"/>
      <stop offset="0.903" stop-color="#357eeb" stop-opacity="0.973"/>
      <stop offset="1" stop-color="#357eeb"/>
    </linearGradient>
  </defs>
  <g id="Group_467" data-name="Group 467" transform="translate(1721.275 141.854) rotate(180)" opacity="0.19">
    <path id="Path_598" data-name="Path 598" d="M1627.876,118.209a139.358,139.358,0,0,0-33.937-41.26,135.263,135.263,0,0,0-46.416-25.14,132.6,132.6,0,0,0-57.814-4.108,129.137,129.137,0,0,0-53.825,20.632A79.022,79.022,0,0,0,1416.185,87c-5.469,7.565-9.775,17.075-9.386,26.7.878,21.7,26.477,27.133,43.266,28,21.587,1.119,43.244-4.258,64.144-9.174,21.667-5.1,43.073-11.183,64.341-17.813,20.591-6.419,41.1-13.132,61.923-18.734,20.858-5.612,42.072-10.12,63.592-11.863q7.771-.63,15.568-.766c2.184-.039,2.191-3.543,0-3.5-20.819.366-41.494,3.529-61.794,8.184-20.5,4.7-40.636,10.88-60.711,17.185-20.293,6.374-40.565,12.8-61.115,18.253q-15.87,4.207-31.89,7.784c-10.415,2.325-20.882,4.6-31.469,5.926-10.222,1.282-20.667,1.734-30.889.209-8.764-1.308-18.736-3.739-25.45-10.1-7.238-6.859-7.21-17.118-3.959-26.061,3.079-8.473,8.7-15.8,15.144-21.832,13.624-12.737,31.488-20.927,49.18-25.5a130.373,130.373,0,0,1,56.746-1.957,129.027,129.027,0,0,1,48.3,20.152,136.087,136.087,0,0,1,36.609,36.882q3.56,5.335,6.61,11c1.064,1.971,4,.206,2.934-1.769Z" transform="translate(0)" fill="url(#linear-gradient)"/>
  </g>
</svg>
