<svg xmlns="http://www.w3.org/2000/svg" width="131" height="104" viewBox="0 0 131 104">
  <g id="Group_225" data-name="Group 225" transform="translate(-1307 -557)" opacity="0.5">
    <circle id="Ellipse_12" data-name="Ellipse 12" cx="5" cy="5" r="5" transform="translate(1307 557)" fill="#357eeb" opacity="0.5"/>
    <circle id="Ellipse_13" data-name="Ellipse 13" cx="5" cy="5" r="5" transform="translate(1327 557)" fill="#357eeb" opacity="0.5"/>
    <circle id="Ellipse_14" data-name="Ellipse 14" cx="5" cy="5" r="5" transform="translate(1347 557)" fill="#357eeb" opacity="0.5"/>
    <ellipse id="Ellipse_15" data-name="Ellipse 15" cx="4.5" cy="5" rx="4.5" ry="5" transform="translate(1368 557)" fill="#357eeb" opacity="0.5"/>
    <circle id="Ellipse_16" data-name="Ellipse 16" cx="5" cy="5" r="5" transform="translate(1388 557)" fill="#357eeb" opacity="0.5"/>
    <circle id="Ellipse_17" data-name="Ellipse 17" cx="5" cy="5" r="5" transform="translate(1408 557)" fill="#357eeb" opacity="0.5"/>
    <circle id="Ellipse_18" data-name="Ellipse 18" cx="5" cy="5" r="5" transform="translate(1428 557)" fill="#357eeb" opacity="0.5"/>
    <circle id="Ellipse_19" data-name="Ellipse 19" cx="5" cy="5" r="5" transform="translate(1307 576)" fill="#357eeb"/>
    <circle id="Ellipse_20" data-name="Ellipse 20" cx="5" cy="5" r="5" transform="translate(1327 576)" fill="#357eeb"/>
    <circle id="Ellipse_21" data-name="Ellipse 21" cx="5" cy="5" r="5" transform="translate(1347 576)" fill="#357eeb"/>
    <ellipse id="Ellipse_22" data-name="Ellipse 22" cx="4.5" cy="5" rx="4.5" ry="5" transform="translate(1368 576)" fill="#357eeb"/>
    <circle id="Ellipse_23" data-name="Ellipse 23" cx="5" cy="5" r="5" transform="translate(1388 576)" fill="#357eeb"/>
    <circle id="Ellipse_24" data-name="Ellipse 24" cx="5" cy="5" r="5" transform="translate(1408 576)" fill="#357eeb"/>
    <circle id="Ellipse_25" data-name="Ellipse 25" cx="5" cy="5" r="5" transform="translate(1428 576)" fill="#357eeb"/>
    <circle id="Ellipse_26" data-name="Ellipse 26" cx="5" cy="5" r="5" transform="translate(1307 595)" fill="#357eeb" opacity="0.5"/>
    <circle id="Ellipse_27" data-name="Ellipse 27" cx="5" cy="5" r="5" transform="translate(1327 595)" fill="#357eeb" opacity="0.5"/>
    <circle id="Ellipse_28" data-name="Ellipse 28" cx="5" cy="5" r="5" transform="translate(1347 595)" fill="#357eeb" opacity="0.5"/>
    <ellipse id="Ellipse_29" data-name="Ellipse 29" cx="4.5" cy="5" rx="4.5" ry="5" transform="translate(1368 595)" fill="#357eeb" opacity="0.5"/>
    <circle id="Ellipse_30" data-name="Ellipse 30" cx="5" cy="5" r="5" transform="translate(1388 595)" fill="#357eeb" opacity="0.5"/>
    <circle id="Ellipse_31" data-name="Ellipse 31" cx="5" cy="5" r="5" transform="translate(1408 595)" fill="#357eeb" opacity="0.5"/>
    <circle id="Ellipse_32" data-name="Ellipse 32" cx="5" cy="5" r="5" transform="translate(1428 595)" fill="#357eeb" opacity="0.5"/>
    <ellipse id="Ellipse_33" data-name="Ellipse 33" cx="5" cy="4.5" rx="5" ry="4.5" transform="translate(1307 614)" fill="#357eeb"/>
    <ellipse id="Ellipse_34" data-name="Ellipse 34" cx="5" cy="4.5" rx="5" ry="4.5" transform="translate(1327 614)" fill="#357eeb"/>
    <ellipse id="Ellipse_35" data-name="Ellipse 35" cx="5" cy="4.5" rx="5" ry="4.5" transform="translate(1347 614)" fill="#357eeb"/>
    <circle id="Ellipse_36" data-name="Ellipse 36" cx="4.5" cy="4.5" r="4.5" transform="translate(1368 614)" fill="#357eeb"/>
    <ellipse id="Ellipse_37" data-name="Ellipse 37" cx="5" cy="4.5" rx="5" ry="4.5" transform="translate(1388 614)" fill="#357eeb"/>
    <ellipse id="Ellipse_38" data-name="Ellipse 38" cx="5" cy="4.5" rx="5" ry="4.5" transform="translate(1408 614)" fill="#357eeb"/>
    <ellipse id="Ellipse_39" data-name="Ellipse 39" cx="5" cy="4.5" rx="5" ry="4.5" transform="translate(1428 614)" fill="#357eeb"/>
    <ellipse id="Ellipse_40" data-name="Ellipse 40" cx="5" cy="4.5" rx="5" ry="4.5" transform="translate(1307 633)" fill="#357eeb" opacity="0.5"/>
    <ellipse id="Ellipse_41" data-name="Ellipse 41" cx="5" cy="4.5" rx="5" ry="4.5" transform="translate(1327 633)" fill="#357eeb" opacity="0.5"/>
    <ellipse id="Ellipse_42" data-name="Ellipse 42" cx="5" cy="4.5" rx="5" ry="4.5" transform="translate(1347 633)" fill="#357eeb" opacity="0.5"/>
    <circle id="Ellipse_43" data-name="Ellipse 43" cx="4.5" cy="4.5" r="4.5" transform="translate(1368 633)" fill="#357eeb" opacity="0.5"/>
    <ellipse id="Ellipse_44" data-name="Ellipse 44" cx="5" cy="4.5" rx="5" ry="4.5" transform="translate(1388 633)" fill="#357eeb" opacity="0.5"/>
    <ellipse id="Ellipse_45" data-name="Ellipse 45" cx="5" cy="4.5" rx="5" ry="4.5" transform="translate(1408 633)" fill="#357eeb" opacity="0.5"/>
    <ellipse id="Ellipse_46" data-name="Ellipse 46" cx="5" cy="4.5" rx="5" ry="4.5" transform="translate(1428 633)" fill="#357eeb" opacity="0.5"/>
    <ellipse id="Ellipse_47" data-name="Ellipse 47" cx="5" cy="4.5" rx="5" ry="4.5" transform="translate(1307 652)" fill="#357eeb"/>
    <ellipse id="Ellipse_48" data-name="Ellipse 48" cx="5" cy="4.5" rx="5" ry="4.5" transform="translate(1327 652)" fill="#357eeb"/>
    <ellipse id="Ellipse_49" data-name="Ellipse 49" cx="5" cy="4.5" rx="5" ry="4.5" transform="translate(1347 652)" fill="#357eeb"/>
    <circle id="Ellipse_50" data-name="Ellipse 50" cx="4.5" cy="4.5" r="4.5" transform="translate(1368 652)" fill="#357eeb"/>
    <ellipse id="Ellipse_51" data-name="Ellipse 51" cx="5" cy="4.5" rx="5" ry="4.5" transform="translate(1388 652)" fill="#357eeb"/>
    <ellipse id="Ellipse_52" data-name="Ellipse 52" cx="5" cy="4.5" rx="5" ry="4.5" transform="translate(1408 652)" fill="#357eeb"/>
    <ellipse id="Ellipse_53" data-name="Ellipse 53" cx="5" cy="4.5" rx="5" ry="4.5" transform="translate(1428 652)" fill="#357eeb"/>
  </g>
</svg>
