<svg xmlns="http://www.w3.org/2000/svg" xmlns:xlink="http://www.w3.org/1999/xlink" width="219.546" height="155.607" viewBox="0 0 219.546 155.607">
  <defs>
    <linearGradient id="linear-gradient" x1="-1.325" y1="1.483" x2="0.888" y2="0.293" gradientUnits="objectBoundingBox">
      <stop offset="0" stop-color="#d1d9f0"/>
      <stop offset="1" stop-color="#f7faff"/>
    </linearGradient>
  </defs>
  <g id="Group_468" data-name="Group 468" transform="translate(-1533.531 -631.896)">
    <path id="Path_599" data-name="Path 599" d="M1539.571,632.971c-9.256,18.173-6.626,39.665-.438,58.367,6.131,18.527,15.832,36,29.221,50.279,13.167,14.037,29.73,24.373,47.5,31.553,18.676,7.546,38.586,11.46,58.6,13.178,22.735,1.951,45.589,1.092,68.341-.086q4.115-.213,8.231-.436c2.725-.147,2.742-4.4,0-4.256-22.282,1.2-44.625,2.368-66.935,1.187-20.132-1.065-40.2-4.152-59.3-10.765-17.474-6.051-34.1-15.1-47.722-27.709-13.889-12.856-24.347-29.178-31.205-46.765-6.811-17.467-11.412-37.711-5.289-56.051a46.139,46.139,0,0,1,2.666-6.346c1.24-2.436-2.43-4.592-3.675-2.148Z" transform="translate(0 0)" fill="url(#linear-gradient)"/>
  </g>
</svg>
