<svg xmlns="http://www.w3.org/2000/svg" xmlns:xlink="http://www.w3.org/1999/xlink" width="432.723" height="478.651" viewBox="0 0 432.723 478.651">
  <defs>
    <linearGradient id="linear-gradient" x1="0.52" y1="0.113" x2="0.461" y2="1.043" gradientUnits="objectBoundingBox">
      <stop offset="0" stop-color="#ffe600" stop-opacity="0"/>
      <stop offset="1" stop-color="#fdffed"/>
    </linearGradient>
    <linearGradient id="linear-gradient-2" x1="-1.417" y1="-34.996" x2="0.974" y2="-28.997" gradientUnits="objectBoundingBox">
      <stop offset="0" stop-color="#c36761"/>
      <stop offset="0.259" stop-color="#c56b56"/>
      <stop offset="0.699" stop-color="#cc763c"/>
      <stop offset="1" stop-color="#d38026"/>
    </linearGradient>
    <linearGradient id="linear-gradient-3" x1="-0.834" y1="-8.134" x2="0.008" y2="-6.739" xlink:href="#linear-gradient-2"/>
    <linearGradient id="linear-gradient-4" y1="0.5" x2="1" y2="0.5" gradientUnits="objectBoundingBox">
      <stop offset="0" stop-color="#f29027"/>
      <stop offset="0.195" stop-color="#f39a30"/>
      <stop offset="0.526" stop-color="#f7b44b"/>
      <stop offset="0.951" stop-color="#fee075"/>
      <stop offset="1" stop-color="#ffe67b"/>
    </linearGradient>
    <linearGradient id="linear-gradient-6" x1="0" y1="0.5" x2="1" y2="0.5" xlink:href="#linear-gradient-2"/>
    <linearGradient id="linear-gradient-10" x1="0.727" y1="-43.327" x2="3.119" y2="-36.301" xlink:href="#linear-gradient-2"/>
    <linearGradient id="linear-gradient-11" x1="-0.121" y1="-7.49" x2="0.841" y2="-6.271" xlink:href="#linear-gradient-2"/>
    <linearGradient id="linear-gradient-14" y1="0.5" x2="1" y2="0.5" gradientUnits="objectBoundingBox">
      <stop offset="0" stop-color="#5876ff"/>
      <stop offset="1" stop-color="#375bf9"/>
    </linearGradient>
    <linearGradient id="linear-gradient-15" x1="0.5" y1="0" x2="0.5" y2="1" xlink:href="#linear-gradient-14"/>
    <linearGradient id="linear-gradient-16" x1="-0.018" y1="0.518" x2="1.036" y2="0.518" gradientUnits="objectBoundingBox">
      <stop offset="0" stop-color="#34cc92"/>
      <stop offset="0.101" stop-color="#3aca97" stop-opacity="0.949"/>
      <stop offset="0.273" stop-color="#4cc5a5" stop-opacity="0.82"/>
      <stop offset="0.495" stop-color="#68bdbd" stop-opacity="0.604"/>
      <stop offset="0.756" stop-color="#90b3dd" stop-opacity="0.306"/>
      <stop offset="1" stop-color="#b9a8ff" stop-opacity="0"/>
    </linearGradient>
    <linearGradient id="linear-gradient-17" x1="1.754" y1="25.327" x2="4.846" y2="25.4" xlink:href="#linear-gradient-2"/>
    <linearGradient id="linear-gradient-18" x1="1.716" y1="4.383" x2="3.051" y2="4.394" xlink:href="#linear-gradient-2"/>
    <linearGradient id="linear-gradient-22" x1="0.569" y1="1.755" x2="1.455" y2="15.455" xlink:href="#linear-gradient-2"/>
    <linearGradient id="linear-gradient-23" x1="0.307" y1="0.011" x2="0.959" y2="1.066" xlink:href="#linear-gradient-2"/>
    <linearGradient id="linear-gradient-28" x1="0" y1="0.5" x2="1" y2="0.5" xlink:href="#linear-gradient-4"/>
  </defs>
  <g id="Group_163" data-name="Group 163" transform="translate(-169 -445)">
    <path id="Path_2" data-name="Path 2" d="M225,772.989V445H530l-.182,328.12-8.069,9.4-116.718,36.97a58.137,58.137,0,0,1-53.239.121L233.2,782.519Z" fill="url(#linear-gradient)" style="mix-blend-mode: hard-light;isolation: isolate"/>
    <g id="Group_162" data-name="Group 162">
      <g id="Group_35" data-name="Group 35">
        <g id="Group_16" data-name="Group 16">
          <g id="Group_15" data-name="Group 15" style="mix-blend-mode: normal;isolation: isolate">
            <g id="Group_6" data-name="Group 6">
              <path id="Path_3" data-name="Path 3" d="M393.651,873.526A39.46,39.46,0,0,0,405,874.962l-1.389,2.607a39.46,39.46,0,0,1-11.353-1.436Z" fill="#fede54"/>
            </g>
            <g id="Group_7" data-name="Group 7">
              <path id="Path_4" data-name="Path 4" d="M405,874.962c7.338-.23,12.413-2.975,14.674-7.219l-1.389,2.608c-2.261,4.244-7.336,6.988-14.674,7.218Z" fill="#fede54"/>
            </g>
            <g id="Group_8" data-name="Group 8">
              <path id="Path_5" data-name="Path 5" d="M364.841,853.422c5.707,9.264,17.248,17.005,28.81,20.1l-1.389,2.607c-11.562-3.1-23.1-10.839-28.81-20.1-3.782-6.139-4.291-11.794-2.058-15.985l1.389-2.608C360.55,841.628,361.059,847.283,364.841,853.422Z" fill="#fede54"/>
            </g>
            <g id="Group_9" data-name="Group 9">
              <path id="Path_6" data-name="Path 6" d="M361.394,840.044l1.389-2.607c2.26-4.243,7.33-6.987,14.661-7.217l-1.389,2.608C368.724,833.057,363.654,835.8,361.394,840.044Z" fill="#feeb98"/>
            </g>
            <g id="Group_10" data-name="Group 10">
              <path id="Path_7" data-name="Path 7" d="M356.774,835.6l1.388-2.608c2.993-5.618,9.708-9.25,19.415-9.555l-1.389,2.608C366.481,826.351,359.766,829.984,356.774,835.6Z" fill="url(#linear-gradient-2)"/>
            </g>
            <g id="Group_11" data-name="Group 11">
              <path id="Path_8" data-name="Path 8" d="M376.055,832.828c14.581-.457,32.567,9.194,40.177,21.547s1.965,22.737-12.617,23.194-32.554-9.187-40.163-21.54S361.482,833.284,376.055,832.828Z" fill="#feeb98"/>
            </g>
            <g id="Group_12" data-name="Group 12">
              <path id="Path_9" data-name="Path 9" d="M419.679,867.743l-1.389,2.607c2.231-4.189,1.721-9.839-2.058-15.975-7.61-12.353-25.6-22-40.177-21.547l1.389-2.608c14.581-.457,32.567,9.194,40.177,21.547C421.4,857.9,421.91,863.553,419.679,867.743Z" fill="#feeb98"/>
            </g>
            <g id="Group_13" data-name="Group 13">
              <path id="Path_10" data-name="Path 10" d="M433.481,873.1l-1.389,2.607c2.954-5.546,2.28-13.026-2.723-21.149-10.073-16.352-33.881-29.121-53.181-28.516l1.389-2.608c19.3-.6,43.107,12.164,53.18,28.517C435.761,860.079,436.435,867.559,433.481,873.1Z" fill="url(#linear-gradient-3)"/>
            </g>
            <g id="Group_14" data-name="Group 14">
              <path id="Path_11" data-name="Path 11" d="M376.188,826.047c19.3-.6,43.108,12.164,53.181,28.516s2.6,30.1-16.7,30.706-43.1-12.163-53.172-28.516S356.9,826.651,376.188,826.047Zm27.427,51.522c14.582-.457,20.226-10.841,12.617-23.194s-25.6-22-40.177-21.547-20.212,10.848-12.6,23.2,25.591,22,40.163,21.54" fill="#fede54"/>
            </g>
          </g>
        </g>
        <g id="Group_23" data-name="Group 23">
          <g id="Group_22" data-name="Group 22" style="mix-blend-mode: normal;isolation: isolate">
            <g id="Group_17" data-name="Group 17">
              <path id="Path_12" data-name="Path 12" d="M361.995,840.125l.463-.869c-2.5,4.691-1.936,11.016,2.288,17.874,8.5,13.8,28.66,24.608,44.933,24.1l-.463.869c-16.273.51-36.431-10.3-44.933-24.1C360.059,851.141,359.5,844.817,361.995,840.125Z" fill="#8c4d0b"/>
            </g>
            <g id="Group_18" data-name="Group 18">
              <path id="Path_13" data-name="Path 13" d="M426.081,873.143l-.463.869c-2.531,4.752-8.206,7.828-16.4,8.085l.463-.869C417.875,880.971,423.55,877.9,426.081,873.143Z" fill="#8c4d0b"/>
            </g>
            <g id="Group_19" data-name="Group 19">
              <path id="Path_14" data-name="Path 14" d="M359.863,838.99l.463-.869c2.7-5.069,8.75-8.349,17.489-8.622l-.463.869C368.613,830.642,362.562,833.922,359.863,838.99Z" fill="#8c4d0b"/>
            </g>
            <g id="Group_20" data-name="Group 20">
              <path id="Path_15" data-name="Path 15" d="M428.211,874.278l-.463.869c2.665-5,2.063-11.748-2.442-19.061-9.073-14.73-30.578-26.263-47.954-25.718l.463-.869c17.376-.545,38.881,10.988,47.954,25.718C430.274,862.53,430.876,869.275,428.211,874.278Z" fill="#8c4d0b"/>
            </g>
            <g id="Group_21" data-name="Group 21">
              <path id="Path_16" data-name="Path 16" d="M377.352,830.368c17.376-.545,38.881,10.988,47.954,25.718s2.319,27.142-15.058,27.686-38.872-10.989-47.941-25.711S359.984,830.912,377.352,830.368ZM409.216,882.1c16.282-.51,22.616-12.147,14.114-25.949s-28.665-24.615-44.946-24.1-22.6,12.154-14.1,25.956,28.66,24.608,44.933,24.1" fill="url(#linear-gradient-4)"/>
            </g>
          </g>
        </g>
        <g id="Group_34" data-name="Group 34">
          <g id="Group_33" data-name="Group 33" style="mix-blend-mode: normal;isolation: isolate">
            <g id="Group_24" data-name="Group 24">
              <path id="Path_17" data-name="Path 17" d="M375.74,857.06l.463-.869,5.295-1.451-.463.869Z" fill="#8c4d0b"/>
            </g>
            <g id="Group_25" data-name="Group 25">
              <path id="Path_18" data-name="Path 18" d="M394.336,856.478l.463-.869,3.34,9.326-.463.869Z" fill="#8c4d0b"/>
            </g>
            <g id="Group_26" data-name="Group 26">
              <path id="Path_19" data-name="Path 19" d="M416.148,865.224l.463-.869,2.607,7.31-.463.869Z" fill="#8c4d0b"/>
            </g>
            <g id="Group_27" data-name="Group 27">
              <path id="Path_20" data-name="Path 20" d="M397.676,865.8l.463-.869,18.472-.579-.463.869Z" fill="#8c4d0b"/>
            </g>
            <g id="Group_28" data-name="Group 28">
              <path id="Path_21" data-name="Path 21" d="M398.16,851l.463-.869,2.329,3.781-.463.869Z" fill="#8c4d0b"/>
            </g>
            <g id="Group_29" data-name="Group 29">
              <path id="Path_22" data-name="Path 22" d="M392.865,852.455l.463-.869,5.295-1.451-.463.869Z" fill="#8c4d0b"/>
            </g>
            <g id="Group_30" data-name="Group 30">
              <path id="Path_23" data-name="Path 23" d="M387.4,837.627l5.468,14.828L398.16,851l2.329,3.781-6.153,1.693,3.34,9.326,18.472-.579,2.607,7.31-31.112.975-5.14-13.869-4.428,1.208-2.333-3.788,5.295-1.45-6.412-17.583Z" fill="url(#linear-gradient-4)"/>
            </g>
            <g id="Group_31" data-name="Group 31">
              <path id="Path_24" data-name="Path 24" d="M387.4,837.627l.463-.869,5.468,14.828-.463.869Z" fill="#8c4d0b"/>
            </g>
            <g id="Group_32" data-name="Group 32">
              <path id="Path_25" data-name="Path 25" d="M374.623,838.027l.463-.869,12.774-.4-.463.869Z" fill="#8c4d0b"/>
            </g>
          </g>
        </g>
      </g>
      <g id="Group_59" data-name="Group 59">
        <g id="Group_45" data-name="Group 45">
          <g id="Group_44" data-name="Group 44" style="mix-blend-mode: normal;isolation: isolate">
            <g id="Group_36" data-name="Group 36">
              <path id="Path_26" data-name="Path 26" d="M367.212,890.7c-.034-.109-.069-.217-.106-.326q0-1.667.01-3.333c.037.108.072.217.106.325Q367.217,889.029,367.212,890.7Z" fill="#fede54"/>
            </g>
            <g id="Group_37" data-name="Group 37">
              <path id="Path_27" data-name="Path 27" d="M367.212,890.7a1.9,1.9,0,0,1,0-.272l.009-3.062a12.639,12.639,0,0,1,.581,3.7q0,1.667-.009,3.334A12.641,12.641,0,0,0,367.212,890.7Z" fill="#fede54"/>
            </g>
            <g id="Group_38" data-name="Group 38">
              <path id="Path_28" data-name="Path 28" d="M305.617,879.5c-7.032,4.086-10.552,9.434-10.567,14.79l.009-3.334c.015-5.356,3.536-10.7,10.568-14.79,14.155-8.226,37.189-8.232,51.438-.005,5.346,3.087,8.7,6.893,10.051,10.878q0,1.666-.01,3.333c-1.354-3.985-4.7-7.791-10.051-10.878C342.807,871.265,319.773,871.27,305.617,879.5Z" fill="#fede54"/>
            </g>
            <g id="Group_39" data-name="Group 39">
              <path id="Path_29" data-name="Path 29" d="M367.794,894.5v-.1q0-1.668.009-3.334v.1C367.8,892.162,367.8,893.495,367.794,894.5Z" fill="#fede54"/>
            </g>
            <g id="Group_40" data-name="Group 40">
              <path id="Path_30" data-name="Path 30" d="M367.8,891.161l-.009,3.334c-.015,5.359-3.538,10.709-10.571,14.8-14.156,8.227-37.181,8.227-51.438-.005-7.17-4.139-10.751-9.573-10.735-15l.009-3.334c-.015,5.425,3.566,10.859,10.735,15,14.257,8.231,37.283,8.231,51.438,0C364.266,901.87,367.788,896.52,367.8,891.161Z" fill="#feeb98"/>
            </g>
            <g id="Group_41" data-name="Group 41">
              <path id="Path_31" data-name="Path 31" d="M357.065,876.158c14.257,8.231,14.323,21.573.167,29.8s-37.181,8.227-51.438,0-14.323-21.564-.167-29.79S342.816,867.931,357.065,876.158Z" fill="#feeb98"/>
            </g>
            <g id="Group_42" data-name="Group 42">
              <path id="Path_32" data-name="Path 32" d="M380.3,892.566l-.01,3.334c-.02,7.091-4.682,14.172-13.992,19.582-18.739,10.89-49.217,10.9-68.087,0C288.72,910,283.98,902.809,284,895.626l.009-3.334c-.02,7.183,4.72,14.377,14.212,19.857,18.87,10.894,49.347,10.889,68.086,0C375.617,906.738,380.28,899.658,380.3,892.566Z" fill="url(#linear-gradient-6)"/>
            </g>
            <g id="Group_43" data-name="Group 43">
              <path id="Path_33" data-name="Path 33" d="M366.085,872.71c18.87,10.895,18.961,28.549.222,39.438s-49.216,10.9-68.086,0S279.26,883.6,298,872.711,347.224,861.821,366.085,872.71Zm-60.291,33.243c14.257,8.231,37.283,8.231,51.438,0s14.09-21.568-.167-29.8-37.283-8.221-51.438.005-14.081,21.563.167,29.79" fill="#fede54"/>
            </g>
          </g>
        </g>
        <g id="Group_50" data-name="Group 50">
          <g id="Group_49" data-name="Group 49" style="mix-blend-mode: normal;isolation: isolate">
            <g id="Group_46" data-name="Group 46">
              <path id="Path_34" data-name="Path 34" d="M372.1,892.339l0,1.111c.017-6.076-3.984-12.16-11.995-16.786-15.911-9.186-41.729-9.185-57.545.006-7.853,4.563-11.784,10.551-11.8,16.547l0-1.111c.017-6,3.948-11.984,11.8-16.548,15.816-9.191,41.635-9.191,57.545-.005C368.119,880.178,372.12,886.263,372.1,892.339Z" fill="#8c4d0b"/>
            </g>
            <g id="Group_47" data-name="Group 47">
              <path id="Path_35" data-name="Path 35" d="M374.829,892.346l0,1.112c-.018,6.4-4.215,12.786-12.6,17.66-16.871,9.8-44.407,9.8-61.4-.005-8.546-4.934-12.814-11.424-12.8-17.9l0-1.111c-.018,6.48,4.249,12.97,12.795,17.9,16.99,9.809,44.526,9.809,61.4,0C370.614,905.133,374.811,898.745,374.829,892.346Z" fill="#8c4d0b"/>
            </g>
            <g id="Group_48" data-name="Group 48">
              <path id="Path_36" data-name="Path 36" d="M362.028,874.438c16.99,9.809,17.08,25.759.2,35.568s-44.407,9.8-61.4,0-17.071-25.755-.2-35.559S345.047,864.633,362.028,874.438Zm-59.277,34.448c15.919,9.191,41.738,9.191,57.545.005s15.732-24.147-.188-33.338-41.729-9.186-57.545.005-15.723,24.142.188,33.328" fill="url(#linear-gradient-4)"/>
            </g>
          </g>
        </g>
        <g id="Group_58" data-name="Group 58">
          <g id="Group_57" data-name="Group 57" style="mix-blend-mode: normal;isolation: isolate">
            <g id="Group_51" data-name="Group 51">
              <path id="Path_37" data-name="Path 37" d="M323.607,897.115l0,1.111-6.571-14.443,0-1.111Z" fill="#8c4d0b"/>
            </g>
            <g id="Group_52" data-name="Group 52">
              <path id="Path_38" data-name="Path 38" d="M348.561,900.874l-24.955-3.759-6.571-14.443,41.411-5.8Z" fill="url(#linear-gradient-4)"/>
            </g>
            <g id="Group_53" data-name="Group 53">
              <path id="Path_39" data-name="Path 39" d="M348.561,900.874l0,1.111L323.6,898.227l0-1.111Z" fill="#8c4d0b"/>
            </g>
            <g id="Group_54" data-name="Group 54">
              <path id="Path_40" data-name="Path 40" d="M358.447,876.868l0,1.111-9.885,24.006,0-1.111Z" fill="#8c4d0b"/>
            </g>
            <g id="Group_55" data-name="Group 55">
              <path id="Path_41" data-name="Path 41" d="M347.438,903.12l0,1.111-39.491,3.1,0-1.111Z" fill="#8c4d0b"/>
            </g>
            <g id="Group_56" data-name="Group 56">
              <path id="Path_42" data-name="Path 42" d="M320.312,899.03l27.126,4.09-39.491,3.1,5.224-22.88Z" fill="url(#linear-gradient-4)"/>
            </g>
          </g>
        </g>
      </g>
      <path id="Path_43" data-name="Path 43" d="M595.265,719.5a46.19,46.19,0,0,1,.013,15.657A57.468,57.468,0,0,1,590.5,750.1a80.8,80.8,0,0,1-8.1,13.472,112.239,112.239,0,0,1-10.2,11.976A169.707,169.707,0,0,1,548.153,795.8a252.873,252.873,0,0,1-26.845,16.409,366.406,366.406,0,0,1-57.958,24.436A466.608,466.608,0,0,1,339.7,858.993a359.943,359.943,0,0,1-62.981-2.65,253.745,253.745,0,0,1-30.99-6.155,170.824,170.824,0,0,1-29.768-10.77,113.567,113.567,0,0,1-13.857-7.8,82.12,82.12,0,0,1-12.445-10.007,58.8,58.8,0,0,1-9.869-12.667,45.872,45.872,0,0,1-5.525-31.284,58.8,58.8,0,0,1,4.938-15.281,82.161,82.161,0,0,1,8.27-13.662,113.59,113.59,0,0,1,10.349-12.075,170.953,170.953,0,0,1,24.286-20.308,253.9,253.9,0,0,1,27.013-16.389,359.068,359.068,0,0,1,58.269-24.05,466.542,466.542,0,0,1,123.836-21.313,365.966,365.966,0,0,1,62.821,3.129,252.689,252.689,0,0,1,30.84,6.23,169.777,169.777,0,0,1,29.529,10.791,112.411,112.411,0,0,1,13.68,7.763,80.8,80.8,0,0,1,12.218,9.888,57.463,57.463,0,0,1,9.6,12.406A46.185,46.185,0,0,1,595.265,719.5Zm0,0a46.133,46.133,0,0,0-5.392-14.69,57.369,57.369,0,0,0-9.633-12.358,80.629,80.629,0,0,0-12.231-9.831,112.074,112.074,0,0,0-13.684-7.706A169.58,169.58,0,0,0,524.8,664.24a252.467,252.467,0,0,0-30.816-6.119,358.225,358.225,0,0,0-62.73-2.637A465.109,465.109,0,0,0,308,677.77a365.32,365.32,0,0,0-57.727,24.339,251.147,251.147,0,0,0-26.692,16.315,168.268,168.268,0,0,0-23.85,20.073,110.878,110.878,0,0,0-10.069,11.825,79.445,79.445,0,0,0-7.954,13.233,56.059,56.059,0,0,0-4.662,14.572,43.782,43.782,0,0,0,5.188,29.426,56,56,0,0,0,9.368,12.1,79.347,79.347,0,0,0,12,9.712,110.656,110.656,0,0,0,13.508,7.665,168.352,168.352,0,0,0,29.28,10.7,251.275,251.275,0,0,0,30.666,6.194,364.323,364.323,0,0,0,62.57,3.117,465.158,465.158,0,0,0,123.447-21.249,357.942,357.942,0,0,0,58.038-23.951,252.441,252.441,0,0,0,26.861-16.3,169.525,169.525,0,0,0,24.083-20.136,112.129,112.129,0,0,0,10.22-11.924,80.681,80.681,0,0,0,8.128-13.423,57.4,57.4,0,0,0,4.822-14.909A46.162,46.162,0,0,0,595.265,719.5Z" fill="#dfd3f5"/>
      <path id="Path_44" data-name="Path 44" d="M511.746,709.224a18.356,18.356,0,0,1-.893,9.349,32.454,32.454,0,0,1-4.549,8.293,67.353,67.353,0,0,1-13.684,13.079c-10.2,7.53-21.543,13.348-33.142,18.387a299.444,299.444,0,0,1-35.814,12.573c-12.173,3.486-24.543,6.26-37,8.52-12.47,2.19-25.038,3.868-37.672,4.809a299.734,299.734,0,0,1-37.982.594c-12.642-.717-25.319-2.25-37.545-5.8a67.858,67.858,0,0,1-17.494-7.6,33,33,0,0,1-7.262-6.32,17.97,17.97,0,0,1-3.246-18.372,33,33,0,0,1,4.662-8.425,67.873,67.873,0,0,1,13.838-13.127c10.273-7.521,21.66-13.3,33.294-18.3a299.614,299.614,0,0,1,35.892-12.441c12.192-3.439,24.575-6.164,37.043-8.374,12.479-2.141,25.052-3.768,37.683-4.658a299.515,299.515,0,0,1,37.955-.443c12.623.765,25.273,2.35,37.433,5.934A67.407,67.407,0,0,1,500.6,694.51a32.412,32.412,0,0,1,7.112,6.235A18.358,18.358,0,0,1,511.746,709.224Zm0,0a18.345,18.345,0,0,0-4.068-8.455,32.411,32.411,0,0,0-7.124-6.2,67.268,67.268,0,0,0-17.337-7.524c-12.155-3.531-24.8-5.063-37.406-5.776a299.09,299.09,0,0,0-37.9.593c-12.611.94-25.16,2.615-37.612,4.8-12.439,2.256-24.79,5.026-36.942,8.507a298.833,298.833,0,0,0-35.74,12.548c-11.569,5.025-22.88,10.829-33.019,18.316a66.794,66.794,0,0,0-13.56,12.956,31.892,31.892,0,0,0-4.461,8.128,17,17,0,0,0,3.04,17.247,31.86,31.86,0,0,0,6.974,6.111,66.849,66.849,0,0,0,17.177,7.534c12.089,3.564,24.7,5.146,37.294,5.909a298.862,298.862,0,0,0,37.877-.443c12.609-.888,25.162-2.513,37.622-4.65,12.449-2.207,24.813-4.928,36.984-8.362a298.942,298.942,0,0,0,35.818-12.415c11.6-4.986,22.958-10.752,33.171-18.23a67.316,67.316,0,0,0,13.714-13,32.406,32.406,0,0,0,4.573-8.26A18.343,18.343,0,0,0,511.746,709.224Z" fill="#dfd3f5"/>
      <g id="Group_88" data-name="Group 88">
        <g id="Group_70" data-name="Group 70">
          <g id="Group_69" data-name="Group 69" style="mix-blend-mode: normal;isolation: isolate">
            <g id="Group_60" data-name="Group 60">
              <path id="Path_45" data-name="Path 45" d="M302.888,792.232a44.272,44.272,0,0,0,12.5,2.943l-1.858,2.747a44.31,44.31,0,0,1-12.5-2.944Q301.958,793.605,302.888,792.232Z" fill="#fede54"/>
            </g>
            <g id="Group_61" data-name="Group 61">
              <path id="Path_46" data-name="Path 46" d="M273.1,766.392c5.275,11.014,17.248,21.016,29.789,25.84l-1.858,2.746c-12.541-4.824-24.514-14.826-29.789-25.84-3.5-7.3-3.4-13.668-.41-18.081l1.858-2.746C269.7,752.724,269.6,759.092,273.1,766.392Z" fill="#fede54"/>
            </g>
            <g id="Group_62" data-name="Group 62">
              <path id="Path_47" data-name="Path 47" d="M315.391,795.175c8.214.61,14.2-1.855,17.228-6.326l-1.858,2.746c-3.025,4.472-9.014,6.936-17.228,6.327C314.091,797.1,314.834,796,315.391,795.175Z" fill="#fede54"/>
            </g>
            <g id="Group_63" data-name="Group 63">
              <path id="Path_48" data-name="Path 48" d="M270.83,751.058l1.858-2.747c3.025-4.471,9.014-6.935,17.226-6.325l-1.858,2.746C279.844,744.122,273.855,746.586,270.83,751.058Z" fill="#feeb98"/>
            </g>
            <g id="Group_64" data-name="Group 64">
              <path id="Path_49" data-name="Path 49" d="M261.955,743.955l1.858-2.746c4-5.917,11.926-9.179,22.8-8.372l-1.858,2.746C273.881,734.777,265.958,738.038,261.955,743.955Z" fill="url(#linear-gradient-10)"/>
            </g>
            <g id="Group_65" data-name="Group 65">
              <path id="Path_50" data-name="Path 50" d="M332.619,788.849l-1.858,2.746c2.985-4.412,3.086-10.777-.408-18.071-7.038-14.694-25.978-27.581-42.3-28.792l1.858-2.746c16.319,1.211,35.259,14.1,42.3,28.792C335.7,778.072,335.6,784.437,332.619,788.849Z" fill="#feeb98"/>
            </g>
            <g id="Group_66" data-name="Group 66">
              <path id="Path_51" data-name="Path 51" d="M284.751,735.583c21.6,1.6,46.666,18.665,55.977,38.106s-.653,33.9-22.254,32.3-46.666-18.665-55.977-38.106S263.15,733.98,284.751,735.583Zm28.782,62.339c16.318,1.211,23.854-9.712,16.82-24.4s-25.978-27.581-42.3-28.792-23.854,9.711-16.815,24.406,25.974,27.573,42.292,28.784" fill="#fede54"/>
            </g>
            <g id="Group_67" data-name="Group 67">
              <path id="Path_52" data-name="Path 52" d="M288.056,744.732c16.319,1.211,35.259,14.1,42.3,28.792s-.5,25.609-16.82,24.4-35.258-14.1-42.292-28.784S271.738,743.521,288.056,744.732Z" fill="#feeb98"/>
            </g>
            <g id="Group_68" data-name="Group 68">
              <path id="Path_53" data-name="Path 53" d="M343.129,794.871l-1.858,2.746c3.952-5.841,4.083-14.27-.543-23.928-9.311-19.441-34.375-36.5-55.977-38.106l1.858-2.746c21.6,1.6,46.666,18.665,55.977,38.106C347.212,780.6,347.081,789.03,343.129,794.871Z" fill="url(#linear-gradient-11)"/>
            </g>
          </g>
        </g>
        <g id="Group_77" data-name="Group 77">
          <g id="Group_76" data-name="Group 76" style="mix-blend-mode: normal;isolation: isolate">
            <g id="Group_71" data-name="Group 71">
              <path id="Path_54" data-name="Path 54" d="M266.9,750.079l.619-.915c-3.341,4.938-3.458,12.061.447,20.212,7.859,16.408,29.076,30.858,47.308,32.21l-.619.916c-18.233-1.353-39.449-15.8-47.309-32.21C263.447,762.14,263.564,755.018,266.9,750.079Z" fill="#8c4d0b"/>
            </g>
            <g id="Group_72" data-name="Group 72">
              <path id="Path_55" data-name="Path 55" d="M334.534,794.5l-.619.916c-3.386,5-10.081,7.768-19.255,7.087l.619-.916C324.454,802.267,331.148,799.5,334.534,794.5Z" fill="#8c4d0b"/>
            </g>
            <g id="Group_73" data-name="Group 73">
              <path id="Path_56" data-name="Path 56" d="M264.657,748.559l.62-.916c3.612-5.339,10.755-8.289,20.542-7.563l-.62.916C275.413,740.27,268.27,743.219,264.657,748.559Z" fill="#8c4d0b"/>
            </g>
            <g id="Group_74" data-name="Group 74">
              <path id="Path_57" data-name="Path 57" d="M336.775,796.015l-.619.916c3.566-5.272,3.693-12.873-.472-21.568C327.3,757.86,304.648,742.439,285.2,741l.62-.916c19.448,1.444,42.1,16.865,50.485,34.367C340.469,783.142,340.342,790.744,336.775,796.015Z" fill="#8c4d0b"/>
            </g>
            <g id="Group_75" data-name="Group 75">
              <path id="Path_58" data-name="Path 58" d="M285.2,741c19.449,1.443,42.1,16.864,50.485,34.367s-.622,30.574-20.071,29.13-42.1-16.864-50.485-34.366S265.751,739.553,285.2,741ZM314.66,802.5c18.232,1.353,26.671-10.9,18.811-27.3S304.39,744.349,286.158,743s-26.666,10.888-18.807,27.3,29.076,30.857,47.309,32.21" fill="url(#linear-gradient-4)"/>
            </g>
          </g>
        </g>
        <g id="Group_87" data-name="Group 87">
          <g id="Group_86" data-name="Group 86" style="mix-blend-mode: normal;isolation: isolate">
            <g id="Group_78" data-name="Group 78">
              <path id="Path_59" data-name="Path 59" d="M301.786,787.3l-.619.915c1.04-1.537,1.088-3.752-.137-6.309a13.675,13.675,0,0,0-2.067-2.991l.619-.915a13.635,13.635,0,0,1,2.068,2.991C302.874,783.546,302.826,785.761,301.786,787.3Z" fill="#8c4d0b"/>
            </g>
            <g id="Group_79" data-name="Group 79">
              <path id="Path_60" data-name="Path 60" d="M280.223,774.045l.619-.916c1.053-1.556,3.131-2.424,6.014-2.21a19.071,19.071,0,0,1,9.237,3.748l-.619.915a19.085,19.085,0,0,0-9.237-3.748C283.354,771.62,281.276,772.488,280.223,774.045Z" fill="#8c4d0b"/>
            </g>
            <g id="Group_80" data-name="Group 80">
              <path id="Path_61" data-name="Path 61" d="M299.651,772.438l-.619.915c-.4.6-1.544,1.019-3.558,2.229l.619-.915C298.107,773.457,299.248,773.034,299.651,772.438Z" fill="#8c4d0b"/>
            </g>
            <g id="Group_81" data-name="Group 81">
              <path id="Path_62" data-name="Path 62" d="M300.889,767.92l.619-.915c3.442,7.186.821,4.6,9.5,8.769l-.62.915C301.71,772.524,304.331,775.106,300.889,767.92Z" fill="#8c4d0b"/>
            </g>
            <g id="Group_82" data-name="Group 82">
              <path id="Path_63" data-name="Path 63" d="M310.511,776.495l.62-.915c1.1-1.625,3.187-2.623,6.209-2.4,5.622.417,12.225,4.991,14.653,10.06,1.24,2.588,1.21,4.829.167,6.371l-.619.916c1.043-1.542,1.073-3.783-.167-6.372-2.428-5.069-9.032-9.643-14.654-10.06C313.7,773.872,311.61,774.871,310.511,776.495Z" fill="#8c4d0b"/>
            </g>
            <g id="Group_83" data-name="Group 83">
              <path id="Path_64" data-name="Path 64" d="M283.979,751.627l.62-.916c1.065-1.575,3.174-2.436,6.02-2.225L290,749.4C287.153,749.19,285.045,750.052,283.979,751.627Z" fill="#8c4d0b"/>
            </g>
            <g id="Group_84" data-name="Group 84">
              <path id="Path_65" data-name="Path 65" d="M305.557,764.855l-.619.915c1.04-1.536,1.07-3.762-.145-6.3-2.484-5.185-9.042-9.643-14.793-10.07l.619-.915c5.752.427,12.31,4.885,14.793,10.07C306.627,761.093,306.6,763.318,305.557,764.855Z" fill="#8c4d0b"/>
            </g>
            <g id="Group_85" data-name="Group 85">
              <path id="Path_66" data-name="Path 66" d="M290,749.4c5.751.427,12.309,4.885,14.793,10.07,2.144,4.477.41,7.982-3.9,8.449,3.442,7.186.821,4.6,9.5,8.769,1.062-1.738,3.194-2.826,6.334-2.593,5.622.417,12.226,4.991,14.654,10.06,2.479,5.176-.12,8.964-5.742,8.546-5.761-.427-12.314-4.893-14.793-10.07a8.071,8.071,0,0,1-.891-2.9c-4.023-1.947-5.544-2.884-6.672-2.967s-1.862.686-4.313,2.152a13.675,13.675,0,0,1,2.067,2.991c2.48,5.177-.259,8.953-5.881,8.536-5.762-.427-12.314-4.894-14.793-10.07-2.428-5.069.119-8.963,5.881-8.536a19.085,19.085,0,0,1,9.237,3.748c4.7-2.826,4.646-1.359,1.548-7.827-5.23-1.185-10.7-5.225-12.9-9.818C281.635,752.752,284.378,748.984,290,749.4Z" fill="url(#linear-gradient-4)"/>
            </g>
          </g>
        </g>
      </g>
      <g id="Group_89" data-name="Group 89">
        <path id="Path_67" data-name="Path 67" d="M555.577,733.26a67.848,67.848,0,0,1-10.591,22.18,109.091,109.091,0,0,1-14.867,16.74,158.39,158.39,0,0,1-16.605,13.38,230.939,230.939,0,0,1-35.838,20.39,307.6,307.6,0,0,1-37.8,14.49c-6.4,2.03-12.879,3.76-19.363,5.45-3.248.79-6.505,1.57-9.772,2.29-3.277.68-6.534,1.44-9.821,2.04a348.736,348.736,0,0,1-80.029,6.35c-3.377-.1-6.764-.38-10.131-.57-1.7-.13-3.387-.31-5.076-.46s-3.377-.31-5.075-.53c-6.764-.71-13.528-1.86-20.282-3.16-13.508-2.82-27.036-6.66-40.195-13.22a93.471,93.471,0,0,1-19.1-12.41l-1.129-.96-1.1-1.05-2.188-2.13c-.729-.68-1.4-1.54-2.1-2.3-.679-.8-1.379-1.56-2.028-2.39l-1.9-2.61-.93-1.3-.839-1.43-1.638-2.86c-.5-.99-.939-2.04-1.4-3.06a41.1,41.1,0,0,1-3.447-17.91.569.569,0,0,1,.01-.13,38.948,38.948,0,0,1,1.119-8.29,48.956,48.956,0,0,1,4.406-11.52,57.428,57.428,0,0,1,6.354-9.52,87.141,87.141,0,0,1,15.447-14.54,128.012,128.012,0,0,1,17.145-10.64,171.952,171.952,0,0,1,36.547-13.87,296.819,296.819,0,0,0-30.253,23.07,143.1,143.1,0,0,0-12.859,12.98c-1.928,2.28-3.756,4.57-5.425,6.91a63.763,63.763,0,0,0-4.366,7.14,32.477,32.477,0,0,0-4.156,13.84,17.737,17.737,0,0,0,3.087,10.86c.28.39.509.79.8,1.18.34.38.66.76.979,1.14l.47.57.57.55,1.109,1.11c.389.37.849.71,1.258,1.07.45.35.8.73,1.3,1.05l1.429,1.01.7.51.78.47a70.467,70.467,0,0,0,13.937,6.6c10.221,3.65,21.661,5.82,33.251,7.19a282.246,282.246,0,0,0,35.508,1.64,415.022,415.022,0,0,0,71.877-7.65c11.9-2.26,23.679-5.04,35.259-8.33a343.551,343.551,0,0,0,34.039-11.46l4.137-1.66,4.076-1.75c1.379-.57,2.708-1.19,4.046-1.8s2.708-1.2,4.007-1.85q7.958-3.795,15.436-8.12a138.8,138.8,0,0,0,14.108-9.31,86.276,86.276,0,0,0,11.809-10.54,42.135,42.135,0,0,0,7.564-11.21c.239-.46.319-.9.509-1.35a9.3,9.3,0,0,0,.45-1.35q.15-.645.329-1.32a7.643,7.643,0,0,0,.21-1.3,15.879,15.879,0,0,0-.07-5.28,23.782,23.782,0,0,0-5.9-11.16,46.654,46.654,0,0,0-5.624-5.38,73.693,73.693,0,0,0-6.825-4.86,111.125,111.125,0,0,0-15.736-8.19,180.282,180.282,0,0,0-17.334-6.44,367.97,367.97,0,0,0-36.967-9.31,193.918,193.918,0,0,1,38.975-1.6c13.158.81,26.457,3,39.675,7.99a79.668,79.668,0,0,1,12.569,6.08,68.743,68.743,0,0,1,6.784,4.65,49.926,49.926,0,0,1,8.7,8.62,44.027,44.027,0,0,1,6.584,11.51A45.152,45.152,0,0,1,555.577,733.26Z" fill="url(#linear-gradient-14)"/>
        <path id="Path_69" data-name="Path 69" d="M555.577,733.26a67.848,67.848,0,0,1-10.591,22.18,109.091,109.091,0,0,1-14.867,16.74,158.39,158.39,0,0,1-16.605,13.38,230.939,230.939,0,0,1-35.838,20.39,307.6,307.6,0,0,1-37.8,14.49c-6.4,2.03-12.879,3.76-19.363,5.45-3.248.79-6.505,1.57-9.772,2.29-3.277.68-6.534,1.44-9.821,2.04a348.736,348.736,0,0,1-80.029,6.35c-3.377-.1-6.764-.38-10.131-.57-1.7-.13-3.387-.31-5.076-.46s-3.377-.31-5.075-.53c-6.764-.71-13.528-1.86-20.282-3.16-13.508-2.82-27.036-6.66-40.195-13.22a93.471,93.471,0,0,1-19.1-12.41l-1.129-.96-1.1-1.05-2.188-2.13c-.729-.68-1.4-1.54-2.1-2.3-.679-.8-1.379-1.56-2.028-2.39l-1.9-2.61-.93-1.3-.839-1.43-1.638-2.86c-.5-.99-.939-2.04-1.4-3.06a41.1,41.1,0,0,1-3.447-17.91,32.036,32.036,0,0,0,5.255,18.32l.14.21.13.2c.26.41.52.82.8,1.22l.31.42.33.4c.28.31.539.63.8.95l.889,1.14,1,.99,1.249,1.31.17.16c.42.41.879.81,1.349,1.2.1.09.21.18.31.27l.2.17.119.1.09.08a17.277,17.277,0,0,0,1.969,1.61l1.338.98,1.079.82,1.129.7a84.318,84.318,0,0,0,17.145,8.44c10.721,3.97,23.28,6.81,38.416,8.67a300.472,300.472,0,0,0,34.709,1.96c1.739,0,3.477-.01,5.216-.04a444.285,444.285,0,0,0,79.749-8.8c13.179-2.59,26.347-5.82,39.126-9.59A373.452,373.452,0,0,0,473.3,786.86l4.746-1.98,4.326-1.94c1.409-.6,2.718-1.22,3.976-1.81l.7-.33c.569-.28,1.059-.51,1.548-.73,1.029-.48,2.058-.97,3.068-1.48,6.164-3.07,12.029-6.27,17.414-9.51a163.64,163.64,0,0,0,16.336-11.2,104.5,104.5,0,0,0,14.3-13.27,58.733,58.733,0,0,0,10.061-15.5,15.686,15.686,0,0,0,.789-2.14l.11-.28.06-.18a15.81,15.81,0,0,0,.85-2.91c.039-.16.069-.31.109-.46a14.652,14.652,0,0,0,.57-3.1,30.651,30.651,0,0,0-.14-9.51,38.4,38.4,0,0,0-8.942-18.02,62.739,62.739,0,0,0-7.4-7.35c-2.248-1.86-4.536-3.58-6.834-5.16,1.079.46,2.138.94,3.167,1.45a68.743,68.743,0,0,1,6.784,4.65,49.926,49.926,0,0,1,8.7,8.62,44.027,44.027,0,0,1,6.584,11.51A45.152,45.152,0,0,1,555.577,733.26Z" fill="url(#linear-gradient-15)"/>
        <path id="Path_70" data-name="Path 70" d="M440.887,668.983a255.318,255.318,0,0,1,38.006,3.735A169.2,169.2,0,0,1,497.5,677.1a116.717,116.717,0,0,1,17.858,6.833,68.1,68.1,0,0,1,15.966,10.51A36.894,36.894,0,0,1,542,710.194a29.089,29.089,0,0,1,1.447,9.489,29.714,29.714,0,0,1-.371,4.8,18.668,18.668,0,0,1-.477,2.359c-.2.777-.323,1.576-.587,2.334a53.212,53.212,0,0,1-9.115,16.8,94.66,94.66,0,0,1-13.362,13.7,148.1,148.1,0,0,1-15.38,11.394,231.066,231.066,0,0,1-33.81,17.856,320.839,320.839,0,0,1-35.956,13.03A383.47,383.47,0,0,1,321.168,818a265.913,265.913,0,0,1-38.1-3.228c-12.566-2.116-25.075-5.142-36.8-10.281a79.5,79.5,0,0,1-16.573-9.565l-.959-.721-.906-.789-1.812-1.578c-.618-.511-1.133-1.133-1.705-1.693-.55-.583-1.133-1.135-1.656-1.742l-1.51-1.874-.754-.937-.658-1.009-1.314-2.018c-.39-.7-.733-1.429-1.1-2.142a30.1,30.1,0,0,1-2.7-18.755,44.694,44.694,0,0,1,7.52-17.522,76.153,76.153,0,0,1,5.937-7.514c2.152-2.358,4.4-4.628,6.76-6.775a138.183,138.183,0,0,1,15.052-11.78,219.927,219.927,0,0,1,33.47-18.368,219.7,219.7,0,0,0-33.332,18.57,137.835,137.835,0,0,0-14.942,11.849c-2.339,2.154-4.562,4.429-6.688,6.789a75.731,75.731,0,0,0-5.852,7.5,44.363,44.363,0,0,0-7.394,17.336,29.544,29.544,0,0,0,2.686,18.41c.364.7.7,1.414,1.087,2.1l1.3,1.982.649.991.746.921,1.491,1.843c.516.6,1.094,1.141,1.638,1.715.565.552,1.073,1.164,1.686,1.667l1.794,1.556.9.778.952.711a78.824,78.824,0,0,0,16.459,9.448c11.656,5.082,24.122,8.071,36.648,10.151a265.125,265.125,0,0,0,37.995,3.134,393.938,393.938,0,0,0,112.947-16.079,320.083,320.083,0,0,0,35.887-12.916,230.289,230.289,0,0,0,33.734-17.72,147.516,147.516,0,0,0,15.329-11.3,93.959,93.959,0,0,0,13.3-13.576A52.558,52.558,0,0,0,541.417,729c.263-.746.383-1.531.582-2.294a18.243,18.243,0,0,0,.474-2.317,29.163,29.163,0,0,0,.374-4.709,28.5,28.5,0,0,0-1.4-9.307,36.349,36.349,0,0,0-10.489-15.532,68.117,68.117,0,0,0-15.819-10.471,116.434,116.434,0,0,0-17.749-6.92,168.834,168.834,0,0,0-18.544-4.492A255.21,255.21,0,0,0,440.887,668.983Z" fill="#ef7911"/>
      </g>
      <path id="Path_71" data-name="Path 71" d="M465.309,860.361a7,7,0,0,1-2.709-13.7c.82-.228,82.516-23.355,127.045-70.291a7,7,0,0,1,10.156,9.636c-47.234,49.787-129.956,73.173-133.455,74.144A7.032,7.032,0,0,1,465.309,860.361Z" fill="url(#linear-gradient-16)"/>
      <circle id="Ellipse_3" data-name="Ellipse 3" cx="7" cy="7" r="7" transform="translate(456.046 847.087)" fill="#53e0c4"/>
      <circle id="Ellipse_4" data-name="Ellipse 4" cx="7" cy="7" r="7" transform="translate(169 780)" fill="#4159e0"/>
      <circle id="Ellipse_5" data-name="Ellipse 5" cx="7" cy="7" r="7" transform="translate(409 766)" fill="#fede54"/>
      <g id="Group_118" data-name="Group 118">
        <g id="Group_99" data-name="Group 99">
          <g id="Group_98" data-name="Group 98" style="mix-blend-mode: normal;isolation: isolate">
            <g id="Group_90" data-name="Group 90">
              <path id="Path_72" data-name="Path 72" d="M483.7,693.129c4.232-10.308,3.594-19.06-.86-24.9l2.771,3.631c4.454,5.836,5.093,14.588.86,24.9-8.52,20.751-33.556,39.963-55.9,42.911l-2.771-3.631C450.14,733.092,475.176,713.88,483.7,693.129Z" fill="#fede54"/>
            </g>
            <g id="Group_91" data-name="Group 91">
              <path id="Path_73" data-name="Path 73" d="M403.6,728.692c4.512,5.913,12.943,8.832,24.192,7.348l2.771,3.631c-11.249,1.484-19.68-1.435-24.192-7.348C405.54,731.234,404.431,729.782,403.6,728.692Z" fill="#fede54"/>
            </g>
            <g id="Group_92" data-name="Group 92">
              <path id="Path_74" data-name="Path 74" d="M482.836,668.233l2.771,3.631c-4.512-5.912-12.939-8.832-24.185-7.349l-2.771-3.631C469.9,659.4,478.324,662.321,482.836,668.233Z" fill="#feeb98"/>
            </g>
            <g id="Group_93" data-name="Group 93">
              <path id="Path_75" data-name="Path 75" d="M505.318,657.931l2.771,3.631c-5.971-7.823-17.124-11.686-32.011-9.723l-2.771-3.63C488.194,646.245,499.347,650.108,505.318,657.931Z" fill="url(#linear-gradient-17)"/>
            </g>
            <g id="Group_94" data-name="Group 94">
              <path id="Path_76" data-name="Path 76" d="M461.422,664.515c22.348-2.948,33.565,11.495,25.045,32.245s-33.556,39.963-55.9,42.911-33.57-11.481-25.05-32.232S439.074,667.463,461.422,664.515Z" fill="#feeb98"/>
            </g>
            <g id="Group_95" data-name="Group 95">
              <path id="Path_77" data-name="Path 77" d="M406.372,732.324l-2.772-3.631c-4.452-5.833-5.09-14.579-.858-24.885,8.52-20.75,33.561-39.975,55.909-42.924l2.771,3.631c-22.348,2.948-47.389,22.174-55.909,42.924C401.282,717.745,401.92,726.491,406.372,732.324Z" fill="#feeb98"/>
            </g>
            <g id="Group_96" data-name="Group 96">
              <path id="Path_78" data-name="Path 78" d="M403.221,741.6l-2.771-3.63c-5.9-7.724-6.738-19.306-1.135-32.952,11.278-27.469,44.409-52.9,73.992-56.807l2.771,3.63c-29.583,3.9-62.713,29.339-73.992,56.808C396.483,722.293,397.326,733.875,403.221,741.6Z" fill="url(#linear-gradient-18)"/>
            </g>
            <g id="Group_97" data-name="Group 97">
              <path id="Path_79" data-name="Path 79" d="M476.078,651.839c29.583-3.9,44.425,15.206,33.146,42.674s-44.409,52.905-73.992,56.807-44.424-15.205-33.146-42.673S446.495,655.742,476.078,651.839Zm-45.515,87.832c22.348-2.948,47.384-22.16,55.9-42.911s-2.7-35.193-25.045-32.245-47.389,22.174-55.909,42.924,2.7,35.18,25.05,32.232" fill="#fede54"/>
            </g>
          </g>
        </g>
        <g id="Group_106" data-name="Group 106">
          <g id="Group_105" data-name="Group 105" style="mix-blend-mode: normal;isolation: isolate">
            <g id="Group_100" data-name="Group 100">
              <path id="Path_80" data-name="Path 80" d="M498.1,669.329l.924,1.21c4.986,6.533,5.706,16.325.976,27.846-9.514,23.171-37.559,44.711-62.527,48.005l-.924-1.21c24.969-3.294,53.013-24.834,62.527-48.006C503.81,685.654,503.089,675.861,498.1,669.329Z" fill="#8c4d0b"/>
            </g>
            <g id="Group_101" data-name="Group 101">
              <path id="Path_81" data-name="Path 81" d="M410.433,738.155l-.924-1.21c5.051,6.617,14.476,9.892,27.043,8.235l.924,1.21C424.909,748.048,415.483,744.772,410.433,738.155Z" fill="#8c4d0b"/>
            </g>
            <g id="Group_102" data-name="Group 102">
              <path id="Path_82" data-name="Path 82" d="M501.07,667.066l.923,1.21c-5.386-7.057-15.438-10.548-28.839-8.78l-.924-1.21C485.631,656.518,495.683,660.009,501.07,667.066Z" fill="#8c4d0b"/>
            </g>
            <g id="Group_103" data-name="Group 103">
              <path id="Path_83" data-name="Path 83" d="M407.467,740.418l-.924-1.21c-5.317-6.967-6.089-17.406-1.045-29.689,10.159-24.743,40.1-47.72,66.732-51.233l.924,1.21c-26.635,3.514-56.573,26.49-66.733,51.234C401.378,723.012,402.15,733.451,407.467,740.418Z" fill="#8c4d0b"/>
            </g>
            <g id="Group_104" data-name="Group 104">
              <path id="Path_84" data-name="Path 84" d="M473.154,659.5c26.634-3.513,40.039,13.745,29.88,38.489S462.955,745.69,436.32,749.2s-40.053-13.744-29.9-38.474S446.519,663.01,473.154,659.5ZM437.476,746.39c24.968-3.294,53.013-24.834,62.527-48.005S496.967,659.016,472,662.31s-53.027,24.835-62.546,48.02,3.055,39.354,28.024,36.06" fill="url(#linear-gradient-4)"/>
            </g>
          </g>
        </g>
        <g id="Group_117" data-name="Group 117">
          <g id="Group_115" data-name="Group 115">
            <g id="Group_114" data-name="Group 114" style="mix-blend-mode: normal;isolation: isolate">
              <g id="Group_107" data-name="Group 107">
                <path id="Path_85" data-name="Path 85" d="M464.954,712.256l-.924-1.21,15.052-20.557.924,1.21Z" fill="#8c4d0b"/>
              </g>
              <g id="Group_108" data-name="Group 108">
                <path id="Path_86" data-name="Path 86" d="M495.221,678.946l.924,1.21c-.916-1.2-2.791-1.7-5.6-1.334l-.923-1.21C492.43,677.242,494.3,677.746,495.221,678.946Z" fill="#8c4d0b"/>
              </g>
              <g id="Group_109" data-name="Group 109">
                <path id="Path_87" data-name="Path 87" d="M427.331,717.219l-.924-1.21,37.624-4.963.924,1.21Z" fill="#8c4d0b"/>
              </g>
              <g id="Group_110" data-name="Group 110">
                <path id="Path_88" data-name="Path 88" d="M417.976,730.095l-.924-1.21,9.354-12.876.924,1.21Z" fill="#8c4d0b"/>
              </g>
              <g id="Group_111" data-name="Group 111">
                <path id="Path_89" data-name="Path 89" d="M442.382,696.662l-.924-1.21,9.286-12.711.924,1.21Z" fill="#8c4d0b"/>
              </g>
              <g id="Group_112" data-name="Group 112">
                <path id="Path_90" data-name="Path 90" d="M451.668,683.951l-.924-1.21,38.88-5.129.924,1.21Z" fill="#8c4d0b"/>
              </g>
              <g id="Group_113" data-name="Group 113">
                <path id="Path_91" data-name="Path 91" d="M490.548,678.822c3.4-.448,5.433.387,6.049,2.188s-.195,4.594-2.5,7.727l-16.965,23.172a37.215,37.215,0,0,1-9.491,8.649,27.3,27.3,0,0,1-10.784,4.408l-38.88,5.129,9.354-12.876,37.624-4.963L480.006,691.7l-37.624,4.963,9.286-12.711Z" fill="url(#linear-gradient-4)"/>
              </g>
            </g>
          </g>
          <g id="Group_116" data-name="Group 116">
            <path id="Path_92" data-name="Path 92" d="M431.955,701.48l25.746-4.406-7.287,13.314L424.066,714.2Z" fill="url(#linear-gradient-4)"/>
          </g>
        </g>
      </g>
      <g id="Group_161" data-name="Group 161">
        <g id="Group_129" data-name="Group 129">
          <g id="Group_128" data-name="Group 128" style="mix-blend-mode: normal;isolation: isolate">
            <g id="Group_119" data-name="Group 119">
              <path id="Path_93" data-name="Path 93" d="M248.765,622.6c10.851,18.789,25.866,35.2,42.471,44.792l-6.718,3.9c-16.605-9.587-31.621-26-42.472-44.792Z" fill="#fede54"/>
            </g>
            <g id="Group_120" data-name="Group 120">
              <path id="Path_94" data-name="Path 94" d="M231.283,563.57c-.054,19.079,6.632,40.24,17.482,59.028l-6.719,3.9c-10.85-18.788-17.535-39.949-17.481-59.028.053-18.967,6.75-32.307,17.547-38.58l6.718-3.9C238.033,531.263,231.337,544.6,231.283,563.57Z" fill="#fede54"/>
            </g>
            <g id="Group_121" data-name="Group 121">
              <path id="Path_95" data-name="Path 95" d="M291.236,667.39c16.716,9.651,31.866,10.547,42.8,4.191l-6.719,3.9c-10.938,6.357-26.088,5.46-42.8-4.191Z" fill="#fede54"/>
            </g>
            <g id="Group_122" data-name="Group 122">
              <path id="Path_96" data-name="Path 96" d="M242.11,528.9l6.718-3.9c10.938-6.357,26.086-5.459,42.8,4.19l-6.718,3.9C268.2,523.436,253.048,522.538,242.11,528.9Z" fill="#feeb98"/>
            </g>
            <g id="Group_123" data-name="Group 123">
              <path id="Path_97" data-name="Path 97" d="M242.371,527.277l6.718-3.9c14.475-8.412,34.52-7.227,56.642,5.545l-6.719,3.9C276.891,520.05,256.846,518.865,242.371,527.277Z" fill="url(#linear-gradient-22)"/>
            </g>
            <g id="Group_124" data-name="Group 124">
              <path id="Path_98" data-name="Path 98" d="M284.91,533.085c33.209,19.174,60.061,65.661,59.953,103.844-.108,38.159-27.136,53.538-60.345,34.365s-60.061-65.66-59.953-103.82C224.673,529.291,251.7,513.912,284.91,533.085Z" fill="#feeb98"/>
            </g>
            <g id="Group_125" data-name="Group 125">
              <path id="Path_99" data-name="Path 99" d="M334.042,671.58l-6.719,3.9c10.793-6.272,17.486-19.6,17.54-38.556.108-38.183-26.744-84.67-59.953-103.844l6.718-3.9c33.209,19.173,60.062,65.661,59.953,103.843C351.528,651.976,344.834,665.308,334.042,671.58Z" fill="#feeb98"/>
            </g>
            <g id="Group_126" data-name="Group 126">
              <path id="Path_100" data-name="Path 100" d="M361.853,717.4l-6.718,3.905c14.29-8.3,23.151-25.962,23.222-51.057.143-50.514-35.384-112.049-79.345-137.43l6.719-3.9c43.96,25.38,79.487,86.916,79.344,137.43C385,691.443,376.143,709.1,361.853,717.4Z" fill="url(#linear-gradient-23)"/>
            </g>
            <g id="Group_127" data-name="Group 127">
              <path id="Path_101" data-name="Path 101" d="M299.012,532.822c43.961,25.381,79.488,86.916,79.345,137.43s-35.9,70.892-79.863,45.512-79.488-86.916-79.345-137.431S255.052,507.441,299.012,532.822ZM284.518,671.294c33.209,19.173,60.237,3.794,60.345-34.365.108-38.183-26.744-84.671-59.953-103.844s-60.237-3.794-60.345,34.389c-.108,38.16,26.744,84.647,59.953,103.82" fill="#fede54"/>
            </g>
          </g>
        </g>
        <g id="Group_136" data-name="Group 136">
          <g id="Group_135" data-name="Group 135" style="mix-blend-mode: normal;isolation: isolate">
            <g id="Group_130" data-name="Group 130">
              <path id="Path_102" data-name="Path 102" d="M248.538,544.732l2.239-1.3c-12.086,7.024-19.59,21.941-19.65,43.122-.121,42.611,29.967,94.726,67.07,116.148l-2.239,1.3c-37.1-21.422-67.192-73.536-67.071-116.148C228.947,566.674,236.451,551.756,248.538,544.732Z" fill="#8c4d0b"/>
            </g>
            <g id="Group_131" data-name="Group 131">
              <path id="Path_103" data-name="Path 103" d="M346.041,707.351l-2.239,1.3c-12.238,7.112-29.175,6.128-47.844-4.65l2.239-1.3C316.866,713.479,333.8,714.462,346.041,707.351Z" fill="#8c4d0b"/>
            </g>
            <g id="Group_132" data-name="Group 132">
              <path id="Path_104" data-name="Path 104" d="M245.347,539.246l2.24-1.3c13.063-7.592,31.144-6.538,51.063,4.962l-2.239,1.3C276.492,532.707,258.411,531.654,245.347,539.246Z" fill="#8c4d0b"/>
            </g>
            <g id="Group_133" data-name="Group 133">
              <path id="Path_105" data-name="Path 105" d="M349.252,712.837l-2.24,1.3c12.89-7.491,20.9-23.4,20.959-45.985.129-45.5-31.981-101.1-71.56-123.947l2.239-1.3c39.579,22.851,71.689,78.444,71.56,123.947C370.146,689.44,362.142,705.346,349.252,712.837Z" fill="#8c4d0b"/>
            </g>
            <g id="Group_134" data-name="Group 134">
              <path id="Path_106" data-name="Path 106" d="M296.411,544.207c39.579,22.851,71.689,78.445,71.56,123.947-.129,45.479-32.449,63.874-72.028,41.023s-71.688-78.444-71.559-123.923C224.513,539.751,256.832,521.357,296.411,544.207ZM295.958,704c37.1,21.422,67.368,4.152,67.489-38.46.121-42.635-29.947-94.738-67.051-116.16s-67.388-4.163-67.509,38.472c-.121,42.612,29.967,94.726,67.071,116.148" fill="url(#linear-gradient-4)"/>
            </g>
          </g>
        </g>
        <g id="Group_160" data-name="Group 160">
          <g id="Group_159" data-name="Group 159" style="mix-blend-mode: normal;isolation: isolate">
            <g id="Group_137" data-name="Group 137">
              <path id="Path_107" data-name="Path 107" d="M253.484,637.212l2.239-1.3,13,7.508-2.239,1.3Z" fill="#8c4d0b"/>
            </g>
            <g id="Group_138" data-name="Group 138">
              <path id="Path_108" data-name="Path 108" d="M289.991,675.684l2.239-1.3-.037,12.937-2.239,1.3Z" fill="#8c4d0b"/>
            </g>
            <g id="Group_139" data-name="Group 139">
              <path id="Path_109" data-name="Path 109" d="M309.936,685.938l2.239-1.3-.04,14.2-2.239,1.3Z" fill="url(#linear-gradient-4)"/>
            </g>
            <g id="Group_140" data-name="Group 140">
              <path id="Path_110" data-name="Path 110" d="M284.949,655.237l2.239-1.3,12.456,7.191-2.239,1.3Z" fill="#8c4d0b"/>
            </g>
            <g id="Group_141" data-name="Group 141">
              <path id="Path_111" data-name="Path 111" d="M285.022,629.153l2.239-1.3-.074,26.085-2.239,1.3Z" fill="url(#linear-gradient-4)"/>
            </g>
            <g id="Group_142" data-name="Group 142">
              <path id="Path_112" data-name="Path 112" d="M311.243,663.653l-2.24,1.3a4.949,4.949,0,0,1-.776.361c-2.36.809-5.954-.145-10.823-2.886l2.24-1.3c4.869,2.741,8.463,3.7,10.822,2.886A4.87,4.87,0,0,0,311.243,663.653Z" fill="#8c4d0b"/>
            </g>
            <g id="Group_143" data-name="Group 143">
              <path id="Path_113" data-name="Path 113" d="M285.07,612.346l2.239-1.3,10.711,6.184-2.239,1.3Z" fill="#8c4d0b"/>
            </g>
            <g id="Group_144" data-name="Group 144">
              <path id="Path_114" data-name="Path 114" d="M285.133,590.108l2.239-1.3-.063,22.238-2.239,1.3Z" fill="#8c4d0b"/>
            </g>
            <g id="Group_145" data-name="Group 145">
              <path id="Path_115" data-name="Path 115" d="M295.781,618.53l2.24-1.3c.608.351,1.176.656,1.744.96,4.1,2.18,7.144,3.051,9.137,2.66l-2.24,1.3c-1.992.391-5.038-.48-9.136-2.659C296.958,619.186,296.39,618.881,295.781,618.53Z" fill="#8c4d0b"/>
            </g>
            <g id="Group_146" data-name="Group 146">
              <path id="Path_116" data-name="Path 116" d="M315.52,637.234l2.239-1.3,0,.7-2.239,1.3Z" fill="url(#linear-gradient-4)"/>
            </g>
            <g id="Group_147" data-name="Group 147">
              <path id="Path_117" data-name="Path 117" d="M309.908,620.458l-2.239,1.3a3.5,3.5,0,0,1-1.007.391l2.24-1.3A3.565,3.565,0,0,0,309.908,620.458Z" fill="url(#linear-gradient-28)"/>
            </g>
            <g id="Group_148" data-name="Group 148">
              <path id="Path_118" data-name="Path 118" d="M253.718,554.552l2.239-1.3,24,13.856-2.239,1.3Z" fill="#8c4d0b"/>
            </g>
            <g id="Group_149" data-name="Group 149">
              <path id="Path_119" data-name="Path 119" d="M326.963,684.39l-2.239,1.3c4.193-2.437,6.326-7.554,6.348-15.336a41.538,41.538,0,0,0-3.628-17.6l2.239-1.3a41.53,41.53,0,0,1,3.628,17.6C333.289,676.837,331.156,681.953,326.963,684.39Z" fill="#8c4d0b"/>
            </g>
            <g id="Group_150" data-name="Group 150">
              <path id="Path_120" data-name="Path 120" d="M315.518,637.933l2.239-1.3a42.879,42.879,0,0,1,11.926,14.824l-2.239,1.3A42.882,42.882,0,0,0,315.518,637.933Z" fill="#8c4d0b"/>
            </g>
            <g id="Group_151" data-name="Group 151">
              <path id="Path_121" data-name="Path 121" d="M290.274,575.658l2.239-1.3,3.53,2.038-2.239,1.3Z" fill="#8c4d0b"/>
            </g>
            <g id="Group_152" data-name="Group 152">
              <path id="Path_122" data-name="Path 122" d="M293.8,577.7l2.24-1.3c1.318.762,2.6,1.523,3.833,2.307l-2.239,1.3C296.4,579.218,295.123,578.457,293.8,577.7Z" fill="#8c4d0b"/>
            </g>
            <g id="Group_153" data-name="Group 153">
              <path id="Path_123" data-name="Path 123" d="M277.754,555.494l2.239-1.3,12.557,7.25-2.239,1.3Z" fill="#8c4d0b"/>
            </g>
            <g id="Group_154" data-name="Group 154">
              <path id="Path_124" data-name="Path 124" d="M290.311,562.744l2.239-1.3-.037,12.914-2.239,1.3Z" fill="#8c4d0b"/>
            </g>
            <g id="Group_155" data-name="Group 155">
              <path id="Path_125" data-name="Path 125" d="M325.928,635.881l-2.24,1.3a7.9,7.9,0,0,0,1.589-1.227c2.465-2.382,3.7-6.621,3.713-12.566a38.612,38.612,0,0,0-8.3-24.1A63.967,63.967,0,0,0,310.211,588.8l2.24-1.3a64,64,0,0,1,10.475,10.485,38.619,38.619,0,0,1,8.3,24.1c-.017,5.944-1.249,10.183-3.714,12.566A7.95,7.95,0,0,1,325.928,635.881Z" fill="#8c4d0b"/>
            </g>
            <g id="Group_156" data-name="Group 156">
              <path id="Path_126" data-name="Path 126" d="M310.253,574.257l2.239-1.3-.041,14.546-2.239,1.3Z" fill="#8c4d0b"/>
            </g>
            <g id="Group_157" data-name="Group 157">
              <path id="Path_127" data-name="Path 127" d="M297.675,567l2.239-1.3,12.578,7.262-2.239,1.3Z" fill="#8c4d0b"/>
            </g>
            <g id="Group_158" data-name="Group 158">
              <path id="Path_128" data-name="Path 128" d="M327.444,652.758a41.538,41.538,0,0,1,3.628,17.6c-.026,9.114-2.947,14.573-8.682,16.351-3.437,1.051-7.582.83-12.454-.769l-.04,14.2-12.578-7.261.037-12.938-7.364-4.251-.037,12.937-12.557-7.25.036-12.937-24-13.856.049-17.366,13,7.507.186-65.27-13-7.507.049-17.39,24,13.856.037-12.914,12.557,7.25-.037,12.914,3.53,2.038c1.319.761,2.6,1.522,3.834,2.306l.037-13.007,12.578,7.262-.042,14.546a63.967,63.967,0,0,1,10.476,10.484,38.612,38.612,0,0,1,8.3,24.1c-.017,5.945-1.248,10.184-3.713,12.566q-3.669,3.627-9.757,1.278l0,.7A42.882,42.882,0,0,1,327.444,652.758ZM310,664.119c1.243-1.36,1.88-3.677,1.889-6.964a18.519,18.519,0,0,0-1.846-8.188c-2.182-4.645-6.355-8.852-12.563-12.6-.345-.223-.669-.41-1.034-.621l-11.422-6.594-.073,26.085,12.455,7.191c4.869,2.741,8.463,3.7,10.823,2.886a4.023,4.023,0,0,0,1.771-1.2m-24.865-74.011-.063,22.238,10.711,6.184c.609.351,1.177.656,1.745.961,4.1,2.179,7.144,3.05,9.136,2.659,2.237-.506,3.381-2.811,3.393-6.89a16.123,16.123,0,0,0-3.669-10.384,35.345,35.345,0,0,0-8.8-7.484c-.852-.562-1.785-1.124-2.759-1.686l-9.7-5.6" fill="url(#linear-gradient-4)"/>
            </g>
          </g>
        </g>
      </g>
    </g>
  </g>
</svg>
