<svg xmlns="http://www.w3.org/2000/svg" xmlns:xlink="http://www.w3.org/1999/xlink" width="693" height="383" viewBox="0 0 693 383">
  <defs>
    <filter id="Rectangle_279" x="0" y="0" width="384" height="219" filterUnits="userSpaceOnUse">
      <feOffset dy="20" input="SourceAlpha"/>
      <feGaussianBlur stdDeviation="15" result="blur"/>
      <feFlood flood-color="#f1f3ff"/>
      <feComposite operator="in" in2="blur"/>
      <feComposite in="SourceGraphic"/>
    </filter>
    <filter id="Rectangle_280" x="162" y="164" width="384" height="219" filterUnits="userSpaceOnUse">
      <feOffset dy="20" input="SourceAlpha"/>
      <feGaussianBlur stdDeviation="15" result="blur-2"/>
      <feFlood flood-color="#f1f3ff"/>
      <feComposite operator="in" in2="blur-2"/>
      <feComposite in="SourceGraphic"/>
    </filter>
    <filter id="Rectangle_281" x="309" y="56" width="384" height="220" filterUnits="userSpaceOnUse">
      <feOffset dy="20" input="SourceAlpha"/>
      <feGaussianBlur stdDeviation="15" result="blur-3"/>
      <feFlood flood-color="#f1f3ff"/>
      <feComposite operator="in" in2="blur-3"/>
      <feComposite in="SourceGraphic"/>
    </filter>
  </defs>
  <g id="Group_460" data-name="Group 460" transform="translate(-615 -4832)">
    <g id="Group_453" data-name="Group 453" transform="translate(-105 31)">
      <g transform="matrix(1, 0, 0, 1, 720, 4801)" filter="url(#Rectangle_279)">
        <g id="Rectangle_279-2" data-name="Rectangle 279" transform="translate(45 25)" fill="#fff" stroke="#e5eeff" stroke-width="1.5">
          <rect width="294" height="129" stroke="none"/>
          <rect x="0.75" y="0.75" width="292.5" height="127.5" fill="none"/>
        </g>
      </g>
      <g transform="matrix(1, 0, 0, 1, 720, 4801)" filter="url(#Rectangle_280)">
        <g id="Rectangle_280-2" data-name="Rectangle 280" transform="translate(207 189)" fill="#fff" stroke="#e5eeff" stroke-width="1.5">
          <rect width="294" height="129" stroke="none"/>
          <rect x="0.75" y="0.75" width="292.5" height="127.5" fill="none"/>
        </g>
      </g>
      <g transform="matrix(1, 0, 0, 1, 720, 4801)" filter="url(#Rectangle_281)">
        <g id="Rectangle_281-2" data-name="Rectangle 281" transform="translate(354 81)" fill="#fff" stroke="#e5eeff" stroke-width="1.5">
          <rect width="294" height="130" stroke="none"/>
          <rect x="0.75" y="0.75" width="292.5" height="128.5" fill="none"/>
        </g>
      </g>
      <g id="Group_454" data-name="Group 454" transform="translate(1111.277 4925.869)">
        <path id="Path_578" data-name="Path 578" d="M.614,4.412A7.306,7.306,0,0,1,7.171,0H70.6A7.251,7.251,0,0,1,78,7.4V31.716a7.286,7.286,0,0,1-6.864,7.018c-7.708.038-15.416,0-23.124,0,1.035,2.569,2.071,5.1,3.106,7.67-4.6-2.531-9.127-5.139-13.767-7.631-10.124-.077-20.286,0-30.449-.038A7.314,7.314,0,0,1,.038,31.716C0,23.778.038,15.839,0,7.94A8.571,8.571,0,0,1,.614,4.412Z" transform="translate(0 0)" fill="#945c87"/>
        <path id="Path_579" data-name="Path 579" d="M37.034,11.819a2.812,2.812,0,0,1,4.257.575,2.616,2.616,0,0,1,.115,2.493,37.037,37.037,0,0,0-2.914,10.277,67.031,67.031,0,0,0-1.112,13.844,2.711,2.711,0,0,1-1.764,2.914,3.4,3.4,0,0,1-3.068-1.381c-3.451-3.72-5.407-8.513-6.826-13.307-1.419,2.8-2.838,5.637-4.218,8.437a20.229,20.229,0,0,1-3.528,5.407c-.652.652-1.764,1.227-2.608.575-1.265-1.112-1.572-2.876-2.109-4.372A185.257,185.257,0,0,1,8.886,15.808,2.692,2.692,0,0,1,10.3,12.7a3.055,3.055,0,0,1,3.03.307,3.241,3.241,0,0,1,.844,2.032c.844,5.6,1.8,11.159,3.183,16.643,2.3-4.372,4.6-8.743,6.9-13.154a4.264,4.264,0,0,1,1.381-1.687,2.26,2.26,0,0,1,2.8.268,4.559,4.559,0,0,1,.959,2.3,59.762,59.762,0,0,0,2.953,10.623c.575-5.177,1.3-10.431,3.183-15.3A11.02,11.02,0,0,1,37.034,11.819Zm13,2.8A8.015,8.015,0,0,1,56.9,17.035a10.644,10.644,0,0,1,2.416,5.637A17.4,17.4,0,0,1,57.4,32.949a11.279,11.279,0,0,1-3.95,4.525,8.11,8.11,0,0,1-8.513-.268,9.374,9.374,0,0,1-3.566-5.982,16.431,16.431,0,0,1,4.6-14.726A7.511,7.511,0,0,1,50.034,14.619Zm.5,5.369a5.478,5.478,0,0,0-2.608,2.493,9.495,9.495,0,0,0-.767,8.82,2.672,2.672,0,0,0,1.764,1.687,3.047,3.047,0,0,0,2.416-.959,8.822,8.822,0,0,0,2.569-5.024,8.6,8.6,0,0,0-1.035-6.289A2.156,2.156,0,0,0,50.532,19.988Zm19.4-5.369a7.988,7.988,0,0,1,6.749,2.263,10.4,10.4,0,0,1,2.569,6.059,17.336,17.336,0,0,1-1.879,9.894,11.307,11.307,0,0,1-4.065,4.64,8.158,8.158,0,0,1-8.207-.115,8.509,8.509,0,0,1-3.413-4.487A16.549,16.549,0,0,1,65.412,16.8,8.495,8.495,0,0,1,69.937,14.619Zm.537,5.369c-1.3.46-2.071,1.726-2.761,2.838a9.407,9.407,0,0,0-.5,8.628,2.339,2.339,0,0,0,1.879,1.534,3.625,3.625,0,0,0,2.493-1.227A9.032,9.032,0,0,0,73.963,26.2a8.028,8.028,0,0,0-1.189-5.522A2.124,2.124,0,0,0,70.474,19.988Z" transform="translate(-5.435 -6.833)" fill="#fff"/>
        <path id="Path_580" data-name="Path 580" d="M224.333,21.623a14.614,14.614,0,0,1,6.443.077v5.177c-1.726-.422-3.681-.805-5.33,0a6.062,6.062,0,0,0-3.106,5.407,6.385,6.385,0,0,0,2.531,5.791c1.764,1.15,4.027.92,5.944.383v5.177a12.8,12.8,0,0,1-7.861-.268,10.555,10.555,0,0,1-6.289-6.788,14.355,14.355,0,0,1-.23-7.21A10.613,10.613,0,0,1,224.333,21.623Zm15.569-.268a10.32,10.32,0,0,1,7.555,1.764,10.183,10.183,0,0,1,3.413,6.6,18.943,18.943,0,0,1-.575,8.168,8.906,8.906,0,0,1-4.372,5.33,10.987,10.987,0,0,1-7.094.575,7.965,7.965,0,0,1-5.139-3.873,16.063,16.063,0,0,1-1.649-8.667,11.645,11.645,0,0,1,2.454-7.133A8.516,8.516,0,0,1,239.9,21.355Zm.805,4.947a3.13,3.13,0,0,0-2.032,2.416,19.479,19.479,0,0,0-.307,6.327,5.931,5.931,0,0,0,1.074,3.3,2.85,2.85,0,0,0,4.218-.192,5.353,5.353,0,0,0,.959-2.838,19.091,19.091,0,0,0,0-5.33,5.662,5.662,0,0,0-1.265-2.991A2.806,2.806,0,0,0,240.708,26.3Zm102.275-4.6a15.027,15.027,0,0,1,6.788-.038c.038,1.726,0,3.451.038,5.215-1.687-.422-3.566-.805-5.215-.077a5.911,5.911,0,0,0-3.221,4.947c-.23,2.3.383,4.909,2.416,6.251,1.764,1.227,4.065,1,6.021.422-.038,1.726.038,3.49-.038,5.215a13.032,13.032,0,0,1-8.283-.5,10.54,10.54,0,0,1-5.867-6.826,14.334,14.334,0,0,1-.115-7.094A10.517,10.517,0,0,1,342.983,21.7Zm-88.7.153h7.4c.882,3.988,1.726,8.015,2.493,12.041.69-4.065,1.649-8.053,2.608-12.041h7.593q1.5,10.872,2.914,21.705H271.5c-.537-4.947-1-9.932-1.572-14.879-1.189,4.947-2.416,9.932-3.6,14.879h-3.95c-1.266-4.947-2.493-9.932-3.8-14.918-.5,4.947-1,9.932-1.5,14.918h-5.561Q252.9,32.744,254.284,21.853Zm26.537,0h7.4c.882,3.988,1.726,8.015,2.493,12.041.729-4.027,1.649-8.053,2.608-12.041h7.555q1.5,10.872,2.914,21.705H298c-.537-4.947-1.035-9.932-1.572-14.879-1.189,4.947-2.378,9.932-3.6,14.879h-3.95c-1.266-4.985-2.531-9.932-3.8-14.918-.5,4.985-1,9.932-1.5,14.918h-5.561Q279.459,32.744,280.821,21.853Zm24.658.077c3.95-.077,7.938,0,11.888-.038v4.64c-1.994.038-3.988,0-5.982,0V30.52h5.177v4.487h-5.177V39h6.021v4.64H305.517C305.479,36.388,305.555,29.178,305.479,21.93Zm13.575-.077c2.493,0,4.947-.038,7.44,0a9.86,9.86,0,0,1,6.558,2.3,5.9,5.9,0,0,1,1.5,5.906,6.146,6.146,0,0,1-3.26,3.72c1.534,3.26,3.106,6.519,4.679,9.779h-6.174c-1.611-3.336-3.183-6.673-4.832-9.971-.038,3.336,0,6.673,0,9.971h-5.867C319.054,36.349,319.054,29.1,319.054,21.853Zm5.867,4.18V31.21a5.758,5.758,0,0,0,3.106-.767,2.514,2.514,0,0,0,.268-3.336C327.491,26.148,326.072,26.148,324.921,26.033Zm26.537-4.142h11.85v4.64h-6.021V30.52h5.177v4.487h-5.177V39h6.059v4.64H351.458C351.42,36.349,351.458,29.1,351.458,21.892Z" transform="translate(-133.217 -13.109)"/>
      </g>
      <g id="Group_455" data-name="Group 455" transform="translate(962.326 5021.924)">
        <path id="Path_581" data-name="Path 581" d="M45.123,11.2a.565.565,0,0,0-.512-.474c-.212-.018-4.368-.081-4.368-.081S36.767,7.283,36.424,6.94a1.424,1.424,0,0,0-1.275-.161L33.4,7.318a12.169,12.169,0,0,0-.836-2.046c-1.237-2.353-3.05-3.6-5.24-3.6H27.32c-.152,0-.3.015-.455.027-.065-.077-.13-.153-.2-.228A4.6,4.6,0,0,0,23.025,0C20.2.083,17.38,2.118,15.1,5.733a22.642,22.642,0,0,0-3.176,8.213L6.352,15.665c-1.639.513-1.691.563-1.9,2.1C4.289,18.931,0,51.975,0,51.975l35.941,6.194L51.519,54.31S45.163,11.495,45.123,11.2ZM31.6,7.873l-2.789.86a15.338,15.338,0,0,0-.858-5.127C30.1,4.011,31.159,6.43,31.6,7.873ZM26.934,9.314l-6,1.851a14.154,14.154,0,0,1,3.03-5.86A6.052,6.052,0,0,1,26,3.827,13.4,13.4,0,0,1,26.934,9.314ZM23.081,1.878a2.892,2.892,0,0,1,1.7.444,8.182,8.182,0,0,0-2.2,1.7A16.393,16.393,0,0,0,18.864,11.8c-1.712.528-3.387,1.046-4.929,1.52C14.909,8.8,18.716,2,23.081,1.878Z" transform="translate(0 0)" fill="#95bf47"/>
        <path id="Path_582" data-name="Path 582" d="M90.112,19.236c-.212-.018-4.368-.081-4.368-.081s-3.476-3.363-3.819-3.705a.85.85,0,0,0-.483-.221l0,51.447L97.02,62.819S90.664,20,90.624,19.711A.567.567,0,0,0,90.112,19.236Z" transform="translate(-45.499 -8.508)" fill="#5e8e3e"/>
        <path id="Path_583" data-name="Path 583" d="M39.43,41.617l-1.809,6.744a10.308,10.308,0,0,0-4.41-.765c-3.508.221-3.545,2.426-3.51,2.979.191,3.016,8.155,3.675,8.6,10.74.351,5.558-2.959,9.36-7.729,9.66A11.605,11.605,0,0,1,21.7,67.971l1.213-5.142s3.173,2.385,5.712,2.225a2.239,2.239,0,0,0,2.191-2.4c-.249-3.934-6.734-3.7-7.144-10.167-.345-5.44,3.241-10.953,11.153-11.45A9.758,9.758,0,0,1,39.43,41.617Z" transform="translate(-12.121 -22.909)" fill="#fff"/>
        <path id="Path_584" data-name="Path 584" d="M147.024,61.156c-1.791-.968-2.712-1.785-2.712-2.907,0-1.428,1.279-2.345,3.276-2.345a11.729,11.729,0,0,1,4.4.968l1.637-5s-1.5-1.173-5.936-1.173c-6.165,0-10.438,3.518-10.438,8.464,0,2.8,1.995,4.946,4.657,6.475,2.149,1.223,2.917,2.09,2.917,3.365,0,1.325-1.075,2.4-3.07,2.4a13.818,13.818,0,0,1-5.781-1.53l-1.74,5a13.354,13.354,0,0,0,6.959,1.734c6.346,0,10.9-3.11,10.9-8.719C152.091,64.877,149.789,62.735,147.024,61.156Z" transform="translate(-74.992 -28.325)"/>
        <path id="Path_585" data-name="Path 585" d="M196.722,37.359a9.564,9.564,0,0,0-7.47,3.722l-.1-.051,2.712-14.123H184.8l-6.857,35.944H185l2.353-12.286c.921-4.64,3.325-7.494,5.578-7.494,1.586,0,2.2,1.071,2.2,2.6a16.049,16.049,0,0,1-.307,3.11l-2.66,14.071h7.062l2.762-14.531a26.169,26.169,0,0,0,.513-4.589C202.5,39.755,200.405,37.359,196.722,37.359Z" transform="translate(-99.41 -15.032)"/>
        <path id="Path_586" data-name="Path 586" d="M251.892,50.59c-8.5,0-14.122,7.648-14.122,16.162,0,5.455,3.376,9.839,9.722,9.839,8.341,0,13.97-7.443,13.97-16.162C261.461,55.382,258.492,50.59,251.892,50.59Zm-3.479,20.6c-2.405,0-3.429-2.039-3.429-4.589,0-4.027,2.1-10.6,5.936-10.6,2.508,0,3.325,2.142,3.325,4.232C254.245,64.56,252.149,71.189,248.412,71.189Z" transform="translate(-132.834 -28.263)"/>
        <path id="Path_587" data-name="Path 587" d="M307.375,50.59c-4.766,0-7.471,4.181-7.471,4.181h-.1l.41-3.773H293.97c-.307,2.55-.871,6.423-1.433,9.33l-4.912,25.747h7.062l1.943-10.4h.155a8.246,8.246,0,0,0,4.145.918c8.289,0,13.713-8.463,13.713-17.029C314.642,54.822,312.543,50.59,307.375,50.59Zm-6.754,20.7a4.5,4.5,0,0,1-2.918-1.02l1.177-6.577c.82-4.384,3.122-7.291,5.578-7.291,2.149,0,2.814,1.988,2.814,3.875C307.273,64.815,304.561,71.289,300.621,71.289Z" transform="translate(-160.687 -28.263)"/>
        <path id="Path_588" data-name="Path 588" d="M366.566,27.715a4.023,4.023,0,0,0-4.042,4.078,3.247,3.247,0,0,0,3.326,3.518h.1a3.981,3.981,0,0,0,4.145-4.078A3.351,3.351,0,0,0,366.566,27.715Z" transform="translate(-202.53 -15.484)"/>
        <path id="Path_589" data-name="Path 589" d="M349.307,76.793h7.06l4.811-24.93h-7.114Z" transform="translate(-195.146 -28.974)"/>
        <path id="Path_590" data-name="Path 590" d="M395.85,37.225h-4.913l.255-1.173c.41-2.4,1.843-4.538,4.2-4.538a7.379,7.379,0,0,1,2.25.357l1.382-5.506a9.357,9.357,0,0,0-3.839-.611,10.512,10.512,0,0,0-6.907,2.345,13.342,13.342,0,0,0-4.093,7.954l-.2,1.173H380.7l-1.024,5.3h3.276l-3.735,19.68h7.062l3.736-19.68h4.861Z" transform="translate(-211.858 -14.388)"/>
        <path id="Path_591" data-name="Path 591" d="M430.844,51.861s-4.414,11.081-6.4,17.13h-.1c-.134-1.948-1.74-17.13-1.74-17.13h-7.42l4.249,22.891a1.488,1.488,0,0,1-.154,1.174,12.082,12.082,0,0,1-3.839,4.232,15.3,15.3,0,0,1-3.99,1.988L413.4,88.11a16.142,16.142,0,0,0,6.907-3.824c3.224-3.008,6.191-7.648,9.261-13.97l8.648-18.457h-7.368Z" transform="translate(-229.864 -28.972)"/>
      </g>
      <g id="Group_456" data-name="Group 456" transform="translate(800.252 4865.404)">
        <path id="Path_592" data-name="Path 592" d="M54.774,41.073a13.582,13.582,0,0,1-13.6,13.6H14.1A13.582,13.582,0,0,1,.5,41.073V14A13.582,13.582,0,0,1,14.1.4H41.173A13.582,13.582,0,0,1,54.774,14Z" transform="translate(-0.5 -0.4)" fill="#0087cd"/>
        <g id="Group_456-2" data-name="Group 456" transform="translate(6.735 10.96)">
          <path id="Path_593" data-name="Path 593" d="M35.5,20.9c1.321-4.094,3.7-13.073,4.49-16.375.66-2.773.924-3.83-.4-3.83-1.056,0-3.962,1.188-4.622,3.433-.924,3.7-2.905,11.489-3.7,14.262-.924,3.037-2.773,3.7-5.282,3.7-1.849,0-2.905-.132-3.169-1.188a.674.674,0,0,0-.66-.528H19.126a.6.6,0,0,0-.66.528c-.264,1.188-1.321,1.188-3.169,1.188-1.585,0-3.962-.264-4.754-3.169-.66-1.981-2.113-7.131-2.905-9.9S4.468,6.114,3.279,6.114c-1.321,0-1.453.264-.66,2.905S5.26,17.735,6.449,21.7s5.018,5.282,7.527,5.282H18.2a3.918,3.918,0,0,0,2.245-.528.638.638,0,0,1,.924,0,4.251,4.251,0,0,0,2.377.66h4.094A8.567,8.567,0,0,0,35.5,20.9Z" transform="translate(-0.11 -0.7)" fill="#fff"/>
          <circle id="Ellipse_98" data-name="Ellipse 98" cx="1.981" cy="1.981" r="1.981" transform="translate(12.149 6.339)" fill="#fff"/>
          <circle id="Ellipse_99" data-name="Ellipse 99" cx="1.981" cy="1.981" r="1.981" transform="translate(18.62 6.339)" fill="#fff"/>
          <circle id="Ellipse_100" data-name="Ellipse 100" cx="1.981" cy="1.981" r="1.981" transform="translate(25.222 6.339)" fill="#fff"/>
          <circle id="Ellipse_101" data-name="Ellipse 101" cx="1.981" cy="1.981" r="1.981" transform="translate(12.149 13.47)" fill="#fff"/>
          <circle id="Ellipse_102" data-name="Ellipse 102" cx="1.981" cy="1.981" r="1.981" transform="translate(18.62 13.47)" fill="#fff"/>
          <circle id="Ellipse_103" data-name="Ellipse 103" cx="1.981" cy="1.981" r="1.981" transform="translate(25.222 13.47)" fill="#fff"/>
          <path id="Path_594" data-name="Path 594" d="M4.562,21.5A3.973,3.973,0,0,0,.6,25.462a4.062,4.062,0,0,0,3.962,3.962,3.962,3.962,0,0,0,0-7.923Zm0,5.546a1.453,1.453,0,1,1,1.453-1.453A1.561,1.561,0,0,1,4.562,27.046ZM37.575,21.5a3.973,3.973,0,0,0-3.962,3.962,3.962,3.962,0,1,0,7.923,0A3.973,3.973,0,0,0,37.575,21.5Zm0,5.546a1.453,1.453,0,1,1,1.453-1.453A1.465,1.465,0,0,1,37.575,27.046Z" transform="translate(-0.6 5.967)" fill="#fff"/>
        </g>
        <g id="Group_457" data-name="Group 457" transform="translate(69.857 4.226)">
          <path id="Path_595" data-name="Path 595" d="M50.07,29.744c-.924,0-2.113,0-2.509.792C46.108,33.177,42.675,34.1,39.9,34.1A9.843,9.843,0,0,1,30.13,23.934,9.924,9.924,0,0,1,39.9,13.765c2.509,0,5.678.528,7.659,3.433.528.792,1.585.66,2.641.66,1.321,0,1.056-1.585.528-2.509-2.773-4.226-7.4-5.15-10.7-5.15a13.734,13.734,0,1,0,0,27.467c4.886,0,9.112-2.113,10.96-5.546C51.126,31.2,51.522,29.744,50.07,29.744Zm52.954-18.752c-.924,0-1.849.4-1.849,1.453V35.422c0,.924.792,1.321,1.849,1.321.924,0,1.849-.264,1.849-1.321V12.445a1.643,1.643,0,0,0-1.849-1.453Z" transform="translate(7.902 2.477)" fill="#0087cd"/>
          <circle id="Ellipse_104" data-name="Ellipse 104" cx="2.641" cy="2.641" r="2.641" transform="translate(108.284 3.037)" fill="#0087cd"/>
          <path id="Path_596" data-name="Path 596" d="M145.791.6c-.924,0-.924.4-.924,1.321V17.767c-1.981-3.3-5.942-4.49-9.376-4.49a13.734,13.734,0,1,0,0,27.467c2.905,0,7.527-1.453,9.376-4.754v2.245c0,.924-.132,1.321.924,1.321s2.641-1.321,2.641-4.358V4.3c0-2.773-1.585-3.7-2.641-3.7Zm-.924,27.071c0,7.131-6.471,9.508-9.376,9.508a9.843,9.843,0,0,1-9.772-10.168,9.843,9.843,0,0,1,9.772-10.168c3.3,0,9.376,1.981,9.376,9.244v1.585ZM99.837,14.2c-.132,0-1.849,0-2.245,1.321-.528,1.188-3.037,9.112-5.942,17.431a1.877,1.877,0,0,0-.264.792L85.311,18.823a2.657,2.657,0,0,0-1.188-1.453,2.245,2.245,0,0,0-2.113,0,2.657,2.657,0,0,0-1.188,1.453L74.746,33.746a1.877,1.877,0,0,1-.264-.792c-3.037-8.319-5.546-16.243-5.942-17.431A2.524,2.524,0,0,0,66.295,14.2q-1.387,0-1.188.792v.4c.132.528,3.83,13.073,7.923,22.977.264.66.66,1.585,1.849,1.585A1.783,1.783,0,0,0,76.463,38.9l6.471-16.111c.132-.132.264-.264.4-.264s.264.132.4.264L90.2,38.9a1.783,1.783,0,0,0,1.585,1.056c1.188,0,1.585-.924,1.849-1.585,3.962-9.772,7.791-22.449,7.923-22.977v-.4a2.129,2.129,0,0,0-1.717-.792ZM14.4,13.277A14.038,14.038,0,0,0,.4,27.011a13.951,13.951,0,0,0,14,13.734c4.886,0,9.376-2.113,11.225-5.546.528-.924.792-2.377-.66-2.377-.924,0-2.113,0-2.509.792C21,36.255,17.171,37.179,14.4,37.179a10.078,10.078,0,0,1-9.9-8.451H26.679A1.779,1.779,0,0,0,28.4,26.879c0-7.659-6.6-13.6-14-13.6Zm-9.9,11.885a10.134,10.134,0,0,1,19.94,0Z" transform="translate(-0.4 -0.6)" fill="#0087cd"/>
        </g>
      </g>
    </g>
  </g>
</svg>
