<svg xmlns="http://www.w3.org/2000/svg" width="131" height="104" viewBox="0 0 131 104">
  <g id="Group_226" data-name="Group 226" transform="translate(-1607 -557)" opacity="0.5">
    <circle id="Ellipse_54" data-name="Ellipse 54" cx="5" cy="5" r="5" transform="translate(1607 557)" fill="#3febd4" opacity="0.5"/>
    <circle id="Ellipse_55" data-name="Ellipse 55" cx="5" cy="5" r="5" transform="translate(1627 557)" fill="#3febd4" opacity="0.5"/>
    <circle id="Ellipse_56" data-name="Ellipse 56" cx="5" cy="5" r="5" transform="translate(1647 557)" fill="#3febd4" opacity="0.5"/>
    <circle id="Ellipse_57" data-name="Ellipse 57" cx="5" cy="5" r="5" transform="translate(1667 557)" fill="#3febd4" opacity="0.5"/>
    <ellipse id="Ellipse_58" data-name="Ellipse 58" cx="4.5" cy="5" rx="4.5" ry="5" transform="translate(1688 557)" fill="#3febd4" opacity="0.5"/>
    <circle id="Ellipse_59" data-name="Ellipse 59" cx="5" cy="5" r="5" transform="translate(1708 557)" fill="#3febd4" opacity="0.5"/>
    <circle id="Ellipse_60" data-name="Ellipse 60" cx="5" cy="5" r="5" transform="translate(1728 557)" fill="#3febd4" opacity="0.5"/>
    <circle id="Ellipse_61" data-name="Ellipse 61" cx="5" cy="5" r="5" transform="translate(1607 576)" fill="#3febd4"/>
    <circle id="Ellipse_62" data-name="Ellipse 62" cx="5" cy="5" r="5" transform="translate(1627 576)" fill="#3febd4"/>
    <circle id="Ellipse_63" data-name="Ellipse 63" cx="5" cy="5" r="5" transform="translate(1647 576)" fill="#3febd4"/>
    <circle id="Ellipse_64" data-name="Ellipse 64" cx="5" cy="5" r="5" transform="translate(1667 576)" fill="#3febd4"/>
    <ellipse id="Ellipse_65" data-name="Ellipse 65" cx="4.5" cy="5" rx="4.5" ry="5" transform="translate(1688 576)" fill="#3febd4"/>
    <circle id="Ellipse_66" data-name="Ellipse 66" cx="5" cy="5" r="5" transform="translate(1708 576)" fill="#3febd4"/>
    <circle id="Ellipse_67" data-name="Ellipse 67" cx="5" cy="5" r="5" transform="translate(1728 576)" fill="#3febd4"/>
    <ellipse id="Ellipse_68" data-name="Ellipse 68" cx="5" cy="4.5" rx="5" ry="4.5" transform="translate(1607 595)" fill="#3febd4" opacity="0.5"/>
    <ellipse id="Ellipse_69" data-name="Ellipse 69" cx="5" cy="4.5" rx="5" ry="4.5" transform="translate(1627 595)" fill="#3febd4" opacity="0.5"/>
    <ellipse id="Ellipse_70" data-name="Ellipse 70" cx="5" cy="4.5" rx="5" ry="4.5" transform="translate(1647 595)" fill="#3febd4" opacity="0.5"/>
    <ellipse id="Ellipse_71" data-name="Ellipse 71" cx="5" cy="4.5" rx="5" ry="4.5" transform="translate(1667 595)" fill="#3febd4" opacity="0.5"/>
    <circle id="Ellipse_72" data-name="Ellipse 72" cx="4.5" cy="4.5" r="4.5" transform="translate(1688 595)" fill="#3febd4" opacity="0.5"/>
    <ellipse id="Ellipse_73" data-name="Ellipse 73" cx="5" cy="4.5" rx="5" ry="4.5" transform="translate(1708 595)" fill="#3febd4" opacity="0.5"/>
    <ellipse id="Ellipse_74" data-name="Ellipse 74" cx="5" cy="4.5" rx="5" ry="4.5" transform="translate(1728 595)" fill="#3febd4" opacity="0.5"/>
    <ellipse id="Ellipse_75" data-name="Ellipse 75" cx="5" cy="4.5" rx="5" ry="4.5" transform="translate(1607 614)" fill="#3febd4"/>
    <ellipse id="Ellipse_76" data-name="Ellipse 76" cx="5" cy="4.5" rx="5" ry="4.5" transform="translate(1627 614)" fill="#3febd4"/>
    <ellipse id="Ellipse_77" data-name="Ellipse 77" cx="5" cy="4.5" rx="5" ry="4.5" transform="translate(1647 614)" fill="#3febd4"/>
    <ellipse id="Ellipse_78" data-name="Ellipse 78" cx="5" cy="4.5" rx="5" ry="4.5" transform="translate(1667 614)" fill="#3febd4"/>
    <circle id="Ellipse_79" data-name="Ellipse 79" cx="4.5" cy="4.5" r="4.5" transform="translate(1688 614)" fill="#3febd4"/>
    <ellipse id="Ellipse_80" data-name="Ellipse 80" cx="5" cy="4.5" rx="5" ry="4.5" transform="translate(1708 614)" fill="#3febd4"/>
    <ellipse id="Ellipse_81" data-name="Ellipse 81" cx="5" cy="4.5" rx="5" ry="4.5" transform="translate(1728 614)" fill="#3febd4"/>
    <circle id="Ellipse_82" data-name="Ellipse 82" cx="5" cy="5" r="5" transform="translate(1607 632)" fill="#3febd4" opacity="0.5"/>
    <circle id="Ellipse_83" data-name="Ellipse 83" cx="5" cy="5" r="5" transform="translate(1627 632)" fill="#3febd4" opacity="0.5"/>
    <circle id="Ellipse_84" data-name="Ellipse 84" cx="5" cy="5" r="5" transform="translate(1647 632)" fill="#3febd4" opacity="0.5"/>
    <circle id="Ellipse_85" data-name="Ellipse 85" cx="5" cy="5" r="5" transform="translate(1667 632)" fill="#3febd4" opacity="0.5"/>
    <ellipse id="Ellipse_86" data-name="Ellipse 86" cx="4.5" cy="5" rx="4.5" ry="5" transform="translate(1688 632)" fill="#3febd4" opacity="0.5"/>
    <circle id="Ellipse_87" data-name="Ellipse 87" cx="5" cy="5" r="5" transform="translate(1708 632)" fill="#3febd4" opacity="0.5"/>
    <circle id="Ellipse_88" data-name="Ellipse 88" cx="5" cy="5" r="5" transform="translate(1728 632)" fill="#3febd4" opacity="0.5"/>
    <circle id="Ellipse_89" data-name="Ellipse 89" cx="5" cy="5" r="5" transform="translate(1607 651)" fill="#3febd4"/>
    <circle id="Ellipse_90" data-name="Ellipse 90" cx="5" cy="5" r="5" transform="translate(1627 651)" fill="#3febd4"/>
    <circle id="Ellipse_91" data-name="Ellipse 91" cx="5" cy="5" r="5" transform="translate(1647 651)" fill="#3febd4"/>
    <circle id="Ellipse_92" data-name="Ellipse 92" cx="5" cy="5" r="5" transform="translate(1667 651)" fill="#3febd4"/>
    <ellipse id="Ellipse_93" data-name="Ellipse 93" cx="4.5" cy="5" rx="4.5" ry="5" transform="translate(1688 651)" fill="#3febd4"/>
    <circle id="Ellipse_94" data-name="Ellipse 94" cx="5" cy="5" r="5" transform="translate(1708 651)" fill="#3febd4"/>
    <circle id="Ellipse_95" data-name="Ellipse 95" cx="5" cy="5" r="5" transform="translate(1728 651)" fill="#3febd4"/>
  </g>
</svg>
