<svg xmlns="http://www.w3.org/2000/svg" xmlns:xlink="http://www.w3.org/1999/xlink" width="283.877" height="160.809" viewBox="0 0 283.877 160.809">
  <defs>
    <linearGradient id="linear-gradient" y1="0.5" x2="1" y2="0.5" gradientUnits="objectBoundingBox">
      <stop offset="0" stop-color="#3febd4"/>
      <stop offset="0.279" stop-color="#3febd4" stop-opacity="0.659"/>
      <stop offset="0.534" stop-color="#3febd4" stop-opacity="0.376"/>
      <stop offset="0.746" stop-color="#3febd4" stop-opacity="0.173"/>
      <stop offset="0.908" stop-color="#3febd4" stop-opacity="0.047"/>
      <stop offset="1" stop-color="#3febd4" stop-opacity="0"/>
    </linearGradient>
    <linearGradient id="linear-gradient-2" y1="0.5" x2="1" y2="0.5" gradientUnits="objectBoundingBox">
      <stop offset="0" stop-color="#357eeb" stop-opacity="0"/>
      <stop offset="0.279" stop-color="#357eeb" stop-opacity="0.341"/>
      <stop offset="0.534" stop-color="#357eeb" stop-opacity="0.624"/>
      <stop offset="0.746" stop-color="#357eeb" stop-opacity="0.827"/>
      <stop offset="0.908" stop-color="#357eeb" stop-opacity="0.953"/>
      <stop offset="1" stop-color="#357eeb"/>
    </linearGradient>
  </defs>
  <g id="Group_425" data-name="Group 425" transform="translate(-869.026 -487.214)">
    <g id="Group_423" data-name="Group 423">
      <path id="Path_568" data-name="Path 568" d="M957.81,639.9a33.156,33.156,0,0,1-3.185-9.526c-.646-3.3-1.212-6.584-1.764-9.889-1.1-6.605-2.04-13.245-2.71-19.932-1.334-13.356-1.6-26.967.388-40.448a101.331,101.331,0,0,1,13.847-38.376,82.421,82.421,0,0,1,12.978-16.1,66.535,66.535,0,0,1,17.082-11.965,69.032,69.032,0,0,1,20.052-5.7,96.623,96.623,0,0,1,20.569-.389c13.61,1.064,26.774,4.092,39.807,6.9l39.079,8.965,38.95,9.585-39.548-6.7L1073.936,499c-13.111-2.6-26.143-5.339-39.228-6.13a91.107,91.107,0,0,0-19.424.691,63.207,63.207,0,0,0-18.263,5.517,60.73,60.73,0,0,0-15.8,10.673,76.943,76.943,0,0,0-12.365,14.814,91.331,91.331,0,0,0-8.721,17.389,103.4,103.4,0,0,0-5.063,18.9c-2.388,12.915-2.673,26.229-2.064,39.495.306,6.64.84,13.285,1.466,19.93.316,3.319.634,6.655,1.008,9.96A34.06,34.06,0,0,0,957.81,639.9Z" fill="url(#linear-gradient)"/>
    </g>
    <g id="Group_424" data-name="Group 424">
      <path id="Path_569" data-name="Path 569" d="M869.026,623.153c3.181-13.252,8.47-26.214,16.574-37.487A78.327,78.327,0,0,1,899.768,570.4,65.5,65.5,0,0,1,917.881,559.7a66.974,66.974,0,0,1,20.725-4.182,56.657,56.657,0,0,1,21.06,3.156l1.275.436,1.239.537,2.473,1.092c.825.363,1.59.852,2.388,1.274.779.455,1.6.841,2.346,1.356l2.24,1.533,1.117.772,1.045.856,2.084,1.722,1.949,1.862a25.625,25.625,0,0,1,1.871,1.932c.6.666,1.218,1.316,1.794,2,1.1,1.4,2.272,2.758,3.265,4.224a89.342,89.342,0,0,1,5.631,8.944c3.276,6.184,6,12.536,8.667,18.8a193.861,193.861,0,0,0,8.518,18.259,57.961,57.961,0,0,0,5.458,8.1,34.745,34.745,0,0,0,6.922,6.489,26.791,26.791,0,0,0,17.9,4.361c6.419-.478,12.819-2.57,19-5.156,3.1-1.293,6.166-2.718,9.245-4.176l9.248-4.377,37.273-16.943-35.961,19.575-9.06,4.752c-3.024,1.586-6.084,3.166-9.22,4.627-6.257,2.911-12.9,5.448-20.093,6.294a34.372,34.372,0,0,1-10.913-.537,30.165,30.165,0,0,1-10.187-4.3,39.754,39.754,0,0,1-8.09-7.311,63.2,63.2,0,0,1-6.115-8.741,198.182,198.182,0,0,1-9.1-18.647c-2.778-6.232-5.545-12.383-8.756-18.2A83.456,83.456,0,0,0,980,581.628c-.894-1.378-1.937-2.62-2.921-3.919-.513-.628-1.064-1.22-1.593-1.833a21.678,21.678,0,0,0-1.655-1.77l-1.718-1.7-1.835-1.565-.918-.783-.977-.7-1.955-1.392c-.649-.469-1.377-.817-2.061-1.234-.7-.385-1.369-.838-2.1-1.172l-2.19-1.009-1.1-.5-1.139-.407a51.562,51.562,0,0,0-19.1-3.183,62.867,62.867,0,0,0-36.6,12.932,78.415,78.415,0,0,0-14.25,14C879.466,597.886,873.393,610.242,869.026,623.153Z" fill="url(#linear-gradient-2)"/>
    </g>
  </g>
</svg>
