<svg xmlns="http://www.w3.org/2000/svg" width="80" height="80" viewBox="0 0 80 80">
  <g id="Group_1468" data-name="Group 1468" transform="translate(-160 -1478)">
    <rect id="Rectangle_309" data-name="Rectangle 309" width="80" height="80" transform="translate(160 1478)" fill="#f0f3ff"/>
    <g id="Group_1453" data-name="Group 1453" transform="translate(-324.413 1445.237)">
      <g id="Group_1451" data-name="Group 1451" transform="translate(510.269 48)">
        <path id="Path_1010" data-name="Path 1010" d="M512.322,66.018q0-8.3,3.373-13.161T526.465,48q7.348,0,10.746,4.857t3.4,13.161q0,8.356-3.4,13.236t-10.746,4.882q-7.4,0-10.77-4.882T512.322,66.018Zm19.729,0a18.631,18.631,0,0,0-1.132-7.324q-1.132-2.541-4.454-2.541-3.373,0-4.529,2.567a18.277,18.277,0,0,0-1.158,7.3,18.624,18.624,0,0,0,1.158,7.373q1.157,2.593,4.529,2.592,3.322,0,4.454-2.592A19.012,19.012,0,0,0,532.051,66.018Z" transform="translate(-512.322 -48)" fill="#5d77fd"/>
      </g>
      <g id="Group_1452" data-name="Group 1452" transform="translate(502.168 86.086)">
        <rect id="Rectangle_752" data-name="Rectangle 752" width="44.489" height="4.449" transform="translate(0 1.907)" fill="#d2dbff"/>
        <path id="Path_1011" data-name="Path 1011" d="M528.654,107.659h-5.5l2.752-4.767,2.752-4.767,2.752,4.767,2.752,4.767Z" transform="translate(-506.409 -96.219)" fill="#5d77fd"/>
        <path id="Path_1012" data-name="Path 1012" d="M553.2,95.736h2.936l-1.468,2.542L553.2,100.82l-1.468-2.542-1.468-2.542Z" transform="translate(-511.891 -95.736)" fill="#d2dbff"/>
        <path id="Path_1013" data-name="Path 1013" d="M505.407,95.736h2.936l-1.468,2.542-1.468,2.542-1.468-2.542-1.468-2.542Z" transform="translate(-502.229 -95.736)" fill="#d2dbff"/>
      </g>
    </g>
  </g>
</svg>
