<svg xmlns="http://www.w3.org/2000/svg" xmlns:xlink="http://www.w3.org/1999/xlink" width="243" height="248" viewBox="0 0 243 248">
  <defs>
    <clipPath id="clip-path">
      <rect id="SVGID" width="248" height="243" transform="translate(0)" fill="none"/>
    </clipPath>
    <linearGradient id="linear-gradient" x1="0.19" y1="0.799" x2="1.163" y2="0.193" gradientUnits="objectBoundingBox">
      <stop offset="0" stop-color="#525252"/>
      <stop offset="1" stop-color="#2b3451"/>
    </linearGradient>
    <linearGradient id="linear-gradient-2" x1="0.673" y1="0.262" x2="-1.371" y2="1.689" gradientUnits="objectBoundingBox">
      <stop offset="0" stop-color="#357eeb" stop-opacity="0"/>
      <stop offset="0.08" stop-color="#357eeb" stop-opacity="0.122"/>
      <stop offset="0.269" stop-color="#357eeb" stop-opacity="0.384"/>
      <stop offset="0.45" stop-color="#357eeb" stop-opacity="0.604"/>
      <stop offset="0.618" stop-color="#357eeb" stop-opacity="0.776"/>
      <stop offset="0.771" stop-color="#357eeb" stop-opacity="0.898"/>
      <stop offset="0.903" stop-color="#357eeb" stop-opacity="0.973"/>
      <stop offset="1" stop-color="#357eeb"/>
    </linearGradient>
    <linearGradient id="linear-gradient-3" x1="-3.722" y1="0.027" x2="1.115" y2="0.586" gradientUnits="objectBoundingBox">
      <stop offset="0.447" stop-color="#3febd4"/>
      <stop offset="0.601" stop-color="#3febd4" stop-opacity="0.659"/>
      <stop offset="0.742" stop-color="#3febd4" stop-opacity="0.376"/>
      <stop offset="0.86" stop-color="#3febd4" stop-opacity="0.173"/>
      <stop offset="0.949" stop-color="#3febd4" stop-opacity="0.047"/>
      <stop offset="1" stop-color="#3febd4" stop-opacity="0"/>
    </linearGradient>
  </defs>
  <g id="Group_1501" data-name="Group 1501" transform="translate(-18 1634.747) rotate(-90)">
    <g id="Group_430" data-name="Group 430" transform="translate(1386.747 18)" clip-path="url(#clip-path)">
      <g id="Group_429" data-name="Group 429" transform="translate(11.682 -5.461)">
        <g id="Group_426" data-name="Group 426" transform="translate(62.836)">
          <path id="Path_570" data-name="Path 570" d="M1695.1,14.823c-22.686-10.474-48.928-6.17-71.72,1.667a173.992,173.992,0,0,0-60.969,35.9,155.531,155.531,0,0,0-39.507,57.181,142.177,142.177,0,0,0-5.411,16.576,70.8,70.8,0,0,0-2.706,18.356,32.674,32.674,0,0,0,4.7,17.234,36.091,36.091,0,0,0,11.9,11.379c11.01,6.669,24.372,7.838,36.952,8.21,13.936.411,27.862-.528,41.8-.519,12.3.008,24.671.8,36.622,3.894a81.2,81.2,0,0,1,16.506,6.117c5.034,2.559,10.307,5.664,13.987,10.032,3.647,4.328,4.211,10,2.5,15.268-1.748,5.377-5.738,9.673-10.271,12.9a68.76,68.76,0,0,1-15.687,8.158,51.251,51.251,0,0,1-17.693,3.6,31.143,31.143,0,0,1-16.484-4.417,35.847,35.847,0,0,1-11.262-11.27c-6.743-10.492-8.328-23.28-8.185-35.505a128.2,128.2,0,0,1,70.885-113.212,125.909,125.909,0,0,1,15.129-6.414c2.107-.736,1.2-4.109-.928-3.366a131.717,131.717,0,0,0-86.827,103.255c-2.023,12.367-2.645,25.331-.382,37.708,2.1,11.484,7.436,22.584,16.865,29.79,9.772,7.468,22.271,8.225,33.841,5.123a76.311,76.311,0,0,0,16.85-6.93c5.186-2.848,10.086-6.375,13.68-11.133a23.141,23.141,0,0,0,4.839-15.836c-.608-6.069-4.2-10.736-8.9-14.377-9.465-7.329-21.075-11.666-32.714-14.052-26.53-5.44-53.6-.919-80.383-2.584-12.041-.749-24.9-2.987-34.2-11.29a27.838,27.838,0,0,1-8.636-13.734c-1.581-6.07-1.126-12.509.022-18.612a132.9,132.9,0,0,1,11.438-33.527,151.312,151.312,0,0,1,19.008-29.572,163.828,163.828,0,0,1,56.066-43.4,171.178,171.178,0,0,1,33.961-12.089c11.916-2.842,24.48-4.268,36.669-2.432a62.463,62.463,0,0,1,16.893,4.945,1.8,1.8,0,0,0,2.388-.626,1.759,1.759,0,0,0-.627-2.388Z" transform="translate(-1514.788 -8.613)" fill="url(#linear-gradient)"/>
        </g>
        <g id="Group_427" data-name="Group 427" transform="translate(0 21.889)">
          <path id="Path_571" data-name="Path 571" d="M1633.882,117.913A138.86,138.86,0,0,0,1491.961,47.7c-19.506,2.782-38.825,9.631-55.287,20.547a80.177,80.177,0,0,0-20.234,18.587c-5.618,7.534-10.041,17-9.641,26.594.9,21.614,27.2,27.022,44.442,27.889,22.173,1.114,44.419-4.241,65.886-9.136,22.255-5.076,44.243-11.137,66.089-17.74,21.15-6.392,42.221-13.078,63.605-18.657,21.425-5.589,43.215-10.078,65.319-11.814q7.982-.627,15.992-.763c2.243-.038,2.251-3.529,0-3.49-21.385.365-42.621,3.514-63.473,8.15-21.053,4.681-41.74,10.835-62.36,17.114-20.844,6.347-41.667,12.752-62.776,18.178q-16.3,4.189-32.756,7.752c-10.7,2.316-21.449,4.579-32.323,5.9-10.5,1.277-21.229,1.727-31.728.208-9-1.3-19.245-3.724-26.142-10.061-7.434-6.831-7.406-17.048-4.067-25.954,3.163-8.438,8.932-15.738,15.555-21.742,13.994-12.684,32.343-20.841,50.516-25.393a138.006,138.006,0,0,1,58.287-1.949,134.815,134.815,0,0,1,49.609,20.069,137.69,137.69,0,0,1,37.6,36.73q3.657,5.313,6.79,10.959c1.093,1.963,4.108.2,3.014-1.762Z" transform="translate(-1406.775 -46.24)" fill="url(#linear-gradient-2)"/>
        </g>
        <g id="Group_428" data-name="Group 428" transform="translate(73.74 5.4)">
          <path id="Path_572" data-name="Path 572" d="M1538.484,18.778c-7.592,14.9-5.435,32.531-.359,47.87a111.194,111.194,0,0,0,23.966,41.236c10.8,11.513,24.383,19.99,38.957,25.878,15.317,6.189,31.646,9.4,48.062,10.808,18.646,1.6,37.39.9,56.05-.07q3.375-.175,6.751-.358c2.235-.12,2.248-3.611,0-3.49-18.275.982-36.6,1.942-54.9.973-16.512-.874-32.969-3.4-48.632-8.829-14.331-4.963-27.968-12.385-39.139-22.726a103.271,103.271,0,0,1-25.593-38.354c-5.586-14.326-9.36-30.929-4.338-45.97a37.868,37.868,0,0,1,2.187-5.2c1.017-2-1.993-3.766-3.014-1.762Z" transform="translate(-1533.531 -17.896)" fill="url(#linear-gradient-3)"/>
        </g>
      </g>
    </g>
  </g>
</svg>
